<svg width="464" height="178" viewBox="0 0 464 178" fill="none" xmlns="http://www.w3.org/2000/svg">
<path d="M137.42 148.84C137.42 154.24 136.66 158.76 135.15 162.38C133.64 166.01 131.52 168.9 128.79 171.08C126.06 173.25 122.82 174.79 119.08 175.68C115.34 176.57 111.26 177.01 106.85 177.01C102.31 177.01 98.1699 176.55 94.4199 175.63C90.6699 174.71 87.4299 173.13 84.7099 170.88C81.9799 168.64 79.8799 165.66 78.3999 161.93C76.9199 158.21 76.1799 153.54 76.1799 147.94V125.6C76.1799 120 76.9199 115.32 78.3999 111.56C79.8799 107.8 81.9799 104.81 84.7099 102.56C87.4399 100.32 90.6799 98.7399 94.4199 97.8099C98.1699 96.8899 102.31 96.4299 106.85 96.4299C111.39 96.4299 115.53 96.91 119.28 97.86C123.03 98.82 126.25 100.4 128.94 102.61C131.63 104.82 133.72 107.72 135.2 111.31C136.68 114.9 137.42 119.3 137.42 124.51V125.4C137.35 126.72 136.7 127.38 135.45 127.38H119.37C117.99 127.38 117.3 126.69 117.3 125.3V123.82C117.3 120.53 116.53 117.91 114.98 115.96C113.43 114.02 110.72 113.04 106.84 113.04C102.96 113.04 100.22 113.98 98.6099 115.86C96.9999 117.74 96.1899 120.72 96.1899 124.81V148.63C96.1899 152.72 96.9899 155.7 98.6099 157.58C100.22 159.46 102.96 160.4 106.84 160.4C110.72 160.4 113.43 159.46 114.98 157.58C116.52 155.7 117.3 152.72 117.3 148.63V147.05C117.3 145.67 117.99 144.97 119.37 144.97H135.45C136.76 144.97 137.42 145.66 137.42 147.05V148.84Z" fill="#D1270D" stroke="black" stroke-miterlimit="10"/>
<path d="M146.29 173.46V99.8099C146.29 98.5599 146.95 97.9299 148.26 97.9299H164.93C166.31 97.9299 167 98.5599 167 99.8099V156.26H190.77C192.02 156.26 192.64 156.92 192.64 158.24V173.46C192.64 174.85 192.01 175.54 190.77 175.54H148.27C146.95 175.53 146.29 174.84 146.29 173.46Z" fill="#FFBC00" stroke="black" stroke-miterlimit="10"/>
<path d="M218.28 175.53H201.51C200.19 175.53 199.54 174.84 199.54 173.45V99.7999C199.54 98.5499 200.2 97.9199 201.51 97.9199H218.18C219.56 97.9199 220.25 98.5499 220.25 99.7999V173.45C220.25 174.84 219.6 175.53 218.28 175.53Z" fill="#FFE600" stroke="black" stroke-miterlimit="10"/>
<path d="M290.37 148.84C290.37 154.24 289.61 158.76 288.1 162.38C286.59 166.01 284.47 168.9 281.74 171.08C279.01 173.25 275.77 174.79 272.03 175.68C268.28 176.57 264.21 177.01 259.8 177.01C255.26 177.01 251.12 176.55 247.37 175.63C243.62 174.71 240.38 173.13 237.66 170.88C234.93 168.64 232.83 165.66 231.35 161.93C229.87 158.2 229.13 153.54 229.13 147.94V125.6C229.13 120 229.87 115.32 231.35 111.56C232.83 107.8 234.93 104.81 237.66 102.56C240.39 100.32 243.63 98.7399 247.37 97.8099C251.12 96.8899 255.26 96.4299 259.8 96.4299C264.34 96.4299 268.48 96.91 272.23 97.86C275.98 98.82 279.2 100.4 281.89 102.61C284.58 104.82 286.67 107.72 288.15 111.31C289.63 114.9 290.37 119.3 290.37 124.51V125.4C290.3 126.72 289.65 127.38 288.4 127.38H272.32C270.94 127.38 270.25 126.69 270.25 125.3V123.82C270.25 120.53 269.48 117.91 267.93 115.96C266.38 114.02 263.67 113.04 259.79 113.04C255.91 113.04 253.17 113.98 251.56 115.86C249.95 117.74 249.14 120.72 249.14 124.81V148.63C249.14 152.72 249.94 155.7 251.56 157.58C253.17 159.46 255.91 160.4 259.79 160.4C263.67 160.4 266.38 159.46 267.93 157.58C269.47 155.7 270.25 152.72 270.25 148.63V147.05C270.25 145.67 270.94 144.97 272.32 144.97H288.4C289.71 144.97 290.37 145.66 290.37 147.05V148.84Z" fill="#D7ED00" stroke="black" stroke-miterlimit="10"/>
<path d="M319.46 173.46C319.46 174.85 318.77 175.54 317.39 175.54H301.22C299.9 175.54 299.25 174.85 299.25 173.46V99.8099C299.25 98.5599 299.91 97.9299 301.22 97.9299H317.39C318.77 97.9299 319.46 98.5599 319.46 99.8099V125.81L335.54 99.51C335.87 98.98 336.2 98.5899 336.53 98.3199C336.86 98.0599 337.29 97.9199 337.81 97.9199H357.63C358.35 97.9199 358.86 98.1399 359.16 98.5599C359.46 98.9899 359.37 99.5699 358.91 100.29L319.46 158.81V173.46ZM341.16 175.53C339.91 175.53 339.15 175 338.89 173.95L328.24 153.68C328.04 153.29 327.93 152.84 327.89 152.35C327.86 151.86 328 151.38 328.33 150.92L338.09 136.49C339.01 135.04 339.9 135.04 340.75 136.49L362.25 173.26C362.91 174.78 362.41 175.54 360.77 175.54H341.16V175.53Z" fill="#73B0DF" stroke="black" stroke-width="0.75" stroke-miterlimit="10"/>
<path d="M371.53 152.7C370.15 152.7 369.46 152.04 369.46 150.72L368.77 98.0299C368.77 96.6399 369.46 95.95 370.84 95.95H385.73C387.11 95.95 387.8 96.6399 387.8 98.0299L387.11 150.72C387.11 152.04 386.42 152.7 385.04 152.7H371.53ZM371.24 176.03C369.86 176.03 369.17 175.37 369.17 174.05V161.4C369.17 159.95 369.86 159.22 371.24 159.22H385.34C386.72 159.22 387.41 159.95 387.41 161.4V174.05C387.41 175.37 386.72 176.03 385.34 176.03H371.24Z" fill="white" stroke="black" stroke-miterlimit="10"/>
<path d="M31.7 45.3099V54.7799C31.7 55.6399 31.27 56.0699 30.41 56.0699H20.49C19.63 56.0699 19.2 55.6399 19.2 54.7799V45.3099H1.34998C0.449976 45.3099 0 44.8399 0 43.8899V37.0599C0 36.1999 0.449976 35.7699 1.34998 35.7699H49.49C50.39 35.7699 50.84 36.1999 50.84 37.0599V43.8899C50.84 44.8399 50.39 45.3099 49.49 45.3099H31.7ZM15.91 30.48C15.69 30.74 15.47 30.9699 15.23 31.1899C14.99 31.4099 14.68 31.51 14.3 31.51H1.79999C1.27999 31.51 0.900015 31.3599 0.640015 31.0599C0.380015 30.7599 0.42002 30.4 0.77002 29.97L21.91 4.57996C22.12 4.27996 22.36 4.02997 22.62 3.83997C22.88 3.64997 23.18 3.54993 23.52 3.54993H36.67C37.14 3.54993 37.45 3.72998 37.6 4.09998C37.75 4.46998 37.67 4.83998 37.37 5.22998L15.91 30.48ZM26.93 22.36C26.5 21.76 26.5 21.18 26.93 20.62L32.73 13.72C33.29 12.95 33.89 12.9299 34.53 13.6499L50.32 29.96C50.66 30.35 50.71 30.6999 50.45 31.0199C50.19 31.3399 49.81 31.5 49.29 31.5H36.47C36.08 31.5 35.77 31.3899 35.54 31.1799C35.3 30.9699 35.08 30.73 34.86 30.47L26.93 22.36Z" fill="white"/>
<path d="M59.1499 32.4199C58.2899 32.5099 57.8599 32.08 57.8599 31.13V24.36C57.8599 23.59 58.2899 23.1599 59.1499 23.0699C61.2099 22.8999 63.2199 22.5199 65.1799 21.9399C67.1299 21.3599 68.9099 20.6099 70.4999 19.6799C72.0899 18.7599 73.4199 17.6999 74.4999 16.5199C75.5699 15.3399 76.2599 14.0599 76.5599 12.6799H58.1899C57.3299 12.6799 56.8999 12.2499 56.8999 11.3899V4.81995C56.8999 3.95995 57.3299 3.52991 58.1899 3.52991H88.1599C89.0599 3.52991 89.5099 3.98 89.5099 4.88V10.1599C89.5099 12.7399 89.0799 15.06 88.2199 17.12C87.3599 19.18 86.1799 21.01 84.6799 22.6C83.1799 24.19 81.4399 25.56 79.4599 26.72C77.4799 27.88 75.3699 28.8599 73.1099 29.6499C70.8499 30.4399 68.5299 31.06 66.1499 31.49C63.7599 31.95 61.4299 32.2499 59.1499 32.4199ZM77.3199 56.7799C71.4299 56.7799 66.98 55.86 63.95 54.01C60.92 52.16 59.4099 49.2599 59.4099 45.3099C59.4099 41.3199 60.92 38.4 63.95 36.58C66.98 34.75 71.4399 33.84 77.3199 33.84H88.9199C94.8099 33.84 99.2099 34.75 102.13 36.58C105.05 38.41 106.51 41.3199 106.51 45.3099C106.51 49.2599 105.05 52.16 102.13 54.01C99.2099 55.86 94.7999 56.7799 88.9199 56.7799H77.3199ZM88.9199 48.85C90.7199 48.85 91.9599 48.5399 92.6299 47.9199C93.2999 47.2999 93.6299 46.4299 93.6299 45.3099C93.6299 44.1899 93.2999 43.32 92.6299 42.7C91.9599 42.08 90.7299 41.7699 88.9199 41.7699H77.3199C75.5199 41.7699 74.23 42.0599 73.45 42.6399C72.68 43.2199 72.2899 44.1099 72.2899 45.3099C72.2899 46.5599 72.68 47.4599 73.45 48.0199C74.22 48.5799 75.5099 48.86 77.3199 48.86H88.9199V48.85ZM95.0499 31.5199C94.1499 31.5199 93.7 31.09 93.7 30.23V4.26001C93.7 3.36001 94.1499 2.90991 95.0499 2.90991H104.27C105.17 2.90991 105.62 3.36001 105.62 4.26001V12.0599H108.65C109.51 12.0599 109.94 12.5099 109.94 13.4099V20.95C109.94 21.81 109.51 22.24 108.65 22.24H105.62V30.23C105.62 31.09 105.17 31.5199 104.27 31.5199H95.0499Z" fill="white"/>
<path d="M126.88 33C126.62 33.69 126.08 34.0299 125.27 34.0299H114.83C114.31 34.0299 113.96 33.89 113.77 33.61C113.58 33.33 113.59 32.96 113.8 32.48L124.69 4.57996C124.95 3.88996 125.44 3.54993 126.17 3.54993H137.13C137.6 3.54993 137.94 3.68997 138.13 3.96997C138.32 4.24997 138.31 4.62998 138.1 5.09998L126.88 33ZM163.1 44.5299C163.92 44.5299 164.32 44.9599 164.32 45.8199V53.5499C164.32 54.4099 163.91 54.84 163.1 54.84H117.6C116.74 54.84 116.31 54.4099 116.31 53.5499V38.9199C116.31 38.0599 116.74 37.63 117.6 37.63H127.33C128.23 37.63 128.68 38.0599 128.68 38.9199V44.5299H163.1ZM136.16 33.6399C135.34 33.6399 134.85 33.3 134.68 32.61L132.42 25.84C132.33 25.54 132.29 25.2699 132.29 25.0299C132.29 24.7899 132.35 24.4999 132.48 24.1599L137.51 11.59C137.72 11.03 138.01 10.75 138.38 10.75C138.74 10.75 139.03 11.03 139.25 11.59L147.11 32.1499C147.54 33.1399 147.22 33.63 146.14 33.63H136.16V33.6399ZM153.17 37.96C152.27 37.96 151.82 37.5299 151.82 36.6699V4.25C151.82 3.35 152.27 2.8999 153.17 2.8999H162.39C163.29 2.8999 163.74 3.35 163.74 4.25V36.6699C163.74 37.5299 163.29 37.96 162.39 37.96H153.17Z" fill="white"/>
<path d="M170.77 6.31995C170.77 5.45995 171.22 5.02991 172.12 5.02991H181.21V1.73999C181.21 0.83999 181.66 0.389893 182.56 0.389893H191.45C192.35 0.389893 192.8 0.83999 192.8 1.73999V5.02991H202.08C202.94 5.02991 203.37 5.45995 203.37 6.31995V12.1799C203.37 13.0399 202.94 13.47 202.08 13.47H194.73L183.26 31.26C183.09 31.56 182.87 31.81 182.62 32C182.36 32.19 182.04 32.2899 181.65 32.2899H171.53C171.01 32.2899 170.66 32.15 170.47 31.87C170.28 31.59 170.29 31.22 170.5 30.74L181.39 13.47H172.11C171.21 13.47 170.76 13.0399 170.76 12.1799V6.31995H170.77ZM191.13 56.13C185.24 56.13 180.79 55.2599 177.76 53.5199C174.73 51.7799 173.22 49.26 173.22 45.95C173.22 42.6 174.73 40.06 177.76 38.35C180.79 36.63 185.25 35.7699 191.13 35.7699H203.37C209.26 35.7699 213.66 36.63 216.58 38.35C219.5 40.07 220.96 42.6 220.96 45.95C220.96 49.26 219.5 51.7799 216.58 53.5199C213.66 55.2599 209.25 56.13 203.37 56.13H191.13ZM203.38 48.85C205.18 48.85 206.42 48.57 207.09 48.01C207.76 47.45 208.09 46.76 208.09 45.95C208.09 45.13 207.76 44.4499 207.09 43.8899C206.42 43.3299 205.19 43.0499 203.38 43.0499H191.14C189.34 43.0499 188.05 43.32 187.27 43.86C186.5 44.4 186.11 45.09 186.11 45.96C186.11 46.86 186.5 47.57 187.27 48.09C188.04 48.61 189.33 48.86 191.14 48.86H203.38V48.85ZM192.42 31.8999C192.08 31.8999 191.8 31.8099 191.58 31.6399C191.36 31.4699 191.15 31.21 190.94 30.87L188.94 27.45C188.81 27.15 188.75 26.9799 188.75 26.9299C188.75 26.8899 188.84 26.7199 189.01 26.4099L194.29 17.97C194.89 16.94 195.47 16.94 196.03 17.97L203.51 30.4099C203.77 30.8399 203.79 31.19 203.57 31.47C203.35 31.75 203.01 31.8899 202.54 31.8899H192.42V31.8999ZM210.08 33.7699C209.18 33.7699 208.73 33.34 208.73 32.48V24.8099H202.48C201.62 24.8099 201.19 24.3799 201.19 23.5199V16.62C201.19 15.72 201.62 15.2699 202.48 15.2699H208.73V4.25C208.73 3.35 209.18 2.8999 210.08 2.8999H219.3C220.2 2.8999 220.65 3.35 220.65 4.25V32.48C220.65 33.34 220.2 33.7699 219.3 33.7699H210.08Z" fill="white"/>
<path d="M226.96 6.18994C226.96 5.32994 227.41 4.8999 228.31 4.8999H237.98V1.34998C237.98 0.449976 238.43 0 239.33 0H248.22C249.12 0 249.57 0.449976 249.57 1.34998V4.8999H258.85C259.75 4.8999 260.2 5.32994 260.2 6.18994V10.96C260.2 11.82 259.75 12.25 258.85 12.25H228.3C227.4 12.25 226.95 11.82 226.95 10.96V6.18994H226.96ZM259.31 22.36C259.31 23.74 258.93 24.9199 258.18 25.8999C257.43 26.8899 256.38 27.6899 255.02 28.3199C253.67 28.9399 252.03 29.3999 250.12 29.6699C248.21 29.9499 246.09 30.09 243.77 30.09C241.45 30.09 239.34 29.9499 237.45 29.6699C235.56 29.3899 233.93 28.9399 232.55 28.3199C231.17 27.6999 230.11 26.8899 229.36 25.8999C228.61 24.9099 228.23 23.73 228.23 22.36V21.6499C228.23 20.2799 228.61 19.09 229.36 18.11C230.11 17.12 231.16 16.3199 232.52 15.6899C233.87 15.0699 235.51 14.62 237.42 14.34C239.33 14.06 241.45 13.9199 243.77 13.9199C246.09 13.9199 248.19 14.06 250.09 14.34C251.98 14.62 253.61 15.0699 254.99 15.6899C256.36 16.3099 257.43 17.12 258.18 18.11C258.93 19.1 259.31 20.2799 259.31 21.6499V22.36ZM230.77 55.1699C229.91 55.1699 229.48 54.74 229.48 53.88V42.73C229.48 41.83 229.91 41.38 230.77 41.38H263.64V38.74H230.77C229.91 38.74 229.48 38.31 229.48 37.45V34.0299C229.48 33.1699 229.91 32.74 230.77 32.74H275.04C275.9 32.74 276.33 33.1699 276.33 34.0299V45.0499C276.33 45.9099 275.9 46.34 275.04 46.34H242.24V49.11H275.62C276.48 49.11 276.91 49.5399 276.91 50.3999V53.88C276.91 54.74 276.48 55.1699 275.62 55.1699H230.77ZM247.97 21.98C247.97 21.16 247.66 20.46 247.04 19.85C246.42 19.25 245.33 18.95 243.79 18.95C242.2 18.95 241.1 19.25 240.5 19.85C239.9 20.45 239.6 21.1799 239.6 22.0399C239.6 22.8999 239.91 23.62 240.53 24.2C241.15 24.78 242.24 25.0699 243.78 25.0699C245.37 25.0699 246.46 24.7599 247.07 24.1399C247.67 23.5099 247.97 22.79 247.97 21.98ZM265.76 29.45C264.86 29.45 264.41 29.0199 264.41 28.1599V4.25C264.41 3.35 264.86 2.8999 265.76 2.8999H274.98C275.88 2.8999 276.33 3.35 276.33 4.25V10.95H279.36C280.22 10.95 280.65 11.3999 280.65 12.2999V19.8999C280.65 20.7599 280.22 21.1899 279.36 21.1899H276.33V28.1499C276.33 29.0099 275.88 29.4399 274.98 29.4399H265.76V29.45Z" fill="white"/>
<path d="M299.4 54.01C298.5 54.01 298.05 53.54 298.05 52.59V45.12C298.05 44.26 298.5 43.83 299.4 43.83H303.72V28.5599C303.72 27.6999 304.15 27.2699 305.01 27.2699H313.65C314.51 27.2699 314.94 27.6999 314.94 28.5599V43.83H319.32C322.46 43.83 325.45 43.6999 328.31 43.4399C331.17 43.1799 333.76 42.62 336.08 41.76V4.25C336.08 3.35 336.53 2.8999 337.43 2.8999H346.65C347.55 2.8999 348 3.35 348 4.25V22.0399H351.42C352.28 22.0399 352.71 22.4899 352.71 23.3899V31.96C352.71 32.82 352.28 33.25 351.42 33.25H347.99V54.1899C347.99 55.0499 347.54 55.48 346.64 55.48H337.42C336.52 55.48 336.07 55.0499 336.07 54.1899V50.8999C333.92 51.8899 331.32 52.6499 328.27 53.1899C325.22 53.7299 321.8 54 318.02 54H299.4V54.01ZM328.72 34.74C328.59 35.17 328.43 35.4799 328.24 35.6699C328.05 35.8599 327.71 35.92 327.24 35.83H318.54C318.11 35.79 317.79 35.6499 317.57 35.4099C317.35 35.1699 317.29 34.8399 317.38 34.4099C317.68 33.2099 317.97 31.7899 318.25 30.1599C318.53 28.5299 318.77 26.8 318.96 24.97C319.15 23.14 319.31 21.2899 319.44 19.3999C319.57 17.5099 319.65 15.7299 319.7 14.0499H301.53C300.67 14.0499 300.24 13.62 300.24 12.76V5.79993C300.24 4.93993 300.67 4.51001 301.53 4.51001H330.34C331.24 4.51001 331.69 4.93993 331.69 5.79993L331.56 13.3999C331.47 16.6599 331.34 19.36 331.17 21.49C331 23.62 330.79 25.44 330.56 26.97C330.32 28.5 330.05 29.84 329.75 31C329.45 32.16 329.11 33.41 328.72 34.74Z" fill="white"/>
<path d="M387.95 24.0399V28.1H405.74C406.64 28.1 407.09 28.5299 407.09 29.3899V35.38C407.09 36.28 406.64 36.73 405.74 36.73H357.59C356.69 36.73 356.24 36.28 356.24 35.38V29.3899C356.24 28.5299 356.69 28.1 357.59 28.1H375.44V24.0399H358.75C357.89 24.0399 357.46 23.61 357.46 22.75V14.5699C357.46 13.7099 357.89 13.2799 358.75 13.2799H368.35C369.21 13.2799 369.64 13.7099 369.64 14.5699V16.24H393.68V11.34H358.17C357.27 11.34 356.82 10.89 356.82 9.98999V4.8999C356.82 4.0399 357.27 3.60999 358.17 3.60999H404.51C405.41 3.60999 405.86 4.0399 405.86 4.8999V22.75C405.86 23.61 405.41 24.0399 404.51 24.0399H387.95ZM358.62 48.5299C357.72 48.5299 357.27 48.14 357.27 47.37V41.7C357.27 40.84 357.72 40.4099 358.62 40.4099H404.89C405.75 40.4099 406.18 40.84 406.18 41.7V54.2C406.18 55.06 405.75 55.49 404.89 55.49H394.97C394.11 55.49 393.68 55.06 393.68 54.2V48.5299H358.62Z" fill="white"/>
<path d="M414.5 31C413.6 31 413.15 30.5499 413.15 29.6499V25.9099C413.15 25.0499 413.6 24.62 414.5 24.62H462.64C463.54 24.62 463.99 25.0499 463.99 25.9099V29.6499C463.99 30.5499 463.54 31 462.64 31H414.5ZM440.08 15.7899C442.23 15.7899 444 15.74 445.4 15.63C446.8 15.52 447.91 15.3599 448.75 15.1499C449.59 14.9299 450.17 14.63 450.49 14.25C450.81 13.86 450.97 13.39 450.97 12.83C450.97 12.27 450.79 11.7999 450.42 11.4099C450.05 11.0199 449.33 10.6999 448.26 10.4399C447.19 10.1799 445.69 9.99989 443.78 9.88989C441.87 9.77989 439.37 9.72998 436.27 9.72998H414.75C413.85 9.72998 413.4 9.29994 413.4 8.43994V4.56995C413.4 3.70995 413.85 3.27991 414.75 3.27991H435.89C441.17 3.27991 445.56 3.46999 449.04 3.85999C452.52 4.24999 455.29 4.84 457.35 5.63C459.41 6.43 460.86 7.42 461.7 8.63C462.54 9.83 462.96 11.27 462.96 12.95C462.96 14.63 462.56 16.05 461.77 17.23C460.97 18.41 459.69 19.38 457.9 20.13C456.12 20.88 453.76 21.4299 450.84 21.7699C447.92 22.1099 444.33 22.2899 440.08 22.2899H437.5C433.25 22.2899 429.67 22.1199 426.77 21.7699C423.87 21.4299 421.53 20.8899 419.74 20.1599C417.96 19.4299 416.68 18.4799 415.91 17.3199C415.14 16.1599 414.75 14.7399 414.75 13.0699V12.9399C414.75 12.0799 415.18 11.6499 416.04 11.6499H425.38C426.28 11.6499 426.73 12.0799 426.73 12.9399C426.73 13.4599 426.89 13.9 427.21 14.26C427.53 14.63 428.09 14.9299 428.89 15.1599C429.68 15.3999 430.78 15.5599 432.18 15.6399C433.58 15.7299 435.35 15.7699 437.5 15.7699H440.08V15.7899ZM415.33 55.49C414.47 55.49 414.04 55.06 414.04 54.2V43.4399C414.04 42.5399 414.47 42.09 415.33 42.09H450.39V39.38H415.33C414.47 39.38 414.04 38.95 414.04 38.09V34.9299C414.04 34.0699 414.47 33.6399 415.33 33.6399H461.79C462.65 33.6399 463.08 34.0699 463.08 34.9299V45.5599C463.08 46.4199 462.65 46.85 461.79 46.85H426.8V49.62H462.05C462.91 49.62 463.34 50.0499 463.34 50.9099V54.2C463.34 55.06 462.91 55.49 462.05 55.49H415.33Z" fill="white"/>
</svg>
