<svg width="272" height="29" viewBox="0 0 272 29" fill="none" xmlns="http://www.w3.org/2000/svg">
<path d="M8.64001 16.87C7.49001 16.45 6.42003 16.02 5.41003 15.57C4.40003 15.13 3.53005 14.61 2.80005 14.01C2.06005 13.41 1.48005 12.7 1.05005 11.85C0.620049 11.01 0.400024 9.97 0.400024 8.73C0.400024 7.19 0.650015 5.87 1.14001 4.77C1.63001 3.67 2.31004 2.77 3.17004 2.07C4.03004 1.37 5.07002 0.850002 6.27002 0.510002C7.47002 0.170002 8.8 0 10.25 0C11.68 0 12.99 0.179999 14.2 0.529999C15.4 0.879999 16.44 1.39 17.3 2.07C18.16 2.75 18.84 3.57 19.33 4.54C19.82 5.51 20.0699 6.61 20.0699 7.85V8C20.0499 8.47 19.81 8.7 19.37 8.7H13.65C13.18 8.7 12.95 8.45 12.95 7.96V7.78C12.95 7.24 12.73 6.79 12.3 6.43C11.87 6.07 11.23 5.89 10.39 5.89C8.71001 5.89 7.85999 6.72 7.85999 8.38C7.85999 9.13 8.21003 9.71 8.91003 10.13C9.61003 10.55 10.73 11.03 12.28 11.57C13.57 12.01 14.71 12.48 15.72 12.97C16.73 13.46 17.57 14.02 18.26 14.64C18.95 15.26 19.48 15.98 19.84 16.8C20.2 17.62 20.38 18.58 20.38 19.68C20.38 21.22 20.12 22.55 19.59 23.66C19.06 24.77 18.3501 25.69 17.4301 26.43C16.5201 27.17 15.4401 27.71 14.1901 28.06C12.9401 28.41 11.59 28.59 10.14 28.59C8.71001 28.59 7.39003 28.41 6.16003 28.06C4.93003 27.71 3.85995 27.2 2.94995 26.52C2.03995 25.84 1.32004 25.02 0.790039 24.05C0.260039 23.08 0 21.98 0 20.74V20.6C0.02 20.13 0.259951 19.9 0.699951 19.9H6.42004C6.89004 19.9 7.12 20.15 7.12 20.64V20.85C7.12 21.44 7.37 21.89 7.87 22.22C8.37 22.55 9.10998 22.71 10.1 22.71C11.11 22.71 11.82 22.48 12.26 22.03C12.69 21.57 12.91 20.94 12.91 20.12C12.91 19.63 12.77 19.21 12.49 18.87C12.21 18.53 11.8601 18.24 11.4401 17.99C11.0201 17.74 10.56 17.54 10.05 17.38C9.56005 17.2 9.08001 17.03 8.64001 16.87Z" fill="white"/>
<path d="M30.5601 6.63003C30.0701 6.63003 29.8199 6.40003 29.8199 5.93003V1.23003C29.8199 0.760034 30.0701 0.530029 30.5601 0.530029H46.83C47.3 0.530029 47.53 0.760034 47.53 1.23003V5.89003C47.53 6.38003 47.3 6.63003 46.83 6.63003H30.5601ZM31.3 28.06C30.81 28.06 30.5601 27.83 30.5601 27.36V8.39003C30.5601 7.92003 30.79 7.69003 31.26 7.69003H37.1901C37.6801 7.69003 37.9301 7.92003 37.9301 8.39003V11.41H45.51C45.95 11.41 46.1801 11.64 46.1801 12.11V16.21C46.1801 16.7 45.96 16.95 45.51 16.95H37.9301V21.97H47.08C47.52 21.97 47.75 22.2 47.75 22.67V27.33C47.75 27.82 47.53 28.07 47.08 28.07H31.3V28.06Z" fill="white"/>
<path d="M65.03 8.66003V18.02C65.03 19.47 65.31 20.53 65.87 21.19C66.43 21.86 67.4 22.19 68.78 22.19C70.16 22.19 71.14 21.86 71.71 21.19C72.28 20.52 72.5699 19.47 72.5699 18.02V12.34C72.5699 11.48 72.4899 10.7 72.3199 10.03C72.1599 9.35003 71.85 8.78003 71.39 8.33003C70.93 7.87003 70.3 7.52003 69.48 7.28003C68.66 7.03003 67.6099 6.91003 66.3199 6.91003H57.9C57.41 6.91003 57.16 6.68003 57.16 6.21003V1.23003C57.16 0.760034 57.41 0.530029 57.9 0.530029H66.14C68.5 0.530029 70.54 0.750027 72.24 1.20003C73.95 1.64003 75.35 2.33003 76.45 3.25003C77.55 4.17003 78.36 5.36003 78.89 6.81003C79.42 8.26003 79.6801 9.99003 79.6801 12V18.28C79.6801 20.27 79.42 21.92 78.89 23.24C78.36 24.56 77.62 25.62 76.65 26.41C75.68 27.21 74.53 27.77 73.2 28.09C71.87 28.42 70.39 28.58 68.78 28.58C67.17 28.58 65.69 28.42 64.36 28.09C63.03 27.76 61.88 27.2 60.92 26.41C59.96 25.62 59.2201 24.56 58.6901 23.24C58.1601 21.92 57.9 20.27 57.9 18.28V8.67003C57.9 8.20003 58.13 7.97003 58.6 7.97003H64.28C64.79 7.96003 65.03 8.20003 65.03 8.66003Z" fill="white"/>
<path d="M111.29 18.27C111.29 20.26 111.03 21.91 110.5 23.23C109.97 24.55 109.24 25.61 108.29 26.4C107.34 27.2 106.21 27.76 104.89 28.08C103.57 28.41 102.12 28.57 100.56 28.57C99.0001 28.57 97.56 28.41 96.25 28.08C94.94 27.75 93.81 27.19 92.87 26.4C91.92 25.61 91.19 24.55 90.66 23.23C90.13 21.91 89.87 20.26 89.87 18.27V1.23003C89.87 0.760034 90.0999 0.530029 90.5699 0.530029H96.25C96.74 0.530029 96.99 0.760034 96.99 1.23003V18.52C96.99 19.97 97.2601 21.03 97.8101 21.69C98.3601 22.36 99.2801 22.69 100.56 22.69C101.84 22.69 102.77 22.36 103.33 21.69C103.89 21.02 104.17 19.97 104.17 18.52V1.23003C104.17 0.760034 104.4 0.530029 104.87 0.530029H110.55C111.04 0.530029 111.29 0.760034 111.29 1.23003V18.27Z" fill="white"/>
<path d="M121.81 27.32V1.19003C121.81 0.750025 122.04 0.52002 122.51 0.52002H128.44C128.93 0.52002 129.18 0.740025 129.18 1.19003V21.22H137.63C138.07 21.22 138.3 21.45 138.3 21.92V27.32C138.3 27.81 138.08 28.06 137.63 28.06H122.51C122.05 28.06 121.81 27.81 121.81 27.32Z" fill="white"/>
<path d="M162.46 7.22002C162.02 7.22002 161.79 6.99002 161.79 6.52002V1.26003C161.79 0.770025 162.01 0.52002 162.46 0.52002H180.77C181.21 0.52002 181.44 0.770025 181.44 1.26003V6.52002C181.44 6.99002 181.22 7.22002 180.77 7.22002H162.46ZM175.3 27.39C175.3 27.83 175.05 28.06 174.56 28.06H168.63C168.16 28.06 167.93 27.84 167.93 27.39V8.94003C167.93 8.50003 168.16 8.27002 168.63 8.27002H174.56C175.05 8.27002 175.3 8.49003 175.3 8.94003V27.39Z" fill="white"/>
<path d="M190.9 6.63003C190.41 6.63003 190.16 6.40003 190.16 5.93003V1.23003C190.16 0.760034 190.41 0.530029 190.9 0.530029H207.17C207.64 0.530029 207.87 0.760034 207.87 1.23003V5.89003C207.87 6.38003 207.64 6.63003 207.17 6.63003H190.9ZM191.64 28.06C191.15 28.06 190.9 27.83 190.9 27.36V8.39003C190.9 7.92003 191.13 7.69003 191.6 7.69003H197.53C198.02 7.69003 198.27 7.92003 198.27 8.39003V11.41H205.85C206.29 11.41 206.52 11.64 206.52 12.11V16.21C206.52 16.7 206.3 16.95 205.85 16.95H198.27V21.97H207.42C207.86 21.97 208.09 22.2 208.09 22.67V27.33C208.09 27.82 207.87 28.07 207.42 28.07H191.64V28.06Z" fill="white"/>
<path d="M238.98 18.59C238.98 20.51 238.71 22.11 238.17 23.39C237.63 24.68 236.88 25.7 235.91 26.48C234.94 27.25 233.79 27.79 232.46 28.11C231.13 28.43 229.68 28.58 228.11 28.58C226.5 28.58 225.02 28.42 223.69 28.09C222.36 27.76 221.21 27.2 220.24 26.41C219.27 25.62 218.52 24.56 218 23.24C217.47 21.92 217.21 20.27 217.21 18.28V10.35C217.21 8.36001 217.47 6.70001 218 5.37001C218.53 4.04001 219.27 2.97001 220.24 2.18001C221.21 1.39001 222.36 0.820008 223.69 0.500008C225.02 0.170008 226.5 0.0100098 228.11 0.0100098C229.72 0.0100098 231.2 0.180004 232.53 0.520004C233.86 0.860004 235.01 1.42 235.97 2.2C236.93 2.98 237.67 4.01001 238.2 5.29001C238.73 6.56001 238.99 8.13001 238.99 9.97001V10.29C238.97 10.76 238.73 10.99 238.29 10.99H232.57C232.08 10.99 231.83 10.74 231.83 10.25V9.72001C231.83 8.55001 231.55 7.62001 231.01 6.93001C230.46 6.24001 229.5 5.90001 228.12 5.90001C226.74 5.90001 225.76 6.23001 225.19 6.90001C224.62 7.57001 224.33 8.62001 224.33 10.07V18.52C224.33 19.97 224.62 21.03 225.19 21.69C225.76 22.36 226.74 22.69 228.12 22.69C229.5 22.69 230.46 22.36 231.01 21.69C231.56 21.02 231.83 19.97 231.83 18.52V17.96C231.83 17.47 232.08 17.22 232.57 17.22H238.29C238.76 17.22 238.99 17.47 238.99 17.96V18.59H238.98Z" fill="white"/>
<path d="M256.34 27.32C256.34 27.81 256.09 28.06 255.6 28.06H249.85C249.38 28.06 249.15 27.81 249.15 27.32V1.19003C249.15 0.750025 249.38 0.52002 249.85 0.52002H255.6C256.09 0.52002 256.34 0.740025 256.34 1.19003V27.32ZM258.13 17.64C257.64 17.64 257.39 17.41 257.39 16.94V11.5C257.39 11.03 257.64 10.8 258.13 10.8H264.06V1.19003C264.06 0.750025 264.29 0.52002 264.76 0.52002H270.51C271 0.52002 271.25 0.740025 271.25 1.19003V27.32C271.25 27.81 271.02 28.06 270.55 28.06H264.76C264.29 28.06 264.06 27.81 264.06 27.32V17.64H258.13Z" fill="white"/>
</svg>
