<svg width="1159" height="510" viewBox="0 0 1159 510" fill="none" xmlns="http://www.w3.org/2000/svg">
<path d="M688.06 232.94C644.14 207.79 614.4 235.831 578.7 235.721C543.01 235.601 517.42 207.381 473.34 232.251C438.67 251.801 422.07 303.261 427.19 353.291C432.35 403.721 459.77 486.53 516.46 503.63C534.73 509.14 551.08 501.961 576.31 499.551C579.31 499.261 582.36 499.271 585.36 499.581C610.35 502.161 624.88 509.431 643.18 504.041C699.98 487.311 727.94 404.681 733.43 354.291C738.87 304.291 722.6 252.72 688.06 232.94Z" fill="#D1270D" stroke="black" stroke-miterlimit="10"/>
<path d="M496.27 121.791C489.74 145.691 496.14 174.34 515.48 196.86C534.82 219.38 562.18 230.021 586.79 227.171C593.32 203.271 586.92 174.62 567.58 152.1C548.24 129.58 520.88 118.941 496.27 121.791Z" fill="white" stroke="black" stroke-width="0.5" stroke-miterlimit="10"/>
<path d="M478.53 263.7C478.71 263.14 479.14 262.97 479.83 263.19L490.23 266.471C490.92 266.691 491.18 267.081 491 267.631L489.09 273.68C488.91 274.24 488.48 274.41 487.79 274.19L480.6 271.921L475.66 287.601L477.68 288.241L481.94 274.711C482.13 274.121 482.58 273.941 483.3 274.171L485.42 274.841C486.11 275.061 486.36 275.461 486.18 276.051L481.92 289.581L482.85 289.87C483.54 290.09 483.79 290.491 483.61 291.081L481.72 297.091C481.53 297.681 481.1 297.86 480.41 297.65L470.01 294.38C469.32 294.16 469.07 293.76 469.25 293.17L478.53 263.7ZM484.41 292.861C484.59 292.271 485.03 292.091 485.72 292.301L511.85 300.531C512.57 300.761 512.84 301.171 512.66 301.751L511.2 306.37C511.01 306.96 510.56 307.14 509.83 306.91L483.7 298.68C483.01 298.46 482.76 298.061 482.94 297.471L484.41 292.861ZM487.4 284.471L487.45 284.301L489.3 278.42C489.48 277.86 489.91 277.69 490.6 277.91L493.65 278.87C494.37 279.1 494.65 279.491 494.47 280.051L492.84 285.221L514.36 292.001C515.08 292.231 515.35 292.641 515.17 293.221L513.71 297.841C513.52 298.431 513.07 298.61 512.35 298.38L486.69 290.301C486 290.081 485.75 289.681 485.93 289.091L487.4 284.471ZM500.29 284.88C500.26 285.21 500.14 285.431 499.91 285.541C499.68 285.651 499.4 285.661 499.05 285.551L496.46 284.741C496.08 284.621 495.85 284.461 495.76 284.241C495.68 284.031 495.62 283.781 495.6 283.501C495.54 282.621 495.53 281.68 495.57 280.7C495.61 279.71 495.71 278.671 495.87 277.581L490.9 276.011C490.21 275.791 489.95 275.401 490.13 274.851L491.64 270.06C491.82 269.5 492.25 269.331 492.94 269.551L497.59 271.021L498.72 267.45C498.91 266.86 499.38 266.69 500.14 266.93L503.55 268.011C504.24 268.231 504.49 268.631 504.31 269.221L502.14 276.111C501.65 277.651 501.25 279.09 500.92 280.44C500.6 281.76 500.39 283.25 500.29 284.88ZM512.89 277.581C512.7 278.171 512.25 278.35 511.53 278.12L511.48 278.101C510.68 277.851 509.99 277.761 509.4 277.841C508.81 277.921 508.42 278.251 508.23 278.841C508.05 279.431 508.17 279.94 508.6 280.37C509.03 280.8 509.65 281.14 510.44 281.39C511.1 281.6 511.63 281.69 512.03 281.66C512.44 281.63 512.78 281.511 513.06 281.291C513.34 281.071 513.55 280.77 513.71 280.41C513.86 280.04 514.02 279.611 514.18 279.101L516.09 273.051C516.27 272.461 516.71 272.281 517.4 272.491L520.14 273.351C520.86 273.581 521.13 273.99 520.95 274.57L519.11 280.41C518.11 283.58 516.76 285.711 515.04 286.821C513.33 287.931 511.18 288.071 508.59 287.261C507.28 286.851 506.2 286.3 505.35 285.62C504.5 284.94 503.87 284.161 503.47 283.291C503.06 282.421 502.86 281.481 502.85 280.461C502.84 279.441 503.02 278.391 503.36 277.291C503.7 276.201 504.17 275.241 504.75 274.421C505.33 273.601 506.04 272.951 506.87 272.481C507.7 272.001 508.66 271.731 509.75 271.651C510.84 271.581 512.03 271.751 513.34 272.161L513.39 272.18C514.11 272.41 514.39 272.801 514.21 273.361L512.89 277.581Z" fill="black"/>
<path d="M462.69 328.99C462.78 328.38 463.18 328.13 463.9 328.23L480.64 330.71L481.1 327.62C481.18 327.07 481.58 326.84 482.3 326.95L489.44 328.01C490.19 328.12 490.53 328.45 490.44 329.01L489.98 332.101L505.49 334.39C506.24 334.5 506.57 334.86 506.48 335.47L505.56 341.7C505.47 342.31 505.05 342.56 504.3 342.45L462.72 336.29C462 336.18 461.69 335.83 461.78 335.22L462.69 328.99ZM474.38 303.01C475.09 303.12 475.41 303.47 475.32 304.08L475.11 305.48L498.5 308.94C498.82 308.99 499.07 309.11 499.24 309.32C499.41 309.52 499.48 309.76 499.44 310.02L498.63 315.51C498.55 316.06 498.15 316.28 497.44 316.18L474.04 312.72L473.65 315.38L496.9 319.851C497.22 319.901 497.47 320.02 497.64 320.23C497.81 320.43 497.88 320.67 497.84 320.93L497.04 326.33C496.96 326.88 496.56 327.11 495.85 327L472.62 322.45L472.21 325.24C472.12 325.85 471.72 326.1 471 326L465.21 325.14C464.49 325.03 464.18 324.68 464.27 324.07L467.4 302.93C467.49 302.32 467.89 302.07 468.61 302.17L474.38 303.01ZM508.32 308.17C509.04 308.28 509.35 308.63 509.26 309.24L506.18 330.03C506.09 330.64 505.69 330.89 504.97 330.79L499.17 329.93C498.45 329.82 498.14 329.471 498.23 328.861L501.31 308.07C501.4 307.46 501.8 307.21 502.52 307.31L508.32 308.17Z" fill="black"/>
<path d="M461.04 347.42C461.01 346.83 461.36 346.521 462.08 346.491L471.13 346.051C471.89 346.011 472.28 346.29 472.31 346.88L473.46 370.821L475.74 370.71L474.58 346.771C474.55 346.181 474.9 345.871 475.62 345.841L478.27 345.71C478.99 345.68 479.37 345.951 479.4 346.541L480.93 378.271C480.96 378.861 480.61 379.17 479.89 379.2L470.95 379.63C470.23 379.67 469.85 379.391 469.82 378.801L468.67 354.9L466.34 355.011L467.5 379.081C467.53 379.671 467.18 379.981 466.46 380.011L463.7 380.14C462.98 380.18 462.6 379.901 462.57 379.311L461.04 347.42ZM481.87 345.841C481.84 345.221 482.2 344.901 482.96 344.861L486.1 344.71C486.82 344.67 487.2 344.971 487.23 345.581L488.82 378.46C488.85 379.08 488.5 379.4 487.78 379.44L484.64 379.591C483.88 379.631 483.49 379.341 483.46 378.721L481.87 345.841ZM489.49 346.271C489.46 345.681 489.81 345.371 490.53 345.341L504.13 344.68C504.85 344.65 505.23 344.921 505.26 345.511L505.57 352.021C505.6 352.641 505.25 352.961 504.53 353.001L495.43 353.44L496.22 369.851L498.61 369.741L497.92 355.571C497.89 354.951 498.26 354.631 499.01 354.591L502.15 354.44C502.87 354.4 503.25 354.691 503.28 355.311L503.96 369.481L505.32 369.42C506.04 369.38 506.42 369.681 506.45 370.291L506.76 376.761C506.79 377.381 506.44 377.701 505.72 377.741L492.12 378.4C491.4 378.44 491.02 378.141 490.99 377.531L489.49 346.271Z" fill="black"/>
<path d="M466.03 390.101L488.21 383.811C488.91 383.611 489.34 383.81 489.51 384.4L492.89 396.311L501.92 393.75L498.52 381.75C498.35 381.16 498.62 380.761 499.31 380.561L504.69 379.041C505.38 378.841 505.82 379.04 505.99 379.63L511.36 398.581C511.53 399.171 511.26 399.57 510.57 399.77L488.97 405.9C488.27 406.1 487.84 405.901 487.67 405.311L484.28 393.361L474.68 396.081L475.97 400.62C476.64 402.97 477.51 405.201 478.6 407.321C479.69 409.441 480.97 411.16 482.43 412.48L512.8 403.87C513.53 403.66 513.98 403.86 514.15 404.45L515.87 410.51C516.04 411.1 515.76 411.5 515.03 411.71L474.59 423.18C473.89 423.38 473.46 423.181 473.29 422.591L471.57 416.531C471.4 415.941 471.67 415.541 472.36 415.341L475.59 414.42C474.11 413.31 472.73 411.68 471.43 409.51C470.14 407.34 469.08 404.8 468.25 401.89L465.24 391.291C465.07 390.691 465.33 390.301 466.03 390.101Z" fill="black"/>
<path d="M483.99 445.96C482.03 442.45 481.19 439.43 481.47 436.89C481.75 434.36 483.33 432.29 486.2 430.68C489.14 429.04 491.74 428.77 494.01 429.87C496.28 430.97 498.4 433.281 500.37 436.791L504.46 444.101C506.42 447.611 507.26 450.591 506.97 453.041C506.68 455.491 505.07 457.53 502.14 459.18C499.27 460.79 496.7 461.081 494.43 460.061C492.16 459.041 490.04 456.77 488.08 453.26L483.99 445.96ZM493.9 450.01C494.5 451.09 495.1 451.72 495.7 451.9C496.3 452.08 497.01 451.95 497.83 451.49C498.65 451.03 499.14 450.5 499.3 449.89C499.46 449.28 499.23 448.441 498.63 447.361L494.54 440.051C493.94 438.971 493.33 438.301 492.73 438.031C492.12 437.761 491.38 437.88 490.5 438.37C489.58 438.88 489.09 439.461 489.02 440.111C488.95 440.761 489.21 441.62 489.81 442.7L493.9 450.01ZM500.9 430.74C500.26 430.86 499.82 430.69 499.56 430.23L496.07 424C495.9 423.69 495.89 423.42 496.05 423.18C496.21 422.94 496.49 422.79 496.91 422.72L518.96 418.92C519.55 418.79 519.97 418.95 520.21 419.38L523.87 425.92C524.03 426.2 524.04 426.46 523.89 426.69C523.75 426.92 523.47 427.07 523.05 427.13L500.9 430.74ZM503.48 436.47C503.21 435.98 503.29 435.55 503.74 435.16L506.85 431.611C507.2 431.281 507.62 431.06 508.1 430.96L518.18 429.311C518.66 429.211 518.96 429.27 519.09 429.48C519.21 429.7 519.1 429.991 518.76 430.341L508.27 442.47C507.69 443.13 507.22 443.14 506.86 442.5L503.48 436.47ZM508.45 447.12C508.15 446.58 508.31 446.141 508.95 445.781L527.98 435.14C528.64 434.77 529.12 434.85 529.43 435.39L532.5 440.89C532.8 441.43 532.62 441.88 531.96 442.25L512.93 452.89C512.3 453.24 511.83 453.151 511.53 452.611L508.45 447.12Z" fill="black"/>
<path d="M549.24 250.41C563.25 256.65 579.05 258.08 594.07 255.21C598.44 254.38 602.72 253.16 606.87 251.59C608.66 250.91 607.88 248.01 606.07 248.7C592.24 253.92 576.89 255.15 562.47 251.75C558.45 250.8 554.52 249.51 550.75 247.83C549.01 247.04 547.48 249.63 549.24 250.41Z" fill="black"/>
<path d="M656.31 293.351C660.17 293.351 660.18 287.351 656.31 287.351C652.45 287.351 652.45 293.351 656.31 293.351Z" fill="black"/>
<path d="M669.12 315.66C682.83 338.81 683.27 368.19 670.21 391.71C668.96 393.96 672.41 395.98 673.66 393.73C687.41 368.97 687.01 338.02 672.57 313.64C671.26 311.43 667.8 313.44 669.12 315.66Z" fill="black"/>
<path d="M491.54 117.37C500.13 132.35 509.8 146.691 520.46 160.281C531.12 173.871 542.76 186.69 555.27 198.59C562.35 205.33 569.71 211.771 577.33 217.911C578.07 218.511 579.14 217.46 578.39 216.85C565 206.05 552.39 194.3 540.7 181.68C528.95 169.01 518.12 155.49 508.33 141.25C502.83 133.25 497.67 125.03 492.84 116.61C492.35 115.77 491.06 116.53 491.54 117.37Z" fill="black"/>
<path d="M552.18 193.02C547.34 179.93 544.17 166.26 542.81 152.37C542.72 151.42 541.22 151.41 541.31 152.37C542.69 166.4 545.84 180.2 550.73 193.42C551.06 194.32 552.51 193.93 552.18 193.02Z" fill="black"/>
<path d="M260.99 263.661C263.61 271.091 264.99 278.991 264.99 287.051L265 438.88C265 459.51 254.93 478.831 238.02 490.641L223.89 500.511C215.83 506.141 206.24 509.161 196.41 509.161H133.04H69.67C59.84 509.161 50.2501 506.141 42.1901 500.521L28.0601 490.651C11.1501 478.841 1.07007 459.521 1.07007 438.891L1.06006 287.061C1.06006 269.551 7.57007 252.811 19.1001 239.971L260.99 263.661Z" fill="#D1270D"/>
<path d="M260.99 263.661C256.73 251.551 249.18 240.691 238.99 232.401L211.49 210.031V184.321L133.02 184.331L54.5501 184.341V210.051L27.0501 232.421C24.1901 234.751 21.5301 237.281 19.1001 239.991L260.99 263.661Z" stroke="white" stroke-miterlimit="10"/>
<path d="M260.99 263.661C263.61 271.091 264.99 278.991 264.99 287.051L265 438.88C265 459.51 254.93 478.831 238.02 490.641L223.89 500.511C215.83 506.141 206.24 509.161 196.41 509.161H133.04H69.67C59.84 509.161 50.2501 506.141 42.1901 500.521L28.0601 490.651C11.1501 478.841 1.07007 459.521 1.07007 438.891L1.06006 287.061C1.06006 269.551 7.57007 252.811 19.1001 239.971L260.99 263.661Z" stroke="white" stroke-miterlimit="10"/>
<path d="M264.94 289.571H1V429.541H264.94V289.571Z" fill="#F8FCFF"/>
<path d="M46.68 157.611L219.22 157.601C222.37 157.601 224.93 160.151 224.93 163.311V186.441C224.93 188.191 223.51 189.601 221.77 189.601L44.14 189.611C42.39 189.611 40.98 188.191 40.98 186.451V163.321C40.98 160.171 43.53 157.611 46.68 157.611Z" fill="#73B0DF"/>
<path d="M34.98 256.111C36.92 255.921 36.6401 252.901 34.6901 253.091C32.7401 253.281 33.03 256.301 34.98 256.111Z" fill="white"/>
<path d="M29.3599 267.311C25.5599 280.831 25.9099 295.201 25.4899 309.121C25.4299 311.071 28.4499 310.761 28.5099 308.831C28.9199 295.171 28.6199 281.101 32.3499 267.831C32.8799 265.951 29.8799 265.451 29.3599 267.311Z" fill="white"/>
<path d="M22.6201 422.041C23.4201 437.501 29.4701 452.611 39.4501 464.431C42.2801 467.78 45.4201 470.87 48.8201 473.64C50.3401 474.87 52.2701 472.531 50.7501 471.301C39.1801 461.871 30.9601 448.66 27.4201 434.17C26.4301 430.1 25.8501 425.931 25.6401 421.751C25.5401 419.791 22.5201 420.091 22.6201 422.041Z" fill="white"/>
<path d="M120.6 167.181L199.36 167.221" stroke="white" stroke-width="2" stroke-miterlimit="10" stroke-linecap="round"/>
<path d="M209 168.681C210.94 168.491 210.66 165.471 208.71 165.661C206.76 165.851 207.05 168.871 209 168.681Z" fill="white"/>
<path d="M254.603 361.188C254.627 345.15 199.744 332.064 132.017 331.96C64.2905 331.857 9.36728 344.775 9.34275 360.813C9.31822 376.851 64.2017 389.937 131.928 390.04C199.655 390.144 254.578 377.226 254.603 361.188Z" fill="#73B0DF"/>
<path d="M25.4201 364.511C34.1001 364.511 47.1801 364.061 48.8301 363.721V363.441L25.8001 363.751V361.181H52.2601V365.751C51.1301 366.061 32.3901 367.051 28.8501 366.951V367.221H52.6001V369.691H25.4201V364.511ZM35.6401 350.13C43.7701 350.13 46.9701 352.291 46.9701 355.171C46.9701 358.091 43.7801 360.221 35.6401 360.221C27.5101 360.221 24.3501 358.091 24.3501 355.181C24.3501 352.291 27.5101 350.13 35.6401 350.13ZM35.6401 356.921C42.0901 356.921 43.5301 356.101 43.5301 355.171C43.5301 354.241 42.0501 353.421 35.6401 353.421C29.2201 353.421 27.7801 354.241 27.7801 355.171C27.7801 356.131 29.2201 356.921 35.6401 356.921ZM48.8201 350.231H52.2501V359.981H48.8201V350.231Z" fill="black"/>
<path d="M80.6 369.341H56.71V358.221H73.15V353.901H57.09V350.601H76.58V361.521H60.14V366.051H80.59V355.451H77.64V352.191H80.59V350.231H84.02V369.691H80.59L80.6 369.341Z" fill="black"/>
<path d="M87.47 365.701H115.48V369.001H87.47V365.701ZM99.89 353.961V350.601H103.32L103.29 353.961C104.59 356.161 108.06 358.8 115.23 360.38L114.54 363.601C107.92 362.131 103.76 359.591 101.57 357.051C99.41 359.591 95.26 362.131 88.63 363.611L87.94 360.38C95.12 358.8 98.59 356.161 99.89 353.961Z" fill="black"/>
<path d="M118.22 365.701H146.23V368.991H118.22V365.701ZM118.91 350.601H145.41V353.901H122.35V355.62H144.79V358.911H122.34V360.63H145.75V363.931H118.91V350.601Z" fill="black"/>
<path d="M149.66 358.111H163.87V353.891H150.45V350.601H167.3V353.351H169.08V350.231H172.51V369.691H169.08V369.351H149.66V358.111ZM169.08 366.041V356.601H167.3V361.401H153.09V366.031L169.08 366.041ZM173.89 350.221H177.32V369.681H173.89V350.221Z" fill="black"/>
<path d="M191.46 350.291C199.25 350.291 202.51 354.751 202.51 359.861C202.51 364.971 199.25 369.401 191.46 369.401C183.63 369.401 180.41 364.971 180.41 359.861C180.41 354.751 183.6 350.291 191.46 350.291ZM191.46 366.111C197.26 366.111 199.08 363.711 199.08 359.861C199.08 356.021 197.26 353.581 191.46 353.581C185.63 353.581 183.84 356.021 183.84 359.861C183.84 363.711 185.63 366.111 191.46 366.111ZM205.19 350.221H208.62V369.681H205.19V350.221Z" fill="black"/>
<path d="M231.55 350.941H236.94V350.221H240.37V364.741H236.94V358.771H234.19L233.54 361.451C228.63 360.321 225.47 358.571 223.66 356.821C221.87 358.881 218.58 360.941 213.5 362.141L212.74 359.051C218.23 357.781 220.84 355.691 221.83 353.901V350.611H225.26V353.841C226.08 355.041 227.97 356.481 231.64 357.651V355.521H236.93V354.221H231.54V350.941H231.55ZM214.35 363.021H217.78V366.38H240.6V369.671H214.34L214.35 363.021Z" fill="black"/>
<path d="M1107.65 98.1305C1094.32 98.2005 1081.88 104.3 1071.27 114.82C1069.89 116.19 1067.97 114.47 1068.52 112.34C1075.91 83.7205 1093.14 63.6306 1113.32 63.5206C1118.3 63.4906 1123.11 64.6905 1127.66 66.9405C1129.44 67.8205 1130.9 65.0106 1129.55 63.2906C1119.68 50.8006 1107.32 43.3905 1093.93 43.4705C1082.52 43.5305 1071.92 49.0305 1063.01 58.4405C1061.68 59.8405 1059.75 58.1506 1060.24 56.0406C1065.59 32.9206 1079.16 16.4805 1095.16 16.3905C1098.37 16.3705 1101.48 17.0205 1104.46 18.2405C1106.28 18.9905 1107.58 16.1005 1106.17 14.4605C1098.85 5.94049 1089.9 0.940534 1080.27 1.00053C1064.35 1.09053 1050.47 14.9305 1042.74 35.6305C1042.07 37.4205 1039.54 37.4406 1038.85 35.6506C1030.89 15.0306 1016.86 1.34047 1000.94 1.43047C991.3 1.48047 982.42 6.58047 975.19 15.1805C973.8 16.8405 975.13 19.7105 976.94 18.9405C979.9 17.6805 983.01 17.0105 986.22 16.9905C1002.22 16.9005 1015.97 33.1905 1021.57 56.2505C1022.08 58.3605 1020.17 60.0705 1018.83 58.6805C1009.82 49.3705 999.15 43.9906 987.74 44.0506C974.35 44.1206 962.07 51.6705 952.34 64.2605C951 65.9905 952.5 68.7805 954.27 67.8805C958.79 65.5805 963.59 64.3306 968.57 64.3006C988.75 64.1906 1006.19 84.0905 1013.9 112.631C1014.47 114.751 1012.58 116.491 1011.18 115.141C1000.45 104.741 987.95 98.7805 974.62 98.8505C957.46 98.9405 941.78 109.001 929.57 125.651C928.27 127.421 929.86 130.151 931.59 129.171C937.67 125.731 944.19 123.85 950.99 123.81C982.52 123.64 1008.63 163.101 1011.73 213.641C1011.8 214.811 1012.55 215.71 1013.47 215.71L1037.04 215.58L1041.8 215.551L1046.56 215.521L1070.13 215.391C1071.05 215.381 1071.79 214.471 1071.85 213.301C1074.39 162.721 1100.07 122.981 1131.6 122.801C1138.4 122.761 1144.94 124.58 1151.05 127.95C1152.79 128.91 1154.35 126.161 1153.03 124.401C1140.6 107.921 1124.81 98.0305 1107.65 98.1305Z" fill="white" stroke="black" stroke-miterlimit="10"/>
<path d="M927.43 130.89C933.28 124.38 941.28 120.29 949.79 118.51C959.15 116.55 968.87 117.59 977.96 120.34C983.34 121.97 988.51 124.2 993.49 126.8C994.77 127.47 995.91 125.53 994.63 124.86C977.3 115.81 956.32 111.19 937.99 120.18C933.41 122.43 929.25 125.5 925.84 129.3C924.88 130.37 926.46 131.97 927.43 130.89Z" fill="black"/>
<path d="M949.96 69.4505C956.15 63.0705 964.51 58.9105 973.34 57.8205C982.03 56.7605 990.85 58.8205 998.28 63.4005C1002.43 65.9605 1006.1 69.2905 1009.01 73.2005C1009.86 74.3505 1011.82 73.2305 1010.95 72.0605C1005.44 64.6605 997.55 59.2205 988.65 56.7505C979.64 54.2505 970.02 55.0806 961.46 58.7906C956.55 60.9206 952.09 64.0105 948.36 67.8505C947.36 68.9005 948.95 70.4905 949.96 69.4505Z" fill="black"/>
<path d="M1157.92 127.71C1144.15 113.74 1123.8 107.75 1104.67 112.11C1099.08 113.38 1093.69 115.52 1088.73 118.38C1087.48 119.1 1088.61 121.05 1089.87 120.32C1106.49 110.71 1127.31 110.501 1144.06 119.911C1148.58 122.451 1152.7 125.601 1156.33 129.291C1157.35 130.331 1158.94 128.74 1157.92 127.71Z" fill="black"/>
<path d="M1071.17 506.15L1016.4 506.45C968.3 506.71 928.73 467.58 928.47 419.48L927.72 283.71C927.46 235.61 966.59 196.04 1014.69 195.78L1069.46 195.48C1117.56 195.22 1157.13 234.35 1157.39 282.45L1158.14 418.22C1158.41 466.32 1119.27 505.89 1071.17 506.15Z" fill="#FFE001" stroke="black" stroke-miterlimit="10"/>
<path d="M1004.66 269.141C1004.66 268.551 1004.97 268.25 1005.59 268.24L1011.84 268.21L1011.82 264.99C1011.82 264.36 1012.13 264.051 1012.75 264.051L1018.91 264.021C1019.53 264.021 1019.85 264.33 1019.85 264.95L1019.87 268.161L1025.85 268.13C1026.5 268.13 1026.83 268.421 1026.84 269.021L1026.86 273.22C1026.86 273.82 1026.54 274.12 1025.88 274.12L1005.61 274.23C1004.99 274.23 1004.67 273.94 1004.67 273.34L1004.66 269.141ZM1026.26 283.18C1026.27 284.25 1026.01 285.211 1025.49 286.041C1024.97 286.881 1024.26 287.59 1023.36 288.17C1022.45 288.75 1021.37 289.2 1020.11 289.5C1018.85 289.8 1017.47 289.96 1015.98 289.97C1014.49 289.98 1013.11 289.841 1011.85 289.551C1010.58 289.261 1009.49 288.83 1008.58 288.25C1007.67 287.68 1006.95 286.97 1006.43 286.14C1005.91 285.31 1005.64 284.361 1005.63 283.291L1005.62 282.351C1005.61 281.281 1005.86 280.33 1006.36 279.49C1006.86 278.65 1007.57 277.941 1008.49 277.361C1009.41 276.771 1010.5 276.331 1011.76 276.031C1013.02 275.731 1014.4 275.571 1015.89 275.561C1017.38 275.551 1018.76 275.69 1020.02 275.99C1021.29 276.28 1022.38 276.711 1023.29 277.291C1024.2 277.871 1024.92 278.57 1025.44 279.4C1025.96 280.23 1026.23 281.18 1026.24 282.25L1026.26 283.18ZM1039.41 295.7C1039.98 295.7 1040.26 295.991 1040.26 296.591L1040.28 300.791C1040.28 301.381 1040 301.68 1039.44 301.69L1007.92 301.861C1007.32 301.861 1007.03 301.57 1007.02 300.97L1006.98 293.111C1006.98 292.511 1007.27 292.21 1007.87 292.21L1014.61 292.17C1015.23 292.17 1015.55 292.461 1015.55 293.061L1015.56 295.831L1039.41 295.7ZM1018.35 282.73C1018.35 282.05 1018.18 281.481 1017.85 281.041C1017.52 280.601 1016.88 280.38 1015.93 280.38C1014.95 280.38 1014.29 280.621 1013.97 281.081C1013.65 281.541 1013.48 282.121 1013.49 282.801C1013.49 283.481 1013.67 284.061 1014.01 284.521C1014.35 284.981 1015 285.21 1015.96 285.2C1016.94 285.19 1017.59 284.95 1017.9 284.47C1018.2 284 1018.36 283.42 1018.35 282.73ZM1032.51 291.581C1031.88 291.581 1031.57 291.29 1031.57 290.69L1031.55 286.811L1028.87 286.821C1028.28 286.821 1027.98 286.53 1027.97 285.93L1027.95 281.601C1027.95 280.971 1028.24 280.66 1028.84 280.66L1031.52 280.65L1031.5 276.63L1029.04 276.64C1028.44 276.64 1028.15 276.35 1028.14 275.75L1028.12 271.421C1028.12 270.801 1028.41 270.48 1029.01 270.48L1031.47 270.47L1031.45 266.671C1031.45 266.051 1031.76 265.73 1032.38 265.73L1038.77 265.69C1039.39 265.69 1039.71 266 1039.71 266.62L1039.84 290.64C1039.84 291.24 1039.53 291.541 1038.91 291.541L1032.51 291.581Z" fill="black"/>
<path d="M1044.08 267.45C1044.08 266.85 1044.39 266.561 1045.01 266.551L1059.74 266.47C1060.34 266.47 1060.63 266.76 1060.64 267.36L1060.67 272.141C1060.67 272.761 1060.38 273.08 1059.78 273.08L1045.05 273.161C1044.43 273.161 1044.11 272.85 1044.11 272.23L1044.08 267.45ZM1052.15 274.46C1052.72 274.46 1053 274.751 1053 275.351L1052.43 294.331L1054.26 294.321C1055.84 294.311 1057.43 294.16 1059.04 293.87C1060.64 293.58 1062.03 293.131 1063.18 292.531L1063.04 266.771C1063.04 266.151 1063.33 265.83 1063.93 265.83L1069.06 265.801C1069.66 265.801 1069.95 266.11 1069.96 266.73L1070.03 279.541L1072.44 279.531L1072.37 266.45C1072.37 265.83 1072.66 265.51 1073.26 265.51L1078.44 265.48C1079.04 265.48 1079.33 265.791 1079.34 266.411L1079.53 301.01C1079.53 301.6 1079.24 301.91 1078.64 301.91L1073.46 301.94C1072.86 301.94 1072.57 301.651 1072.56 301.051L1072.48 287.12L1070.07 287.13L1070.14 300.611C1070.14 301.201 1069.85 301.5 1069.25 301.51L1064.12 301.541C1063.52 301.541 1063.23 301.25 1063.22 300.65L1063.21 299.041C1062.26 299.611 1061.01 300.06 1059.47 300.4C1057.92 300.74 1056.2 300.91 1054.29 300.92L1045.58 300.97C1044.98 300.97 1044.69 300.661 1044.68 300.041L1045.44 275.39C1045.44 275.12 1045.53 274.91 1045.7 274.74C1045.88 274.58 1046.1 274.49 1046.37 274.49L1052.15 274.46Z" fill="black"/>
<path d="M1005.24 347.23L1002.07 347.25C1001.84 348.77 1001.5 350.041 1001.06 351.051C1000.62 352.071 1000.07 352.89 999.42 353.51C998.77 354.13 998 354.591 997.13 354.861C996.25 355.131 995.28 355.271 994.21 355.281C992.93 355.291 991.78 355.08 990.77 354.67C989.76 354.26 988.9 353.551 988.21 352.541C987.52 351.531 986.98 350.19 986.6 348.51C986.22 346.83 986.02 344.73 986.01 342.2L985.94 329.301C985.94 328.711 986.23 328.41 986.83 328.4L991.61 328.37C992.24 328.37 992.55 328.66 992.55 329.26L992.62 342.48C992.63 343.7 992.66 344.71 992.73 345.49C992.79 346.28 992.89 346.901 993.03 347.341C993.17 347.791 993.32 348.101 993.5 348.271C993.68 348.451 993.9 348.541 994.17 348.531C994.44 348.531 994.67 348.44 994.86 348.26C995.05 348.08 995.21 347.771 995.35 347.321C995.48 346.871 995.58 346.26 995.65 345.47C995.72 344.68 995.75 343.68 995.75 342.46L995.71 334.69C995.69 331.89 995.39 329.91 994.81 328.76C994.22 327.6 993.23 327.031 991.83 327.031L985.94 327.061C985.31 327.061 985 326.77 985 326.17L984.97 321.301C984.97 320.711 985.28 320.4 985.9 320.4L991.57 320.37C994.16 320.36 996.22 320.831 997.76 321.791C999.3 322.751 1000.43 324.271 1001.16 326.351L1005.13 326.331L1005.1 320.66C1005.1 320.04 1005.39 319.72 1005.99 319.72L1010.9 319.69C1011.49 319.69 1011.79 320 1011.8 320.62L1011.99 354.51C1011.99 355.1 1011.7 355.4 1011.1 355.41L1006.19 355.44C1005.59 355.44 1005.3 355.151 1005.29 354.551L1005.24 347.23ZM1002.35 340.19L1005.21 340.17L1005.17 333.38L1002.27 333.4C1002.3 333.64 1002.32 333.89 1002.32 334.16C1002.32 334.43 1002.32 334.68 1002.32 334.92L1002.35 340.19ZM1013.76 320.351C1013.76 319.731 1014.05 319.41 1014.65 319.41L1019.61 319.38C1020.2 319.38 1020.5 319.691 1020.51 320.311L1020.7 354.91C1020.7 355.5 1020.41 355.811 1019.81 355.811L1014.86 355.841C1014.26 355.841 1013.96 355.55 1013.96 354.95L1013.76 320.351Z" fill="black"/>
<path d="M1035.92 331.791C1035.5 332.151 1035.04 332.331 1034.54 332.331L1025.74 332.38C1025.38 332.38 1025.15 332.26 1025.05 332C1024.94 331.75 1025.03 331.5 1025.29 331.26L1038.35 319.89C1038.53 319.71 1038.7 319.56 1038.86 319.44C1039.02 319.32 1039.24 319.26 1039.51 319.26L1048.44 319.21C1048.77 319.21 1048.99 319.341 1049.11 319.611C1049.23 319.881 1049.17 320.13 1048.94 320.37L1035.92 331.791ZM1047.17 338.38L1047.18 340.521L1058.92 340.46C1059.51 340.46 1059.81 340.751 1059.82 341.351L1059.86 348.72C1059.86 349.32 1059.57 349.61 1058.97 349.62L1034.73 349.75L1034.74 351.67L1059.16 351.541C1059.76 351.541 1060.06 351.83 1060.06 352.43L1060.07 354.71C1060.07 355.3 1059.78 355.611 1059.18 355.611L1026.81 355.791C1026.21 355.791 1025.92 355.5 1025.91 354.9L1025.87 347.44C1025.87 346.81 1026.16 346.5 1026.76 346.5L1051.05 346.37L1051.04 344.49L1026.75 344.62C1026.15 344.62 1025.86 344.33 1025.85 343.73L1025.84 341.541C1025.84 340.951 1026.13 340.65 1026.73 340.64L1038.52 340.581L1038.51 338.44L1026.14 338.51C1025.52 338.51 1025.2 338.201 1025.2 337.581L1025.19 334.99C1025.19 334.39 1025.5 334.091 1026.12 334.091L1059.47 333.91C1060.1 333.91 1060.41 334.201 1060.41 334.801L1060.42 337.39C1060.42 338.01 1060.11 338.331 1059.49 338.331L1047.17 338.38ZM1044.25 327.46C1044.07 327.25 1043.99 327.031 1044.02 326.791C1044.05 326.551 1044.15 326.34 1044.33 326.16L1048.2 322.791C1048.64 322.341 1049.09 322.31 1049.54 322.69L1059.99 330.851C1060.26 331.091 1060.34 331.331 1060.24 331.591C1060.14 331.841 1059.91 331.97 1059.55 331.97L1050.84 332.021C1050.33 332.021 1049.84 331.82 1049.36 331.4L1044.25 327.46Z" fill="black"/>
<path d="M1072.78 327.71C1073.41 327.71 1073.72 328.02 1073.72 328.64L1073.74 331.771C1073.76 335.281 1074.69 337.031 1076.54 337.021C1078.41 337.011 1079.34 335.25 1079.32 331.74C1079.31 330.64 1079.18 329.741 1078.93 329.041C1078.67 328.341 1078.3 327.79 1077.8 327.39C1077.31 326.99 1076.72 326.711 1076.03 326.551C1075.34 326.391 1074.57 326.311 1073.71 326.321L1065.41 326.37C1064.79 326.37 1064.47 326.08 1064.47 325.48L1064.45 321.19C1064.45 320.56 1064.76 320.25 1065.38 320.25L1073.46 320.21C1075.69 320.2 1077.68 320.391 1079.42 320.781C1081.16 321.171 1082.64 321.82 1083.85 322.72C1085.06 323.62 1085.99 324.8 1086.64 326.26C1087.29 327.71 1087.62 329.51 1087.63 331.66C1087.64 333.77 1087.39 335.561 1086.88 337.021C1086.37 338.481 1085.64 339.661 1084.69 340.561C1083.74 341.461 1082.58 342.111 1081.22 342.521C1079.85 342.931 1078.31 343.14 1076.58 343.15C1074.88 343.16 1073.35 342.971 1071.98 342.571C1070.61 342.181 1069.44 341.54 1068.46 340.65C1067.49 339.76 1066.74 338.59 1066.23 337.13C1065.72 335.68 1065.45 333.891 1065.44 331.781L1065.42 328.7C1065.42 328.07 1065.71 327.76 1066.31 327.76L1072.78 327.71ZM1065.2 354.091C1064.57 354.091 1064.26 353.771 1064.26 353.111L1064.23 347.93C1064.23 347.34 1064.54 347.041 1065.16 347.031L1078.96 346.95C1081.16 346.94 1083.31 346.84 1085.39 346.65C1087.47 346.46 1089.35 346.06 1091.01 345.46L1090.87 319.92C1090.87 319.3 1091.18 318.98 1091.8 318.98L1098.18 318.94C1098.81 318.94 1099.12 319.25 1099.12 319.87L1099.31 354.47C1099.31 355.06 1099 355.37 1098.38 355.37L1092 355.41C1091.37 355.41 1091.06 355.121 1091.06 354.521L1091.04 351.75C1089.5 352.44 1087.61 352.99 1085.38 353.39C1083.15 353.79 1080.72 354 1078.11 354.01L1065.2 354.091Z" fill="black"/>
<path d="M1013.32 381.88C1013.95 381.88 1014.26 382.171 1014.26 382.771L1014.34 396.39C1014.35 398.62 1014.59 400.191 1015.06 401.101C1015.53 402.011 1016.3 402.46 1017.37 402.45C1018.47 402.44 1019.25 401.991 1019.71 401.081C1020.17 400.171 1020.39 398.6 1020.38 396.37L1020.34 388.16C1020.33 386.88 1020.23 385.761 1020.03 384.791C1019.83 383.821 1019.5 383.02 1019.03 382.38C1018.56 381.74 1017.93 381.27 1017.12 380.96C1016.31 380.65 1015.32 380.5 1014.13 380.51L1005.96 380.561C1005.34 380.561 1005.02 380.27 1005.02 379.67L1004.99 374.801C1004.99 374.201 1005.3 373.9 1005.92 373.9L1013.87 373.861C1018.99 373.831 1022.72 374.96 1025.07 377.26C1027.42 379.55 1028.61 383.26 1028.64 388.38L1028.68 396.021C1028.69 398.551 1028.44 400.661 1027.91 402.341C1027.38 404.021 1026.63 405.38 1025.66 406.39C1024.68 407.41 1023.5 408.131 1022.1 408.551C1020.7 408.971 1019.14 409.19 1017.41 409.2C1015.71 409.21 1014.16 409.011 1012.76 408.601C1011.36 408.191 1010.16 407.48 1009.18 406.48C1008.19 405.47 1007.43 404.13 1006.88 402.45C1006.33 400.77 1006.06 398.67 1006.04 396.14L1005.97 382.831C1005.97 382.241 1006.26 381.94 1006.86 381.93L1013.32 381.88ZM1033.11 409.321C1032.51 409.321 1032.22 409.03 1032.21 408.43L1032.02 373.831C1032.02 373.211 1032.31 372.89 1032.91 372.89L1039.38 372.851C1039.97 372.851 1040.27 373.161 1040.28 373.781L1040.47 408.38C1040.47 408.97 1040.18 409.281 1039.58 409.281L1033.11 409.321Z" fill="black"/>
<path d="M1044.5 376.93C1044.5 376.33 1044.81 376.031 1045.43 376.031L1049.85 376L1049.83 372.16C1049.83 371.53 1050.14 371.22 1050.76 371.22L1056.03 371.19C1056.66 371.19 1056.97 371.5 1056.97 372.12L1056.99 375.96L1061.41 375.94C1062.04 375.94 1062.35 376.231 1062.35 376.831L1062.38 381.65C1062.38 381.95 1062.31 382.251 1062.16 382.541C1062.01 382.841 1061.78 382.99 1061.45 382.99L1045.47 383.081C1045.14 383.081 1044.9 382.93 1044.75 382.64C1044.6 382.34 1044.52 382.05 1044.52 381.75L1044.5 376.93ZM1061.62 397.601C1061.63 399.561 1061.43 401.24 1061.02 402.63C1060.61 404.02 1060.05 405.14 1059.34 406.01C1058.63 406.88 1057.78 407.51 1056.78 407.92C1055.78 408.33 1054.71 408.541 1053.55 408.541C1052.39 408.551 1051.32 408.35 1050.33 407.95C1049.35 407.55 1048.49 406.931 1047.77 406.071C1047.05 405.211 1046.49 404.09 1046.08 402.71C1045.67 401.33 1045.46 399.66 1045.45 397.69L1045.44 395.41C1045.43 393.45 1045.63 391.77 1046.04 390.38C1046.45 388.99 1047.01 387.87 1047.72 387C1048.43 386.13 1049.28 385.501 1050.28 385.091C1051.27 384.681 1052.35 384.48 1053.51 384.47C1054.67 384.46 1055.74 384.661 1056.73 385.061C1057.71 385.461 1058.57 386.08 1059.29 386.94C1060.01 387.8 1060.57 388.921 1060.98 390.301C1061.39 391.681 1061.6 393.361 1061.61 395.321L1061.62 397.601ZM1055.45 395.361C1055.44 394.021 1055.28 392.97 1054.96 392.22C1054.64 391.46 1054.17 391.091 1053.55 391.091C1052.89 391.091 1052.41 391.48 1052.08 392.24C1051.76 393 1051.6 394.05 1051.61 395.39L1051.62 397.67C1051.63 399.01 1051.79 400.061 1052.11 400.811C1052.43 401.571 1052.9 401.94 1053.52 401.94C1054.17 401.94 1054.66 401.551 1054.99 400.791C1055.31 400.031 1055.47 398.98 1055.46 397.64L1055.45 395.361ZM1074.05 409.101C1073.45 409.101 1073.16 408.81 1073.15 408.21L1073.07 394.281L1070.66 394.291L1070.73 407.771C1070.73 408.361 1070.44 408.66 1069.84 408.67L1064.71 408.7C1064.11 408.7 1063.82 408.411 1063.81 407.811L1063.62 373.92C1063.62 373.3 1063.91 372.98 1064.51 372.98L1069.64 372.95C1070.24 372.95 1070.53 373.26 1070.54 373.88L1070.61 386.69L1073.02 386.68L1072.95 373.601C1072.95 372.981 1073.24 372.66 1073.84 372.66L1079.02 372.63C1079.61 372.63 1079.91 372.941 1079.92 373.561L1080.11 408.16C1080.11 408.75 1079.82 409.061 1079.22 409.061L1074.05 409.101Z" fill="black"/>
<path d="M1093.71 237.06C1093.71 237.06 1113.87 249.061 1119.37 282.311C1123.27 305.871 1122.36 356.521 1122.36 356.521" stroke="black" stroke-width="2" stroke-miterlimit="10" stroke-linecap="round"/>
<path d="M1112.5 236.031C1112.5 236.031 1133.44 251.991 1135.5 282.361C1137.12 306.191 1137.09 355.21 1137.09 355.21" stroke="black" stroke-width="2" stroke-miterlimit="10" stroke-linecap="round"/>
<path d="M1097.84 271.7L1152.35 267.82" stroke="black" stroke-width="2" stroke-miterlimit="10" stroke-linecap="round"/>
<path d="M1091.92 250.38L1144.8 247.22" stroke="black" stroke-width="2" stroke-miterlimit="10" stroke-linecap="round"/>
<path d="M1099.56 293.41L1153.42 289.361" stroke="black" stroke-width="2" stroke-miterlimit="10" stroke-linecap="round"/>
</svg>
