<svg width="368" height="147" viewBox="0 0 368 147" fill="none" xmlns="http://www.w3.org/2000/svg">
<path d="M0.926934 4.19C0.926934 2.76 1.67693 2.04 3.17693 2.04H51.9369C53.4369 2.04 54.1869 2.76 54.1869 4.19V14.6C54.1869 16.03 53.4369 16.75 51.9369 16.75H38.7269L21.5469 45.64C21.2569 46.14 20.9069 46.55 20.4769 46.88C20.0469 47.2 19.5069 47.36 18.8669 47.36H1.99693C1.13693 47.36 0.546938 47.13 0.226938 46.66C-0.0930624 46.2 -0.073067 45.57 0.276933 44.78L16.4969 16.75H3.17693C1.67693 16.75 0.926934 16.03 0.926934 14.6V4.19ZM34.3269 89.67C24.5169 89.67 17.0869 88.22 12.0469 85.32C6.99694 82.42 4.47694 77.68 4.47694 71.09C4.47694 64.43 6.99694 59.67 12.0469 56.81C17.0969 53.95 24.5169 52.51 34.3269 52.51H53.6569C63.4669 52.51 70.8069 53.94 75.6769 56.81C80.5469 59.67 82.9769 64.44 82.9769 71.09C82.9769 77.68 80.5469 82.42 75.6769 85.32C70.8069 88.22 63.4669 89.67 53.6569 89.67H34.3269ZM53.6569 76.46C56.6669 76.46 58.7169 76.03 59.8369 75.17C60.9469 74.31 61.4969 72.95 61.4969 71.09C61.4969 69.23 60.9369 67.87 59.8369 67.01C58.7269 66.15 56.6669 65.72 53.6569 65.72H34.3269C31.3169 65.72 29.1669 66.11 27.8869 66.9C26.5969 67.69 25.9569 69.08 25.9569 71.09C25.9569 73.17 26.5969 74.58 27.8869 75.33C29.1769 76.08 31.3269 76.46 34.3269 76.46H53.6569ZM36.7969 46.71C36.2269 46.71 35.7569 46.57 35.3969 46.28C35.0369 45.99 34.6769 45.57 34.3269 44.99L30.7869 39.08C30.3569 38.15 30.3969 37.22 30.8969 36.29L39.2769 22.33C39.7069 21.54 40.1869 21.15 40.7269 21.15C41.2669 21.15 41.7469 21.54 42.1769 22.33L55.2769 44.24C55.9869 45.89 55.4569 46.71 53.6669 46.71H36.7969ZM63.8569 48.65C62.3569 48.65 61.6069 47.94 61.6069 46.5V3.22C61.6069 1.72 62.3569 0.970001 63.8569 0.970001H79.2169C80.7169 0.970001 81.4669 1.72 81.4669 3.22V16H86.5169C87.9469 16 88.6669 16.72 88.6669 18.15V30.82C88.6669 32.25 87.9469 32.97 86.5169 32.97H81.4669V46.5C81.4669 47.93 80.7169 48.65 79.2169 48.65H63.8569Z" fill="white"/>
<path d="M97.2569 86.99C95.8269 86.99 95.1069 86.27 95.1069 84.84V4.72C95.1069 3.29 95.8269 2.57 97.2569 2.57H112.727C114.157 2.57 114.877 3.29 114.877 4.72V71.09H129.157V44.67H120.347C118.847 44.67 118.087 43.92 118.087 42.41V30.92C118.087 29.49 118.837 28.77 120.347 28.77H129.157V4.72C129.157 3.29 129.907 2.57 131.407 2.57H146.657C148.157 2.57 148.917 3.29 148.917 4.72V84.84C148.917 86.27 148.167 86.99 146.657 86.99H97.2569ZM158.687 88.6C157.187 88.6 156.437 87.88 156.437 86.45V3.22C156.437 1.72 157.187 0.970001 158.687 0.970001H174.047C175.547 0.970001 176.297 1.72 176.297 3.22V32.86H181.877C183.307 32.86 184.027 33.61 184.027 35.12V49.4C184.027 50.83 183.307 51.55 181.877 51.55H176.297V86.45C176.297 87.88 175.547 88.6 174.047 88.6H158.687Z" fill="white"/>
<path d="M242.777 68.62V87.41C242.777 88.84 242.057 89.56 240.627 89.56H224.087C222.657 89.56 221.937 88.84 221.937 87.41V68.62H192.197C190.697 68.62 189.937 67.83 189.937 66.26V53.8C189.937 52.37 190.687 51.65 192.197 51.65H245.997C246.497 49.65 246.947 47.34 247.337 44.72C247.727 42.11 248.087 39.37 248.407 36.5C248.727 33.64 248.997 30.75 249.217 27.85C249.437 24.95 249.577 22.18 249.647 19.53H195.197C193.767 19.53 193.047 18.81 193.047 17.38V4.82999C193.047 3.39999 193.757 2.67999 195.197 2.67999H268.657C270.157 2.67999 270.917 3.39999 270.917 4.82999L270.487 18.47C270.347 23.27 270.147 27.35 269.897 30.71C269.647 34.08 269.357 37.01 269.037 39.52C268.717 42.03 268.357 44.23 267.967 46.13C267.577 48.03 267.127 49.87 266.627 51.66H272.427C273.927 51.66 274.677 52.38 274.677 53.81V66.27C274.677 67.85 273.927 68.63 272.427 68.63H242.777V68.62Z" fill="white"/>
<path d="M287.987 86.45C286.557 86.45 285.837 85.7 285.837 84.2V4.72C285.837 3.29 286.557 2.57 287.987 2.57H303.457C304.887 2.57 305.607 3.29 305.607 4.72V69.05H316.027C321.967 69.05 327.787 68.58 333.477 67.65C339.167 66.72 344.057 65.22 348.137 63.14V3.22C348.137 1.72 348.887 0.970001 350.387 0.970001H365.747C367.247 0.970001 367.997 1.72 367.997 3.22V86.45C367.997 87.88 367.247 88.6 365.747 88.6H350.387C348.887 88.6 348.137 87.88 348.137 86.45V79.25C344.557 81.47 339.797 83.22 333.857 84.51C327.917 85.8 321.257 86.44 313.887 86.44H287.987V86.45Z" fill="white"/>
<path d="M76.7569 138.55V144.83C76.7569 145.4 76.4669 145.68 75.9069 145.68H69.3269C68.7569 145.68 68.4769 145.39 68.4769 144.83V138.55H56.6369C56.0369 138.55 55.7369 138.24 55.7369 137.61V133.08C55.7369 132.51 56.0369 132.23 56.6369 132.23H88.5569C89.1569 132.23 89.4569 132.52 89.4569 133.08V137.61C89.4569 138.24 89.1569 138.55 88.5569 138.55H76.7569ZM66.2869 128.73C66.1469 128.9 65.9969 129.06 65.8369 129.2C65.6769 129.34 65.4769 129.41 65.2169 129.41H56.9269C56.5869 129.41 56.3269 129.31 56.1569 129.11C55.9869 128.91 56.0169 128.67 56.2469 128.38L70.2669 111.54C70.4069 111.34 70.5669 111.18 70.7369 111.05C70.9069 110.92 71.1069 110.86 71.3369 110.86H80.0569C80.3669 110.86 80.5769 110.98 80.6769 111.22C80.7769 111.46 80.7269 111.71 80.5269 111.97L66.2869 128.73ZM73.5969 123.34C73.3069 122.94 73.3069 122.56 73.5969 122.19L77.4469 117.62C77.8169 117.11 78.2169 117.09 78.6469 117.58L89.1169 128.39C89.3469 128.65 89.3769 128.88 89.2069 129.1C89.0369 129.31 88.7769 129.42 88.4369 129.42H79.9369C79.6769 129.42 79.4769 129.35 79.3169 129.21C79.1569 129.07 79.0069 128.91 78.8669 128.74L73.5969 123.34Z" fill="white"/>
<path d="M134.707 130.01C134.137 130.07 133.857 129.78 133.857 129.16V124.67C133.857 124.16 134.137 123.87 134.707 123.82C136.077 123.71 137.407 123.46 138.707 123.07C140.007 122.69 141.177 122.19 142.237 121.57C143.287 120.96 144.177 120.26 144.887 119.48C145.597 118.7 146.057 117.85 146.257 116.94H134.077C133.507 116.94 133.227 116.66 133.227 116.09V111.73C133.227 111.16 133.507 110.88 134.077 110.88H153.947C154.547 110.88 154.847 111.18 154.847 111.78V115.28C154.847 116.99 154.557 118.53 153.997 119.9C153.427 121.27 152.647 122.48 151.647 123.53C150.647 124.58 149.497 125.5 148.187 126.26C146.877 127.03 145.477 127.68 143.977 128.2C142.477 128.73 140.947 129.13 139.357 129.42C137.767 129.69 136.217 129.89 134.707 130.01ZM146.757 146.16C142.857 146.16 139.897 145.55 137.887 144.32C135.877 143.1 134.877 141.17 134.877 138.55C134.877 135.9 135.877 133.97 137.887 132.76C139.897 131.55 142.847 130.94 146.757 130.94H154.447C158.347 130.94 161.267 131.55 163.207 132.76C165.147 133.97 166.117 135.9 166.117 138.55C166.117 141.17 165.147 143.09 163.207 144.32C161.267 145.54 158.347 146.16 154.447 146.16H146.757ZM154.447 140.91C155.647 140.91 156.467 140.7 156.907 140.29C157.347 139.88 157.567 139.3 157.567 138.56C157.567 137.82 157.347 137.24 156.907 136.83C156.467 136.42 155.647 136.21 154.447 136.21H146.757C145.557 136.21 144.707 136.4 144.197 136.79C143.687 137.17 143.427 137.77 143.427 138.56C143.427 139.39 143.687 139.99 144.197 140.36C144.707 140.73 145.567 140.92 146.757 140.92H154.447V140.91ZM158.507 129.41C157.907 129.41 157.607 129.13 157.607 128.56V111.34C157.607 110.74 157.907 110.44 158.507 110.44H164.617C165.217 110.44 165.517 110.74 165.517 111.34V116.51H167.527C168.097 116.51 168.377 116.81 168.377 117.41V122.41C168.377 122.98 168.097 123.26 167.527 123.26H165.517V128.56C165.517 129.13 165.217 129.41 164.617 129.41H158.507Z" fill="white"/>
<path d="M219.367 130.39C219.197 130.85 218.837 131.07 218.297 131.07H211.377C211.037 131.07 210.797 130.98 210.667 130.79C210.537 130.6 210.547 130.36 210.687 130.04L217.907 111.53C218.077 111.07 218.407 110.85 218.887 110.85H226.157C226.467 110.85 226.687 110.94 226.817 111.13C226.947 111.32 226.937 111.56 226.797 111.88L219.367 130.39ZM243.387 138.04C243.927 138.04 244.197 138.33 244.197 138.89V144.02C244.197 144.59 243.927 144.87 243.387 144.87H213.217C212.647 144.87 212.367 144.58 212.367 144.02V134.32C212.367 133.75 212.647 133.47 213.217 133.47H219.667C220.267 133.47 220.567 133.76 220.567 134.32V138.04H243.387ZM225.527 130.82C224.987 130.82 224.657 130.59 224.547 130.14L223.047 125.65C222.987 125.45 222.957 125.27 222.957 125.12C222.957 124.96 222.997 124.77 223.087 124.54L226.417 116.21C226.557 115.84 226.747 115.65 226.997 115.65C227.237 115.65 227.427 115.84 227.577 116.21L232.787 129.84C233.077 130.5 232.857 130.82 232.147 130.82H225.527ZM236.807 133.68C236.207 133.68 235.907 133.4 235.907 132.83V111.33C235.907 110.73 236.207 110.43 236.807 110.43H242.917C243.517 110.43 243.817 110.73 243.817 111.33V132.83C243.817 133.4 243.517 133.68 242.917 133.68H236.807Z" fill="white"/>
<path d="M288.217 112.7C288.217 112.13 288.517 111.85 289.117 111.85H295.147V109.67C295.147 109.07 295.447 108.77 296.047 108.77H301.947C302.547 108.77 302.847 109.07 302.847 109.67V111.85H308.997C309.567 111.85 309.847 112.14 309.847 112.7V116.59C309.847 117.16 309.557 117.44 308.997 117.44H304.127L296.517 129.24C296.407 129.44 296.257 129.6 296.087 129.73C295.917 129.86 295.707 129.92 295.447 129.92H288.737C288.397 129.92 288.157 129.83 288.027 129.64C287.897 129.45 287.907 129.21 288.047 128.89L295.267 117.44H289.117C288.517 117.44 288.217 117.16 288.217 116.59V112.7ZM301.727 145.73C297.827 145.73 294.867 145.15 292.857 144C290.847 142.85 289.847 141.17 289.847 138.98C289.847 136.76 290.847 135.08 292.857 133.94C294.867 132.8 297.817 132.23 301.727 132.23H309.847C313.747 132.23 316.667 132.8 318.607 133.94C320.547 135.08 321.517 136.76 321.517 138.98C321.517 141.17 320.547 142.85 318.607 144C316.667 145.15 313.747 145.73 309.847 145.73H301.727ZM309.847 140.91C311.047 140.91 311.867 140.72 312.307 140.35C312.747 139.98 312.967 139.52 312.967 138.98C312.967 138.44 312.747 137.98 312.307 137.61C311.867 137.24 311.047 137.05 309.847 137.05H301.727C300.527 137.05 299.677 137.23 299.167 137.58C298.657 137.94 298.397 138.4 298.397 138.97C298.397 139.57 298.657 140.04 299.167 140.38C299.677 140.72 300.537 140.89 301.727 140.89H309.847V140.91ZM302.577 129.67C302.347 129.67 302.167 129.61 302.017 129.5C301.877 129.39 301.727 129.22 301.587 128.99L300.257 126.72C300.167 126.52 300.127 126.41 300.127 126.38C300.127 126.35 300.187 126.24 300.297 126.04L303.797 120.44C304.197 119.76 304.577 119.76 304.947 120.44L309.907 128.69C310.077 128.98 310.097 129.21 309.947 129.4C309.807 129.59 309.577 129.68 309.267 129.68H302.577V129.67ZM314.287 130.9C313.687 130.9 313.387 130.62 313.387 130.05V124.96H309.237C308.667 124.96 308.387 124.68 308.387 124.11V119.54C308.387 118.94 308.667 118.64 309.237 118.64H313.387V111.33C313.387 110.73 313.687 110.43 314.287 110.43H320.397C320.997 110.43 321.297 110.73 321.297 111.33V130.05C321.297 130.62 320.997 130.9 320.397 130.9H314.287Z" fill="white"/>
</svg>
