<svg width="936" height="825" viewBox="0 0 936 825" fill="none" xmlns="http://www.w3.org/2000/svg">
<path d="M208.233 213.218C193.795 216.731 181.87 226.546 173.073 240.691C171.927 242.535 169.404 241.168 169.45 238.719C170.092 205.769 183.604 179.544 205.463 174.223C210.857 172.911 216.388 172.976 221.892 174.242C224.048 174.737 224.91 171.315 223.002 169.802C209.077 158.803 193.768 153.951 179.265 157.473C166.909 160.482 156.819 169.169 149.581 181.672C148.499 183.534 145.976 182.195 145.958 179.773C145.802 153.318 156.287 131.991 173.624 127.771C177.1 126.927 180.641 126.826 184.182 127.386C186.347 127.725 187.016 124.267 185.062 122.845C174.926 115.488 163.937 112.37 153.498 114.911C136.253 119.103 124.759 137.687 121.704 162.142C121.438 164.261 118.696 164.922 117.485 163.17C103.542 142.852 84.8014 131.624 67.547 135.816C57.1081 138.357 48.779 146.172 43.1559 157.363C42.0735 159.519 44.2659 162.289 46.0271 160.996C48.9166 158.868 52.1088 157.336 55.5853 156.492C72.9132 152.272 92.0297 166.408 104.037 189.973C105.138 192.129 103.505 194.477 101.689 193.321C89.5163 185.543 76.564 182.451 64.208 185.46C49.7054 188.992 38.3309 200.339 31.02 216.502C30.0202 218.721 32.3593 221.363 34.038 219.941C38.3493 216.291 43.2293 213.695 48.623 212.383C70.4823 207.063 94.5248 224.152 110.238 253.129C111.403 255.285 109.798 257.661 107.927 256.551C93.6075 248.029 78.5179 244.782 64.0704 248.295C45.4859 252.818 31.0659 267.76 22.113 288.968C21.1591 291.216 23.5807 293.775 25.2135 292.271C30.9191 286.978 37.5054 283.254 44.8713 281.456C79.0224 273.145 117.512 309.222 133.886 363.251C134.262 364.499 135.317 365.288 136.308 365.049L161.846 358.839L167.001 357.583L172.156 356.326L197.694 350.116C198.684 349.877 199.253 348.694 199.015 347.41C188.741 291.895 206.362 242.177 240.513 233.866C247.879 232.077 255.438 232.362 262.941 234.444C265.079 235.04 266.06 231.655 264.18 230.087C246.485 215.346 226.818 208.695 208.233 213.218Z" fill="white" stroke="black" stroke-miterlimit="10"/>
<path d="M21.0213 295.023C25.5252 286.739 32.8178 280.373 41.2202 276.227C50.8978 271.448 61.8045 269.889 72.5094 270.439C79.0589 270.778 85.5351 271.897 91.892 273.512C93.1762 273.842 93.7265 271.852 92.4423 271.521C80.8293 268.577 68.6659 267.265 56.7685 269.191C46.8066 270.806 37.2392 274.888 29.5155 281.437C25.3601 284.96 21.8377 289.207 19.2417 293.986C18.5996 295.151 20.3884 296.197 21.0213 295.023Z" fill="black"/>
<path d="M29.6255 222.583C34.533 214.328 42.2292 207.778 51.1637 204.237C60.3826 200.586 70.6105 200.32 80.0495 203.283C85.5075 204.999 90.6168 207.76 94.9924 211.438C96.0014 212.291 97.4691 210.833 96.4509 209.98C88.3236 203.146 77.903 199.293 67.2807 199.174C57.0528 199.055 47.0542 202.614 39.0003 208.879C34.533 212.365 30.7263 216.658 27.8276 221.528C27.1671 222.693 28.9467 223.73 29.6255 222.583Z" fill="black"/>
<path d="M270.234 232.527C260.804 226.619 249.86 223.271 238.734 222.849C227.983 222.446 217.223 224.941 207.665 229.858C202.335 232.6 197.409 236.104 193.052 240.232C192.089 241.15 193.547 242.608 194.51 241.691C209.866 227.151 232.065 221.51 252.484 227.014C258.382 228.601 264.005 231.068 269.188 234.316C270.325 235.022 271.362 233.233 270.234 232.527Z" fill="black"/>
<path d="M290.533 661.081L197.638 683.683C154.764 694.113 111.155 667.566 100.726 624.701L56.7869 444.066C46.3571 401.191 72.9038 357.583 115.769 347.153L208.664 324.55C251.539 314.121 295.148 340.667 305.577 383.533L349.516 564.168C359.955 607.042 333.408 650.651 290.533 661.081Z" fill="#FFE001" stroke="black" stroke-miterlimit="10"/>
<path d="M140.573 425.224C140.417 424.582 140.674 424.179 141.353 424.013L148.122 422.362L147.278 418.877C147.113 418.198 147.37 417.776 148.049 417.611L154.727 415.987C155.406 415.822 155.828 416.079 155.993 416.758L156.837 420.243L163.322 418.666C164.028 418.491 164.459 418.73 164.625 419.372L165.735 423.922C165.89 424.564 165.615 424.977 164.909 425.151L142.949 430.49C142.27 430.655 141.857 430.416 141.701 429.765L140.573 425.224ZM167.606 434.893C167.89 436.058 167.853 437.158 167.514 438.195C167.166 439.232 166.578 440.195 165.753 441.057C164.918 441.928 163.863 442.69 162.57 443.341C161.276 443.992 159.827 444.524 158.213 444.91C156.598 445.304 155.066 445.506 153.617 445.515C152.168 445.524 150.874 445.341 149.737 444.946C148.599 444.561 147.636 443.983 146.856 443.213C146.077 442.442 145.536 441.488 145.26 440.323L145.013 439.305C144.728 438.14 144.756 437.048 145.086 436.012C145.416 434.975 146.003 434.021 146.847 433.15C147.691 432.278 148.764 431.517 150.058 430.857C151.351 430.205 152.801 429.673 154.415 429.288C156.029 428.894 157.561 428.692 159.011 428.683C160.46 428.673 161.753 428.857 162.891 429.251C164.028 429.646 164.982 430.224 165.771 430.985C166.551 431.755 167.092 432.709 167.367 433.874L167.606 434.893ZM185.099 445.084C185.713 444.937 186.099 445.185 186.255 445.827L187.364 450.377C187.52 451.019 187.291 451.413 186.686 451.569L152.544 459.88C151.902 460.036 151.498 459.797 151.342 459.146L149.269 450.634C149.113 449.991 149.351 449.588 150.003 449.432L157.305 447.652C157.983 447.487 158.396 447.726 158.552 448.377L159.277 451.377L185.099 445.084ZM158.919 436.443C158.736 435.7 158.414 435.131 157.937 434.737C157.47 434.342 156.717 434.269 155.681 434.517C154.617 434.773 153.966 435.195 153.736 435.782C153.507 436.37 153.479 437.03 153.654 437.773C153.837 438.516 154.167 439.094 154.663 439.498C155.158 439.91 155.919 439.984 156.947 439.736C158.011 439.479 158.653 439.048 158.864 438.452C159.084 437.856 159.102 437.186 158.919 436.443ZM176.559 442.396C175.88 442.561 175.467 442.323 175.311 441.681L174.284 437.47L171.385 438.177C170.743 438.333 170.339 438.094 170.183 437.443L169.046 432.755C168.881 432.077 169.119 431.664 169.761 431.508L172.66 430.802L171.605 426.444L168.945 427.096C168.303 427.252 167.899 427.013 167.743 426.362L166.606 421.674C166.441 420.996 166.679 420.583 167.321 420.427L169.982 419.776L168.982 415.666C168.817 414.987 169.073 414.565 169.752 414.4L176.669 412.721C177.348 412.556 177.769 412.813 177.935 413.492L184.264 439.516C184.42 440.158 184.163 440.562 183.484 440.727L176.559 442.396Z" fill="black"/>
<path d="M182.888 413.244C182.732 412.602 182.989 412.199 183.668 412.033L199.629 408.153C200.271 407.997 200.675 408.245 200.831 408.887L202.087 414.061C202.252 414.74 202.014 415.152 201.372 415.308L185.411 419.188C184.732 419.354 184.31 419.097 184.145 418.418L182.888 413.244ZM193.446 418.767C194.061 418.62 194.446 418.867 194.602 419.51L198.877 440.24L200.858 439.754C202.564 439.342 204.252 438.764 205.922 438.039C207.591 437.314 208.976 436.47 210.077 435.516L203.289 407.612C203.124 406.933 203.362 406.521 204.014 406.365L209.572 405.007C210.214 404.851 210.618 405.108 210.783 405.787L214.159 419.665L216.773 419.032L213.324 404.86C213.159 404.181 213.398 403.769 214.04 403.613L219.653 402.246C220.296 402.09 220.699 402.347 220.864 403.026L229.982 440.506C230.138 441.149 229.9 441.552 229.248 441.708L223.635 443.075C222.992 443.231 222.589 442.983 222.433 442.341L218.764 427.252L216.149 427.884L219.699 442.488C219.855 443.13 219.617 443.534 218.966 443.69L213.407 445.047C212.765 445.203 212.361 444.965 212.205 444.313L211.783 442.57C210.902 443.433 209.664 444.249 208.077 445.01C206.49 445.772 204.656 446.405 202.601 446.909L193.171 449.203C192.529 449.358 192.125 449.102 191.96 448.423L186.429 421.491C186.356 421.197 186.401 420.94 186.548 420.72C186.695 420.5 186.915 420.344 187.209 420.28L193.446 418.767Z" fill="black"/>
<path d="M161.313 509.781L157.882 510.616C158.02 512.322 157.983 513.781 157.772 515.001C157.552 516.211 157.176 517.248 156.626 518.092C156.084 518.945 155.369 519.624 154.488 520.147C153.608 520.669 152.589 521.073 151.425 521.348C150.039 521.688 148.737 521.761 147.535 521.578C146.334 521.394 145.224 520.844 144.215 519.926C143.206 519.009 142.279 517.688 141.435 515.964C140.591 514.239 139.83 512.01 139.169 509.267L135.766 495.288C135.61 494.646 135.858 494.242 136.5 494.086L141.674 492.829C142.352 492.664 142.765 492.903 142.921 493.545L146.407 507.864C146.728 509.185 147.021 510.267 147.297 511.102C147.572 511.946 147.838 512.588 148.095 513.037C148.361 513.487 148.608 513.781 148.847 513.927C149.085 514.074 149.351 514.111 149.645 514.037C149.939 513.964 150.159 513.808 150.324 513.57C150.489 513.322 150.581 512.946 150.608 512.423C150.636 511.9 150.59 511.212 150.461 510.331C150.333 509.46 150.113 508.359 149.792 507.038L147.746 498.627C147.012 495.6 146.178 493.527 145.242 492.426C144.306 491.325 143.086 490.949 141.564 491.325L135.179 492.875C134.5 493.04 134.088 492.802 133.932 492.16L132.647 486.885C132.491 486.243 132.748 485.84 133.427 485.674L139.573 484.179C142.38 483.5 144.737 483.482 146.655 484.124C148.572 484.766 150.186 486.124 151.516 488.197L155.818 487.151L154.323 481.005C154.158 480.327 154.397 479.914 155.039 479.758L160.359 478.464C161.001 478.308 161.405 478.565 161.57 479.244L170.504 515.954C170.66 516.597 170.422 517 169.771 517.156L164.45 518.45C163.808 518.606 163.404 518.367 163.249 517.716L161.313 509.781ZM156.36 502.892L159.451 502.14L157.662 494.792L154.516 495.554C154.608 495.801 154.69 496.077 154.764 496.361C154.837 496.654 154.901 496.93 154.965 497.187L156.36 502.892ZM163.625 478.428C163.46 477.749 163.698 477.336 164.349 477.18L169.715 475.878C170.358 475.722 170.761 475.979 170.926 476.657L180.044 514.138C180.2 514.78 179.962 515.184 179.31 515.34L173.944 516.642C173.302 516.798 172.899 516.551 172.743 515.909L163.625 478.428Z" fill="black"/>
<path d="M190.612 485.133C190.254 485.629 189.804 485.94 189.254 486.078L179.723 488.399C179.338 488.49 179.054 488.417 178.87 488.169C178.687 487.922 178.714 487.637 178.944 487.307L190.19 471.612C190.336 471.374 190.483 471.163 190.63 470.998C190.777 470.823 190.997 470.704 191.281 470.631L200.95 468.282C201.307 468.2 201.583 468.282 201.784 468.539C201.986 468.796 201.986 469.09 201.794 469.411L190.612 485.133ZM204.509 489.38L205.077 491.701L217.8 488.61C218.443 488.454 218.846 488.701 219.002 489.344L220.947 497.324C221.103 497.966 220.855 498.37 220.213 498.526L193.951 504.91L194.455 506.992L220.91 500.553C221.552 500.397 221.956 500.636 222.112 501.287L222.708 503.754C222.864 504.396 222.616 504.8 221.974 504.956L186.906 513.487C186.264 513.643 185.86 513.395 185.704 512.753L183.741 504.672C183.576 503.993 183.814 503.58 184.466 503.424L210.774 497.021L210.279 494.994L183.97 501.397C183.328 501.553 182.925 501.314 182.769 500.663L182.191 498.296C182.035 497.654 182.273 497.251 182.925 497.095L195.693 493.985L195.125 491.664L181.732 494.921C181.053 495.086 180.631 494.829 180.466 494.15L179.787 491.343C179.632 490.701 179.888 490.298 180.567 490.132L216.69 481.345C217.369 481.18 217.782 481.418 217.938 482.069L218.617 484.876C218.782 485.555 218.525 485.977 217.846 486.142L204.509 489.38ZM198.528 478.29C198.28 478.116 198.143 477.886 198.106 477.62C198.078 477.354 198.133 477.107 198.28 476.859L201.61 472.208C201.977 471.603 202.454 471.456 203.041 471.759L216.47 477.914C216.828 478.097 216.975 478.345 216.929 478.648C216.883 478.951 216.663 479.143 216.278 479.244L206.848 481.537C206.297 481.675 205.71 481.574 205.087 481.253L198.528 478.29Z" fill="black"/>
<path d="M229.542 471.209C230.221 471.043 230.643 471.3 230.808 471.979L231.633 475.364C232.56 479.171 234.018 480.831 236.018 480.345C238.045 479.849 238.605 477.703 237.678 473.896C237.385 472.704 237.009 471.759 236.559 471.071C236.101 470.383 235.55 469.878 234.917 469.576C234.275 469.273 233.569 469.117 232.78 469.126C231.991 469.126 231.138 469.246 230.202 469.475L221.204 471.667C220.525 471.832 220.112 471.594 219.956 470.943L218.828 466.301C218.663 465.622 218.92 465.2 219.598 465.035L228.349 462.907C230.771 462.32 232.973 462.008 234.963 461.99C236.954 461.971 238.724 462.292 240.265 462.953C241.815 463.622 243.118 464.659 244.2 466.072C245.274 467.484 246.099 469.346 246.668 471.667C247.227 473.96 247.411 475.96 247.237 477.676C247.053 479.391 246.567 480.859 245.769 482.079C244.971 483.299 243.889 484.308 242.503 485.097C241.127 485.895 239.504 486.518 237.633 486.977C235.798 487.426 234.083 487.61 232.496 487.537C230.909 487.463 229.469 487.069 228.184 486.353C226.9 485.638 225.79 484.564 224.864 483.115C223.928 481.666 223.185 479.804 222.626 477.51L221.818 474.171C221.653 473.493 221.892 473.08 222.534 472.924L229.542 471.209ZM228.111 501.773C227.432 501.938 227.01 501.663 226.836 500.957L225.469 495.343C225.313 494.701 225.57 494.297 226.249 494.132L241.192 490.499C243.577 489.921 245.879 489.261 248.09 488.518C250.3 487.775 252.227 486.867 253.878 485.775L247.145 458.109C246.98 457.431 247.237 457.009 247.915 456.844L254.832 455.165C255.511 455 255.933 455.257 256.098 455.935L265.216 493.416C265.372 494.058 265.115 494.462 264.436 494.627L257.52 496.306C256.841 496.471 256.428 496.233 256.272 495.581L255.547 492.582C254.052 493.728 252.144 494.811 249.833 495.82C247.512 496.829 244.934 497.673 242.1 498.37L228.111 501.773Z" fill="black"/>
<path d="M178.99 545.281C179.668 545.115 180.081 545.354 180.237 545.996L183.824 560.746C184.411 563.168 185.071 564.81 185.814 565.663C186.557 566.525 187.502 566.819 188.667 566.534C189.86 566.241 190.584 565.544 190.85 564.443C191.107 563.342 190.951 561.572 190.355 559.159L188.19 550.262C187.851 548.876 187.456 547.684 186.988 546.684C186.521 545.684 185.961 544.904 185.291 544.327C184.622 543.749 183.814 543.409 182.86 543.281C181.907 543.152 180.787 543.244 179.494 543.565L170.642 545.721C169.963 545.886 169.55 545.648 169.395 545.005L168.11 539.731C167.954 539.089 168.211 538.685 168.89 538.52L177.503 536.429C183.053 535.08 187.392 535.346 190.529 537.227C193.666 539.107 195.914 542.822 197.262 548.372L199.271 556.646C199.941 559.389 200.207 561.737 200.069 563.7C199.931 565.663 199.464 567.323 198.666 568.672C197.868 570.029 196.767 571.112 195.363 571.937C193.96 572.754 192.318 573.396 190.447 573.845C188.612 574.295 186.878 574.478 185.255 574.396C183.631 574.313 182.154 573.855 180.824 573.02C179.494 572.185 178.32 570.919 177.292 569.241C176.265 567.562 175.421 565.351 174.761 562.608L171.257 548.198C171.101 547.556 171.348 547.152 171.991 546.996L178.99 545.281ZM207.536 569.947C206.894 570.103 206.49 569.855 206.334 569.213L197.216 531.732C197.051 531.053 197.29 530.64 197.941 530.485L204.958 528.778C205.6 528.622 206.004 528.879 206.169 529.558L215.287 567.039C215.443 567.681 215.195 568.085 214.553 568.241L207.536 569.947Z" fill="black"/>
<path d="M211.545 531.879C211.389 531.237 211.645 530.824 212.324 530.668L217.113 529.503L216.104 525.348C215.938 524.669 216.195 524.247 216.874 524.082L222.58 522.697C223.259 522.532 223.68 522.788 223.846 523.467L224.855 527.623L229.643 526.458C230.322 526.292 230.735 526.531 230.89 527.182L232.156 532.402C232.239 532.723 232.23 533.062 232.147 533.429C232.065 533.796 231.844 534.016 231.496 534.099L214.177 538.309C213.82 538.392 213.526 538.3 213.287 538.016C213.049 537.731 212.893 537.428 212.81 537.107L211.545 531.879ZM235.44 549.885C235.954 552.014 236.174 553.885 236.082 555.49C236 557.105 235.679 558.471 235.128 559.59C234.587 560.71 233.826 561.627 232.844 562.324C231.872 563.021 230.753 563.526 229.496 563.828C228.239 564.131 227.029 564.195 225.854 564.021C224.69 563.847 223.598 563.388 222.598 562.636C221.598 561.893 220.699 560.82 219.892 559.425C219.094 558.031 218.434 556.27 217.92 554.142L217.324 551.674C216.81 549.546 216.59 547.675 216.681 546.069C216.764 544.464 217.085 543.097 217.636 541.969C218.177 540.85 218.938 539.933 219.92 539.236C220.892 538.538 222.011 538.034 223.268 537.731C224.524 537.429 225.735 537.364 226.909 537.539C228.084 537.713 229.166 538.181 230.166 538.924C231.166 539.676 232.065 540.74 232.872 542.134C233.67 543.529 234.33 545.29 234.844 547.418L235.44 549.885ZM228.166 549.042C227.818 547.592 227.368 546.501 226.827 545.758C226.286 545.015 225.68 544.73 225.001 544.895C224.295 545.07 223.864 545.611 223.708 546.519C223.552 547.427 223.653 548.61 224.002 550.06L224.598 552.527C224.946 553.977 225.396 555.077 225.937 555.811C226.478 556.554 227.084 556.839 227.762 556.673C228.469 556.499 228.9 555.958 229.056 555.05C229.212 554.142 229.111 552.958 228.762 551.509L228.166 549.042ZM251.878 559.159C251.236 559.315 250.833 559.068 250.677 558.426L247.007 543.336L244.393 543.969L247.943 558.572C248.099 559.214 247.851 559.618 247.209 559.774L241.65 561.132C241.008 561.287 240.605 561.049 240.449 560.398L231.523 523.687C231.358 523.009 231.597 522.596 232.239 522.44L237.798 521.082C238.44 520.926 238.843 521.183 239.009 521.862L242.384 535.741L244.999 535.108L241.549 520.935C241.384 520.257 241.623 519.844 242.274 519.688L247.888 518.321C248.53 518.165 248.934 518.422 249.099 519.101L258.217 556.582C258.373 557.224 258.134 557.627 257.483 557.783L251.878 559.159Z" fill="black"/>
<path d="M228.891 367.499C228.891 367.499 253.85 375.323 268.38 409.97C278.682 434.526 290.735 489.692 290.735 489.692" stroke="black" stroke-width="2" stroke-miterlimit="10" stroke-linecap="round"/>
<path d="M249.007 361.536C249.007 361.536 275.829 373.461 285.892 405.869C293.78 431.297 306.384 484.473 306.384 484.473" stroke="black" stroke-width="2" stroke-miterlimit="10" stroke-linecap="round"/>
<path d="M242.302 404.007L300.422 385.753" stroke="black" stroke-width="2" stroke-miterlimit="10" stroke-linecap="round"/>
<path d="M230.377 382.396L286.928 365.352" stroke="black" stroke-width="2" stroke-miterlimit="10" stroke-linecap="round"/>
<path d="M249.75 427.105L307.127 408.85" stroke="black" stroke-width="2" stroke-miterlimit="10" stroke-linecap="round"/>
<path d="M368.676 612.628L357.232 731.785L581.932 753.366L593.376 634.208L368.676 612.628Z" stroke="white" stroke-width="0.5" stroke-miterlimit="10"/>
<path d="M418.396 504.002L565.293 518.11C567.971 518.367 569.943 520.752 569.686 523.431L567.797 543.116C567.65 544.602 566.329 545.693 564.843 545.547L413.617 531.017C412.131 530.87 411.039 529.549 411.186 528.063L413.076 508.378C413.323 505.708 415.708 503.745 418.396 504.002Z" stroke="white" stroke-width="0.75" stroke-miterlimit="10"/>
<path d="M578.778 694.307C580.112 680.652 534.455 665.019 476.802 659.388C419.148 653.758 371.33 660.263 369.996 673.917C368.663 687.572 414.319 703.205 471.973 708.836C529.626 714.466 577.445 707.961 578.778 694.307Z" stroke="black" stroke-width="0.25" stroke-miterlimit="10"/>
<path d="M592.16 611.822C593.784 618.362 594.307 625.196 593.646 632.066L581.226 761.333C579.538 778.89 569.384 794.52 554.019 803.189L541.177 810.436C533.857 814.563 525.445 816.352 517.07 815.545L463.123 810.362L409.177 805.179C400.811 804.372 392.886 801.024 386.492 795.575L375.264 786.017C361.835 774.578 354.836 757.306 356.524 739.748L368.944 610.482C370.375 595.576 377.292 581.853 388.162 571.873L592.16 611.822Z" fill="#D1270D"/>
<path d="M592.16 611.822C589.518 601.163 583.987 591.302 575.988 583.404L554.404 562.113L556.505 540.226L489.698 533.805L422.891 527.393L420.79 549.28L395.546 566.076C392.913 567.828 390.446 569.763 388.153 571.873L592.16 611.822Z" stroke="white" stroke-miterlimit="10"/>
<path d="M592.16 611.822C593.784 618.362 594.307 625.196 593.646 632.066L581.226 761.333C579.538 778.89 569.384 794.52 554.019 803.189L541.177 810.436C533.857 814.563 525.445 816.352 517.07 815.545L463.123 810.362L409.177 805.179C400.811 804.372 392.886 801.024 386.492 795.575L375.264 786.017C361.835 774.578 354.836 757.306 356.524 739.748L368.944 610.482C370.375 595.576 377.292 581.853 388.162 571.873L592.16 611.822Z" stroke="white" stroke-miterlimit="10"/>
<path d="M368.676 612.628L357.232 731.785L581.932 753.366L593.376 634.208L368.676 612.628Z" fill="#F8FCFF"/>
<path d="M418.396 504.002L565.293 518.11C567.971 518.367 569.943 520.752 569.686 523.431L567.797 543.116C567.65 544.602 566.329 545.693 564.843 545.547L413.617 531.017C412.131 530.87 411.039 529.549 411.186 528.063L413.076 508.378C413.323 505.708 415.708 503.745 418.396 504.002Z" fill="#73B0DF"/>
<path d="M400.371 586.899C402.04 586.899 402.04 584.303 400.371 584.303C398.701 584.303 398.692 586.899 400.371 586.899Z" fill="white"/>
<path d="M394.665 595.971C390.327 607.171 389.446 619.435 387.942 631.25C387.731 632.901 390.327 632.883 390.537 631.25C392.005 619.655 392.904 607.657 397.16 596.659C397.775 595.108 395.262 594.43 394.665 595.971Z" fill="white"/>
<path d="M376.264 727.154C375.677 740.381 379.594 753.737 387.125 764.616C389.262 767.699 391.675 770.588 394.344 773.221C395.537 774.395 397.371 772.56 396.179 771.386C387.097 762.415 381.19 750.49 379.355 737.868C378.842 734.327 378.695 730.722 378.851 727.154C378.934 725.484 376.338 725.484 376.264 727.154Z" fill="white"/>
<path d="M480.543 518.193L547.589 524.678" stroke="white" stroke-width="2" stroke-miterlimit="10" stroke-linecap="round"/>
<path d="M555.67 526.705C557.339 526.705 557.339 524.109 555.67 524.109C554 524.109 554 526.705 555.67 526.705Z" fill="white"/>
<path d="M578.778 694.307C580.112 680.652 534.455 665.019 476.802 659.388C419.148 653.758 371.33 660.263 369.996 673.917C368.663 687.572 414.319 703.205 471.973 708.836C529.626 714.466 577.445 707.961 578.778 694.307Z" fill="#73B0DF"/>
<path d="M383.355 678.399C390.748 679.106 401.912 679.794 403.343 679.638L403.361 679.399L383.731 677.776L383.942 675.583L406.471 677.748L406.095 681.637C405.104 681.812 389.07 681.124 386.07 680.748L386.052 680.977L406.269 682.922L406.067 685.022L382.924 682.802L383.355 678.399ZM393.244 666.997C400.169 667.658 402.71 669.768 402.472 672.217C402.233 674.703 399.344 676.253 392.418 675.583C385.492 674.914 382.979 672.85 383.217 670.364C383.447 667.915 386.318 666.328 393.244 666.997ZM392.684 672.776C398.179 673.299 399.472 672.721 399.545 671.932C399.619 671.143 398.435 670.318 392.968 669.795C387.501 669.272 386.208 669.85 386.135 670.639C386.061 671.464 387.217 672.253 392.684 672.776ZM404.453 668.162L407.379 668.447L406.581 676.748L403.655 676.464L404.453 668.162Z" fill="black"/>
<path d="M429.945 687.031L409.608 685.077L410.516 675.611L424.514 676.959L424.872 673.281L411.195 671.969L411.461 669.162L428.055 670.758L427.165 680.05L413.167 678.702L412.8 682.555L430.211 684.224L431.073 675.198L428.56 674.959L428.826 672.18L431.339 672.419L431.495 670.749L434.412 671.033L432.825 687.6L429.899 687.315L429.945 687.031Z" fill="black"/>
<path d="M436.091 684.499L459.931 686.793L459.665 689.6L435.825 687.306L436.091 684.499ZM447.621 675.519L447.896 672.657L450.822 672.941L450.52 675.803C451.446 677.776 454.189 680.316 460.161 682.243L459.317 684.93C453.794 683.133 450.474 680.628 448.804 678.289C446.759 680.28 443.016 682.096 437.256 682.812L436.934 680.005C443.163 679.252 446.337 677.28 447.621 675.519Z" fill="black"/>
<path d="M462.27 687.013L486.111 689.306L485.845 692.113L462.004 689.82L462.27 687.013ZM464.087 674.207L486.643 676.372L486.377 679.179L466.738 677.289L466.6 678.748L485.707 680.582L485.441 683.389L466.334 681.555L466.196 683.013L486.12 684.93L485.854 687.737L463.004 685.545L464.087 674.207Z" fill="black"/>
<path d="M489.652 683.123L501.751 684.288L502.1 680.693L490.679 679.592L490.945 676.785L505.292 678.161L505.072 680.5L506.585 680.647L506.842 677.986L509.768 678.271L508.181 694.837L505.255 694.553L505.283 694.259L488.744 692.672L489.652 683.123ZM505.539 691.462L506.31 683.426L504.796 683.279L504.402 687.37L492.303 686.205L491.927 690.15L505.539 691.462ZM510.924 678.39L513.841 678.674L512.254 695.241L509.337 694.957L510.924 678.39Z" fill="black"/>
<path d="M525.885 679.885C532.517 680.518 534.93 684.591 534.508 688.939C534.086 693.296 530.949 696.791 524.317 696.158C517.657 695.516 515.272 691.489 515.685 687.132C516.107 682.775 519.189 679.243 525.885 679.885ZM524.592 693.351C529.527 693.828 531.279 691.929 531.591 688.655C531.903 685.38 530.554 683.16 525.619 682.683C520.657 682.206 518.932 684.132 518.62 687.407C518.299 690.682 519.62 692.874 524.592 693.351ZM537.581 680.949L540.507 681.234L538.92 697.8L535.994 697.516L537.581 680.949Z" fill="black"/>
<path d="M559.963 683.72L564.549 684.16L564.604 683.545L567.531 683.83L566.347 696.186L563.421 695.901L563.907 690.82L561.568 690.599L560.798 692.828C556.707 691.462 554.166 689.71 552.762 688.077C551.074 689.682 548.102 691.168 543.681 691.774L543.286 689.086C548.066 688.453 550.46 686.884 551.45 685.444L551.716 682.637L554.643 682.922L554.377 685.664C554.982 686.756 556.468 688.132 559.495 689.434L559.669 687.618L564.173 688.049L564.283 686.939L559.697 686.499L559.963 683.72ZM544.332 692.59L547.258 692.874L546.983 695.736L566.412 697.598L566.146 700.405L543.791 698.259L544.332 692.59Z" fill="black"/>
<path d="M883.211 590.43C883.935 590.458 884.651 590.559 885.357 590.724L900.942 593.824C905.84 594.797 910.84 592.054 912.518 587.275C914.335 582.083 915.399 576.111 908.803 571.497C908.115 571.011 905.382 569.8 904.574 569.562L829.365 546.106C823.228 544.272 819.247 547.198 817.357 553.417C815.431 559.774 818.33 563.893 824.668 565.425C837.648 568.562 848.362 573.855 850.004 584.339C850.784 589.302 849.16 598.191 847.601 603.575C846.096 608.758 842.794 613.363 838.144 616.05C835.713 617.454 833.502 619.444 831.722 622.068C805.9 660.044 755.109 693.296 692.384 708.679C629.659 724.063 569.833 717.944 530.279 696.002C515.969 688.068 498.605 700.864 502.21 716.972C502.237 717.109 502.274 717.238 502.301 717.375C516.584 779.642 611.598 828.442 711.95 803.446C812.459 778.413 880.624 688.682 866.002 628.159C865.965 628.021 865.938 627.893 865.91 627.755C865.176 624.655 865.314 621.389 866.286 618.334C867.772 613.656 869.13 609.097 870.222 605.263C873.726 592.879 879.688 590.32 883.211 590.43Z" fill="#FFE600" stroke="black" stroke-miterlimit="10"/>
<path d="M571.631 769.726C571.172 769.533 571.035 769.212 571.227 768.753L572.741 765.066C572.924 764.626 573.245 764.497 573.704 764.69L582.831 768.442L583.95 765.708C584.134 765.268 584.436 765.139 584.877 765.323L589.949 767.405C590.39 767.589 590.518 767.9 590.335 768.332L589.206 771.065L598.306 774.798C598.765 774.991 598.911 775.303 598.728 775.743L597.214 779.431C597.022 779.89 596.701 780.027 596.242 779.834L571.631 769.726ZM576.575 760.323C576.135 760.14 576.006 759.837 576.19 759.397L579.712 750.829C579.896 750.389 580.199 750.261 580.639 750.444L585.546 752.462C585.987 752.646 586.115 752.958 585.932 753.389L584.143 757.737L595.774 762.516L598.242 756.517L580.74 749.325C580.281 749.132 580.143 748.811 580.336 748.353L581.785 744.83C581.969 744.39 582.29 744.262 582.749 744.454L605.791 753.921C606.25 754.113 606.397 754.425 606.213 754.866L600.287 769.304C600.104 769.744 599.783 769.873 599.324 769.68L576.575 760.323Z" fill="black"/>
<path d="M630.155 783.357C630.595 783.467 630.751 783.751 630.641 784.21L629.614 788.356C629.504 788.815 629.219 788.998 628.788 788.888L604.37 782.834C603.911 782.724 603.737 782.43 603.847 781.972L605.791 774.12C605.911 773.661 606.195 773.487 606.654 773.597L611.873 774.89C612.359 775.009 612.543 775.303 612.423 775.762L611.68 778.77L630.155 783.357ZM612.249 772.349C612.02 772.68 611.68 772.799 611.249 772.689L605.645 771.304C605.369 771.239 605.195 771.111 605.131 770.937C605.067 770.762 605.122 770.561 605.296 770.331L614.68 756.764C614.909 756.434 615.221 756.315 615.616 756.407L621.496 757.865C621.752 757.929 621.908 758.049 621.973 758.223C622.037 758.397 621.982 758.599 621.807 758.819L612.249 772.349ZM616.735 773.826C616.294 773.716 616.074 773.468 616.074 773.074L616.093 769.295C616.083 769.12 616.102 768.974 616.129 768.845C616.157 768.717 616.23 768.57 616.349 768.405L620.652 762.314C620.844 762.039 621.037 761.929 621.229 761.984C621.422 762.03 621.541 762.222 621.587 762.552L622.881 774.514C622.982 775.101 622.743 775.321 622.165 775.184L616.735 773.826ZM625.715 778.477C625.229 778.358 625.045 778.064 625.165 777.605L626.027 774.11L623.816 773.56C623.358 773.45 623.183 773.157 623.293 772.698L624.128 769.341C624.247 768.854 624.541 768.671 625 768.79L627.21 769.341L627.935 766.405L625.724 765.855C625.266 765.745 625.091 765.451 625.201 764.993L626.036 761.635C626.155 761.149 626.449 760.966 626.908 761.085L629.118 761.635L629.458 760.25C629.577 759.764 629.88 759.58 630.366 759.709L635.31 760.938C635.796 761.057 635.98 761.36 635.86 761.846L631.558 779.211C631.448 779.669 631.146 779.844 630.659 779.724L625.715 778.477Z" fill="black"/>
<path d="M636.704 789.87C636.209 789.842 635.97 789.576 636.007 789.081L636.264 784.916C636.291 784.439 636.557 784.219 637.053 784.256L654.05 785.311C654.637 783.917 655.16 782.302 655.637 780.449C656.105 778.596 656.435 776.67 656.6 774.652L657.05 769.075L639.052 767.955C638.575 767.928 638.355 767.671 638.383 767.203L638.64 763.039C638.667 762.562 638.924 762.342 639.392 762.369L663.719 763.883C664.214 763.91 664.453 764.167 664.425 764.644L663.517 774.688C663.306 776.89 662.93 778.945 662.379 780.862C661.829 782.779 661.269 784.403 660.682 785.714L663.599 785.898C664.095 785.925 664.333 786.182 664.306 786.659L664.049 790.824C664.021 791.319 663.755 791.558 663.26 791.521L636.704 789.87Z" fill="black"/>
<path d="M677.854 784.87C679.093 784.669 680.331 784.348 681.56 783.916C682.789 783.485 683.826 782.962 684.661 782.339L681.285 761.874C681.203 761.378 681.395 761.094 681.863 761.02L685.908 760.351C686.376 760.277 686.651 760.479 686.734 760.975L688.403 771.065L690.302 770.753L688.605 760.452C688.523 759.956 688.715 759.672 689.183 759.599L693.265 758.929C693.733 758.856 694.008 759.057 694.091 759.553L698.585 786.797C698.659 787.265 698.466 787.54 697.998 787.613L693.925 788.283C693.458 788.365 693.182 788.163 693.109 787.696L691.302 776.725L689.403 777.037L691.155 787.65C691.229 788.118 691.036 788.393 690.568 788.466L686.523 789.136C686.055 789.209 685.78 789.017 685.706 788.549L685.495 787.283C684.817 787.852 683.89 788.365 682.716 788.824C681.542 789.283 680.203 789.64 678.698 789.879L671.846 791.007C671.378 791.08 671.103 790.879 671.02 790.383L668.59 775.652C668.516 775.184 668.718 774.908 669.213 774.826L675.368 773.808L674.396 767.9L668.177 768.928C667.681 769.01 667.397 768.818 667.324 768.35L666.728 764.726C666.654 764.259 666.856 763.983 667.351 763.901L678.634 762.039C679.129 761.956 679.414 762.149 679.487 762.617L681.863 776.991C681.936 777.459 681.735 777.734 681.239 777.816L675.047 778.835L676.084 785.127L677.854 784.87Z" fill="black"/>
<path d="M695.182 759.012C695.017 758.562 695.164 758.259 695.632 758.085L711.95 751.967C712.418 751.792 712.739 751.93 712.904 752.37L714.051 755.443C714.216 755.893 714.069 756.196 713.602 756.37L697.283 762.488C696.815 762.663 696.503 762.525 696.329 762.085L695.182 759.012ZM698.879 768.974C698.714 768.524 698.86 768.221 699.328 768.047L700.392 767.643L698.925 763.736C698.851 763.534 698.861 763.351 698.943 763.176C699.035 763.002 699.172 762.883 699.374 762.809L703.575 761.232C703.997 761.076 704.291 761.213 704.456 761.663L705.915 765.57L707.978 764.791L707.254 760.617C707.153 760.149 707.3 759.837 707.703 759.69L711.84 758.14C712.06 758.058 712.253 758.048 712.418 758.113C712.583 758.177 712.684 758.333 712.721 758.571L713.381 762.773L715.785 761.874C716.253 761.699 716.564 761.837 716.739 762.277L717.904 765.378C718.069 765.827 717.922 766.13 717.454 766.304L700.97 772.478C700.502 772.652 700.191 772.514 700.016 772.074L698.879 768.974ZM705.327 779.073C704.878 779.238 704.575 779.101 704.41 778.66L703.098 775.156C702.933 774.716 703.071 774.404 703.511 774.239L726.765 765.524C727.205 765.359 727.517 765.497 727.682 765.937L730.984 774.743C731.149 775.193 731.012 775.496 730.572 775.661L725.435 777.587C724.994 777.752 724.683 777.615 724.517 777.174L722.775 772.533L705.327 779.073ZM721.298 765.635C720.83 765.809 720.518 765.671 720.344 765.231L715.088 751.215C714.913 750.747 715.06 750.426 715.528 750.251L720.298 748.463C720.766 748.288 721.087 748.435 721.261 748.903L726.517 762.919C726.682 763.369 726.535 763.672 726.068 763.846L721.298 765.635Z" fill="black"/>
<path d="M739.46 759.507C739.424 759.691 739.369 759.865 739.304 760.03C739.24 760.195 739.121 760.324 738.928 760.424L732.938 763.497C732.681 763.626 732.461 763.653 732.259 763.571C732.058 763.488 731.984 763.296 732.048 763.002L734.874 742.766C734.901 742.565 734.956 742.381 735.039 742.225C735.112 742.069 735.241 741.941 735.406 741.858L741.717 738.62C741.946 738.501 742.148 738.51 742.313 738.657C742.478 738.794 742.533 739.005 742.487 739.271L739.46 759.507ZM736.984 772.313C736.543 772.542 736.195 772.423 735.956 771.955L734.103 768.341C733.883 767.919 734.002 767.588 734.443 767.368L758.118 755.214C758.559 754.985 758.889 755.086 759.109 755.508L760.962 759.122C761.2 759.59 761.099 759.938 760.65 760.158L736.984 772.313ZM742.249 751.985C741.882 751.802 741.754 751.481 741.845 751.031L742.616 745.83C742.708 745.326 742.983 745.197 743.46 745.436L756.1 750.637C756.366 750.738 756.476 750.903 756.43 751.132C756.384 751.352 756.238 751.536 755.981 751.664L749.835 754.82C749.642 754.921 749.468 754.948 749.294 754.893C749.119 754.847 748.954 754.792 748.78 754.719L742.249 751.985Z" fill="black"/>
<path d="M758.678 744.922C757.155 742.739 755.963 740.565 755.109 738.391C754.256 736.217 753.605 733.979 753.137 731.658C753.091 731.428 753.091 731.217 753.119 731.016C753.156 730.814 753.275 730.64 753.495 730.493L757.054 727.998C757.247 727.86 757.43 727.814 757.586 727.86C757.751 727.906 757.861 728.053 757.916 728.301C758.476 730.429 759.32 732.584 760.439 734.777C761.558 736.96 762.815 739.051 764.209 741.033C765.594 743.014 767.126 744.913 768.796 746.72C770.465 748.527 772.199 750.059 774.006 751.316C774.217 751.453 774.318 751.609 774.308 751.774C774.299 751.939 774.189 752.095 773.997 752.233L770.438 754.728C770.227 754.875 770.016 754.939 769.823 754.902C769.621 754.866 769.429 754.792 769.227 754.664C767.209 753.435 765.328 752.049 763.576 750.508C761.833 748.967 760.2 747.105 758.678 744.922Z" fill="black"/>
<path d="M780.198 736.107C780.188 736.373 780.161 736.593 780.124 736.776C780.088 736.951 779.977 737.125 779.785 737.299L774.364 742.243C774.189 742.399 774.024 742.454 773.859 742.409C773.703 742.363 773.602 742.225 773.566 742.005C773.4 741.225 773.345 740.335 773.41 739.326C773.474 738.317 773.575 737.281 773.703 736.217C773.841 735.144 773.988 734.07 774.171 732.997C774.345 731.924 774.474 730.906 774.538 729.961C774.611 729.016 774.602 728.172 774.52 727.429C774.437 726.686 774.208 726.108 773.841 725.704C773.584 725.42 773.318 725.182 773.043 724.989C772.767 724.796 772.465 724.668 772.144 724.604C771.823 724.549 771.483 724.576 771.135 724.686C770.786 724.796 770.419 725.026 770.034 725.383C769.328 726.026 769.071 726.714 769.245 727.457C769.419 728.2 769.85 728.943 770.538 729.695L770.896 730.089C771.236 730.456 771.226 730.805 770.878 731.126L766.979 734.676C766.649 734.978 766.31 734.96 765.97 734.63L765.759 734.391C764.594 733.107 763.76 731.86 763.273 730.63C762.787 729.401 762.585 728.227 762.668 727.08C762.751 725.943 763.099 724.851 763.705 723.796C764.31 722.751 765.117 721.76 766.135 720.834C767.099 719.953 768.108 719.265 769.153 718.779C770.199 718.293 771.263 718.027 772.346 717.99C773.419 717.953 774.483 718.173 775.529 718.632C776.574 719.091 777.574 719.843 778.519 720.879C779.464 721.916 780.087 723.054 780.39 724.283C780.693 725.512 780.84 726.787 780.821 728.108C780.803 729.429 780.693 730.768 780.509 732.126C780.308 733.483 780.207 734.813 780.198 736.107ZM787.591 731.63C787.921 731.328 788.261 731.355 788.591 731.731L791.691 735.125C792.012 735.474 792.003 735.804 791.673 736.107L779.033 747.628C778.702 747.931 778.372 747.912 778.051 747.555L774.951 744.161C774.611 743.794 774.611 743.454 774.951 743.152L787.591 731.63Z" fill="black"/>
<path d="M790.563 715.981C792.581 717.724 794.269 719.54 795.627 721.43C796.984 723.329 798.177 725.338 799.195 727.475C799.296 727.686 799.351 727.897 799.369 728.09C799.388 728.291 799.305 728.493 799.14 728.686L796.296 731.979C796.14 732.162 795.975 732.245 795.81 732.245C795.645 732.236 795.498 732.126 795.379 731.896C794.315 729.97 792.966 728.09 791.343 726.246C789.719 724.402 787.985 722.687 786.151 721.109C784.316 719.522 782.372 718.063 780.308 716.724C778.244 715.385 776.189 714.33 774.125 713.55C773.887 713.468 773.749 713.339 773.722 713.174C773.694 713.009 773.758 712.835 773.914 712.651L776.758 709.358C776.932 709.156 777.115 709.056 777.317 709.037C777.519 709.019 777.73 709.046 777.959 709.12C780.216 709.817 782.381 710.697 784.454 711.762C786.509 712.835 788.554 714.238 790.563 715.981Z" fill="black"/>
<path d="M850.151 636.717C847.949 658.732 837.272 679.638 821.118 694.7C816.605 698.91 811.67 702.625 806.377 705.808C805.24 706.496 806.276 708.276 807.423 707.588C826.852 695.892 841.537 676.895 848.39 655.32C850.316 649.266 851.582 643.028 852.215 636.708C852.343 635.396 850.279 635.405 850.151 636.717Z" fill="black"/>
<path d="M521.666 720.971C528.821 734.346 540.103 745.381 553.634 752.242C554.817 752.838 555.863 751.059 554.679 750.462C541.433 743.757 530.453 733.025 523.454 719.935C522.821 718.761 521.042 719.797 521.666 720.971Z" fill="black"/>
<path d="M586.335 295.674C559.238 261.092 526.151 273.915 497.486 262.156C468.82 250.396 457.473 219.336 413.892 224.913C379.622 229.307 349.442 265.256 337.206 307.168C324.868 349.409 319.85 424.967 359.845 457.256C372.742 467.668 388.235 467.227 409.315 473.539C411.819 474.291 414.268 475.291 416.58 476.52C435.834 486.766 445.135 497.361 461.619 499.012C512.768 504.131 562.265 446.818 583.152 408.089C603.874 369.663 607.644 322.872 586.335 295.674Z" fill="#D1270D" stroke="black" stroke-miterlimit="10"/>
<path d="M468.444 143.585C455.381 160.666 451.162 185.8 459.353 210.236C467.545 234.673 486.074 252.175 506.796 257.927C519.859 240.847 524.078 215.713 515.887 191.276C507.686 166.839 489.166 149.337 468.444 143.585Z" fill="white" stroke="black" stroke-width="0.5" stroke-miterlimit="10"/>
<path d="M407.774 251.909C408.095 251.515 408.507 251.524 408.984 251.919L416.277 257.954C416.763 258.358 416.846 258.753 416.515 259.147L413.002 263.394C412.681 263.788 412.268 263.779 411.791 263.385L406.746 259.211L397.647 270.2L399.059 271.375L406.911 261.88C407.251 261.468 407.673 261.477 408.186 261.89L409.672 263.119C410.158 263.522 410.223 263.926 409.883 264.339L402.031 273.824L402.682 274.365C403.169 274.769 403.242 275.172 402.893 275.585L399.408 279.805C399.068 280.217 398.656 280.217 398.169 279.823L390.877 273.787C390.391 273.383 390.317 272.98 390.666 272.567L407.774 251.909ZM402.976 277.282C403.315 276.869 403.728 276.86 404.214 277.264L422.533 292.427C423.037 292.849 423.12 293.261 422.781 293.674L420.102 296.912C419.763 297.325 419.331 297.325 418.827 296.903L400.508 281.74C400.022 281.336 399.958 280.933 400.297 280.52L402.976 277.282ZM408.122 271.512L408.223 271.393L411.635 267.265C411.956 266.871 412.36 266.871 412.846 267.274L414.983 269.045C415.488 269.467 415.58 269.87 415.259 270.265L412.259 273.888L427.349 286.372C427.853 286.794 427.936 287.207 427.596 287.62L424.918 290.858C424.578 291.271 424.147 291.271 423.643 290.849L405.645 275.961C405.159 275.557 405.095 275.154 405.434 274.741L408.122 271.512ZM418.359 276.053C418.231 276.31 418.056 276.447 417.836 276.466C417.616 276.484 417.387 276.392 417.148 276.19L415.332 274.686C415.066 274.466 414.938 274.255 414.938 274.062C414.938 273.87 414.974 273.649 415.048 273.411C415.286 272.677 415.58 271.925 415.947 271.145C416.304 270.365 416.726 269.567 417.203 268.733L413.718 265.852C413.231 265.449 413.158 265.054 413.479 264.66L416.259 261.303C416.58 260.908 416.983 260.917 417.469 261.312L420.735 264.009L422.808 261.504C423.147 261.092 423.588 261.11 424.12 261.55L426.514 263.532C427 263.935 427.074 264.339 426.725 264.752L422.725 269.586C421.827 270.668 421.029 271.696 420.331 272.668C419.625 273.649 418.965 274.769 418.359 276.053ZM430.871 274.301C430.532 274.714 430.101 274.714 429.596 274.292L429.559 274.264C429 273.805 428.477 273.503 427.972 273.374C427.468 273.246 427.046 273.383 426.707 273.796C426.367 274.209 426.303 274.659 426.505 275.145C426.716 275.631 427.092 276.108 427.651 276.566C428.11 276.943 428.505 277.19 428.844 277.3C429.183 277.41 429.495 277.429 429.789 277.337C430.082 277.254 430.357 277.08 430.596 276.842C430.844 276.594 431.11 276.3 431.403 275.943L434.916 271.696C435.256 271.283 435.669 271.274 436.155 271.677L438.081 273.264C438.586 273.686 438.668 274.099 438.329 274.512L434.935 278.612C433.1 280.832 431.311 282.107 429.569 282.437C427.826 282.767 426.046 282.18 424.239 280.685C423.322 279.924 422.634 279.135 422.175 278.309C421.716 277.484 421.469 276.658 421.423 275.823C421.377 274.989 421.524 274.163 421.854 273.347C422.184 272.53 422.67 271.732 423.303 270.971C423.936 270.21 424.624 269.586 425.358 269.118C426.092 268.65 426.872 268.357 427.697 268.247C428.523 268.136 429.385 268.228 430.284 268.522C431.183 268.815 432.091 269.347 433.008 270.109L433.045 270.136C433.55 270.558 433.641 270.962 433.32 271.356L430.871 274.301Z" fill="black"/>
<path d="M373.696 299.233C373.971 298.774 374.375 298.701 374.916 299.022L387.565 306.489L388.941 304.15C389.189 303.737 389.583 303.682 390.125 304.003L395.518 307.186C396.087 307.525 396.243 307.901 396.005 308.314L394.629 310.653L406.352 317.57C406.92 317.909 407.067 318.304 406.792 318.762L404.013 323.477C403.737 323.936 403.325 324 402.756 323.67L371.329 305.122C370.788 304.801 370.65 304.416 370.926 303.948L373.696 299.233ZM391.592 282.162C392.134 282.483 392.271 282.868 391.996 283.336L391.372 284.391L409.049 294.821C409.296 294.968 409.452 295.142 409.516 295.362C409.59 295.582 409.562 295.793 409.452 295.986L407.003 300.141C406.755 300.554 406.361 300.609 405.82 300.288L388.134 289.849L386.951 291.858L404.187 303.049C404.435 303.196 404.59 303.37 404.655 303.59C404.728 303.81 404.701 304.021 404.59 304.214L402.178 308.296C401.93 308.709 401.536 308.764 400.995 308.443L383.814 297.206L382.566 299.316C382.291 299.774 381.887 299.848 381.346 299.526L376.971 296.94C376.429 296.619 376.292 296.233 376.567 295.766L385.997 279.786C386.272 279.328 386.676 279.254 387.217 279.575L391.592 282.162ZM417.203 297.408C417.745 297.729 417.882 298.114 417.607 298.582L408.333 314.295C408.058 314.754 407.654 314.827 407.113 314.506L402.738 311.919C402.196 311.598 402.059 311.213 402.334 310.745L411.608 295.032C411.883 294.573 412.287 294.5 412.828 294.821L417.203 297.408Z" fill="black"/>
<path d="M366.339 313.515C366.504 313.038 366.889 312.901 367.477 313.103L374.898 315.708C375.521 315.928 375.741 316.276 375.576 316.753L368.678 336.384L370.54 337.044L377.438 317.414C377.613 316.937 377.989 316.799 378.576 317.001L380.75 317.762C381.346 317.973 381.557 318.313 381.383 318.799L372.237 344.814C372.072 345.291 371.687 345.428 371.1 345.226L363.771 342.649C363.174 342.438 362.963 342.098 363.138 341.612L370.027 322.019L368.119 321.349L361.184 341.089C361.019 341.566 360.634 341.704 360.046 341.502L357.781 340.704C357.184 340.493 356.973 340.154 357.148 339.668L366.339 313.515ZM383.612 319.056C383.786 318.551 384.19 318.405 384.814 318.625L387.391 319.533C387.987 319.744 388.189 320.102 388.015 320.606L378.539 347.566C378.365 348.07 377.98 348.217 377.383 348.015L374.806 347.107C374.182 346.887 373.962 346.529 374.136 346.024L383.612 319.056ZM389.602 321.89C389.767 321.413 390.152 321.276 390.739 321.478L401.894 325.394C402.49 325.605 402.701 325.945 402.527 326.431L400.646 331.77C400.472 332.274 400.087 332.421 399.49 332.219L392.024 329.596L387.29 343.052L389.244 343.74L393.326 332.118C393.5 331.614 393.904 331.467 394.528 331.687L397.105 332.595C397.702 332.806 397.903 333.164 397.729 333.668L393.647 345.291L394.757 345.685C395.353 345.896 395.555 346.254 395.381 346.758L393.519 352.06C393.344 352.565 392.959 352.712 392.363 352.51L381.209 348.593C380.612 348.382 380.41 348.024 380.585 347.52L389.602 321.89Z" fill="black"/>
<path d="M356.405 349.464L376.292 351.657C376.916 351.73 377.2 352.024 377.136 352.556L375.962 363.242L384.061 364.132L385.245 353.372C385.3 352.84 385.648 352.611 386.272 352.675L391.097 353.207C391.721 353.271 392.005 353.574 391.941 354.106L390.07 371.104C390.015 371.636 389.666 371.865 389.042 371.801L369.669 369.663C369.045 369.59 368.761 369.296 368.816 368.764L369.999 358.041L361.386 357.096L360.936 361.16C360.707 363.261 360.679 365.343 360.863 367.407C361.046 369.471 361.514 371.269 362.257 372.81L389.492 375.809C390.143 375.883 390.446 376.185 390.391 376.717L389.795 382.157C389.739 382.689 389.382 382.918 388.721 382.845L352.451 378.846C351.827 378.772 351.543 378.479 351.607 377.947L352.203 372.507C352.259 371.975 352.607 371.746 353.231 371.81L356.13 372.131C355.304 370.755 354.726 368.985 354.396 366.82C354.066 364.655 354.047 362.261 354.332 359.656L355.377 350.152C355.432 349.629 355.772 349.4 356.405 349.464Z" fill="black"/>
<path d="M352.589 400.255C352.157 396.788 352.469 394.082 353.524 392.137C354.579 390.193 356.524 389.046 359.358 388.697C362.257 388.34 364.44 388.973 365.908 390.596C367.375 392.229 368.33 394.77 368.761 398.237L369.66 405.447C370.091 408.915 369.788 411.584 368.761 413.464C367.724 415.336 365.761 416.455 362.872 416.822C360.037 417.17 357.872 416.574 356.386 415.006C354.9 413.446 353.937 410.933 353.506 407.465L352.589 400.255ZM359.23 406.759C359.358 407.823 359.643 408.529 360.065 408.869C360.487 409.217 361.101 409.337 361.918 409.236C362.725 409.135 363.294 408.869 363.624 408.429C363.945 407.988 364.046 407.236 363.908 406.172L363.009 398.962C362.881 397.898 362.615 397.164 362.211 396.751C361.807 396.339 361.175 396.183 360.303 396.293C359.395 396.403 358.808 396.705 358.542 397.21C358.276 397.705 358.202 398.485 358.331 399.549L359.23 406.759ZM371.164 393.559C370.614 393.449 370.311 393.165 370.256 392.706L369.485 386.56C369.449 386.257 369.531 386.037 369.733 385.89C369.935 385.753 370.219 385.716 370.577 385.808L389.556 389.963C390.07 390.055 390.354 390.312 390.409 390.743L391.216 397.192C391.253 397.467 391.17 397.678 390.987 397.815C390.803 397.953 390.528 397.98 390.17 397.898L371.164 393.559ZM371.366 399.008C371.311 398.522 371.522 398.201 372.008 398.045L375.668 396.201C376.062 396.045 376.466 396.008 376.888 396.091L385.529 398.063C385.951 398.136 386.171 398.283 386.198 398.503C386.226 398.714 386.043 398.916 385.657 399.09L373.255 405.411C372.567 405.75 372.191 405.612 372.109 404.979L371.366 399.008ZM371.87 409.19C371.806 408.658 372.081 408.355 372.705 408.273L391.491 405.933C392.143 405.851 392.51 406.08 392.574 406.612L393.253 412.043C393.317 412.575 393.023 412.877 392.372 412.96L373.586 415.299C372.962 415.372 372.613 415.152 372.549 414.62L371.87 409.19Z" fill="black"/>
<path d="M469.049 264.522C478.222 274.071 490.569 280.41 503.521 282.942C507.337 283.685 511.218 284.116 515.098 284.208C516.868 284.253 516.868 281.502 515.098 281.456C502.246 281.135 489.514 277.007 479.02 269.54C476.131 267.476 473.443 265.137 470.985 262.578C469.765 261.293 467.82 263.238 469.049 264.522Z" fill="black"/>
<path d="M542.039 334.21C545.58 334.21 545.589 328.706 542.039 328.706C538.498 328.706 538.489 334.21 542.039 334.21Z" fill="black"/>
<path d="M544.011 356.243C547.469 379.323 537.957 403.007 519.831 417.601C517.987 419.078 520.602 421.665 522.427 420.197C541.644 404.723 551.184 379.607 547.543 355.271C547.203 352.941 543.672 353.922 544.011 356.243Z" fill="black"/>
<path d="M466.059 138.568C468.077 153.492 471.177 168.27 475.351 182.745C479.479 197.073 484.634 211.108 490.771 224.702C494.266 232.444 498.082 240.049 502.2 247.479C502.632 248.249 503.815 247.561 503.393 246.782C496.119 233.655 489.799 220.015 484.506 205.98C479.24 192.019 474.993 177.672 471.792 163.096C469.985 154.859 468.517 146.557 467.389 138.21C467.27 137.329 465.949 137.705 466.059 138.568Z" fill="black"/>
<path d="M490.156 219.07C490.542 206.962 492.486 194.945 495.935 183.332C496.192 182.479 494.862 182.121 494.605 182.965C491.129 194.697 489.166 206.842 488.78 219.07C488.753 219.951 490.129 219.951 490.156 219.07Z" fill="black"/>
<path d="M731.654 551.72C801.911 551.72 858.865 494.766 858.865 424.509C858.865 354.252 801.911 297.297 731.654 297.297C661.397 297.297 604.443 354.252 604.443 424.509C604.443 494.766 661.397 551.72 731.654 551.72Z" fill="#FFBC00" stroke="black" stroke-miterlimit="10"/>
<path d="M837.153 290.078C811.872 296.472 792.673 314.607 783.849 337.173C802.341 352.831 827.861 359.646 853.142 353.244C878.422 346.85 897.621 328.715 906.446 306.149C887.953 290.491 862.443 283.685 837.153 290.078Z" fill="white" stroke="black" stroke-miterlimit="10"/>
<path d="M690.779 521.807C690.394 521.779 690.155 521.651 690.064 521.412C689.963 521.174 689.954 520.89 690.045 520.559L691.696 514.111C691.779 513.78 691.926 513.579 692.137 513.514C692.348 513.441 692.614 513.395 692.935 513.377C697.723 513.092 701.75 511.46 704.988 508.488C708.235 505.516 710.629 500.984 712.189 494.902L698.062 491.288C697.402 491.114 697.154 490.701 697.329 490.041L698.769 484.436C698.934 483.776 699.356 483.528 700.016 483.702L723.068 489.61C723.765 489.793 724.022 490.224 723.839 490.921L722.444 496.37C721.325 500.736 719.775 504.543 717.794 507.809C715.812 511.074 713.473 513.78 710.767 515.945C708.061 518.11 705.025 519.679 701.658 520.66C698.301 521.642 694.668 522.027 690.779 521.807ZM719.206 530.668C718.509 530.494 718.252 530.072 718.417 529.411L728.26 490.986C728.434 490.288 728.875 490.032 729.572 490.215L736.663 492.031C737.36 492.206 737.616 492.646 737.433 493.343L727.59 531.76C727.416 532.42 726.985 532.659 726.297 532.484L719.206 530.668Z" fill="black"/>
<path d="M735.874 494.985C735.599 494.361 735.791 493.903 736.452 493.618L748.422 488.408L747.276 485.784C747.001 485.161 747.184 484.711 747.808 484.436L755.265 481.189C755.889 480.914 756.339 481.097 756.614 481.721L757.761 484.353L769.254 479.354C769.915 479.07 770.373 479.235 770.649 479.868L772.749 484.702C773.024 485.326 772.832 485.784 772.171 486.069L762.32 490.353L755.174 512.661C755.1 512.918 755.009 513.166 754.908 513.395C754.807 513.625 754.614 513.799 754.33 513.927L745.927 517.578C745.551 517.743 745.221 517.743 744.928 517.596C744.634 517.441 744.561 517.174 744.68 516.78L751.33 495.132L739.369 500.342C738.708 500.626 738.25 500.461 737.974 499.828L735.874 494.985ZM750.743 529.54C750.083 529.824 749.615 529.641 749.331 528.98L747.147 523.963C746.872 523.339 747.065 522.88 747.725 522.596L760.723 516.936L758.76 512.432C758.485 511.808 758.669 511.359 759.292 511.084L766.521 507.937C767.145 507.662 767.594 507.846 767.869 508.469L769.832 512.973L782.785 507.341C783.445 507.057 783.904 507.222 784.179 507.855L786.362 512.872C786.646 513.533 786.463 514.001 785.802 514.285L750.743 529.54ZM761.054 502.562C760.769 502.424 760.604 502.232 760.549 501.975C760.494 501.718 760.494 501.452 760.558 501.158L762.439 495.205C762.668 494.545 763.099 494.38 763.723 494.701L780.776 501.067C781.152 501.241 781.289 501.479 781.207 501.8C781.124 502.122 780.886 502.36 780.51 502.516L771.878 506.277C771.594 506.396 771.337 506.424 771.098 506.341C770.86 506.259 770.621 506.158 770.383 506.038L761.054 502.562Z" fill="black"/>
<path d="M807.946 469.172C810.184 471.016 811.799 472.851 812.799 474.667C813.798 476.483 814.303 478.299 814.321 480.097C814.34 481.904 813.918 483.702 813.055 485.491C812.202 487.28 811.037 489.059 809.588 490.82C808.139 492.582 806.616 494.049 805.029 495.224C803.442 496.398 801.763 497.141 799.993 497.471C798.223 497.801 796.342 497.645 794.37 497.012C792.398 496.379 790.288 495.141 788.05 493.297L768.86 477.474C768.337 477.043 768.282 476.556 768.722 476.034L773.997 469.64C774.455 469.09 774.942 469.025 775.474 469.457L794.939 485.509C796.571 486.858 798.021 487.527 799.278 487.527C800.534 487.527 801.763 486.803 802.956 485.353C804.148 483.904 804.635 482.556 804.405 481.308C804.176 480.061 803.24 478.758 801.617 477.419L782.152 461.366C781.629 460.935 781.583 460.449 782.014 459.926L787.288 453.532C787.747 452.982 788.233 452.918 788.765 453.358L807.946 469.172Z" fill="black"/>
<path d="M790.022 451.321C789.618 451.257 789.362 451.101 789.261 450.844C789.16 450.597 789.224 450.294 789.453 449.955L794.829 441.855C795.168 441.341 795.636 441.139 796.223 441.24L839.547 444.992C839.951 445.056 840.208 445.212 840.308 445.469C840.409 445.717 840.345 446.019 840.116 446.359L834.74 454.459C834.401 454.972 833.933 455.174 833.355 455.073L790.022 451.321ZM800.975 434.076C800.654 433.572 800.663 433.067 801.002 432.553L806.46 424.325C806.689 423.986 806.937 423.812 807.203 423.802C807.469 423.793 807.717 423.968 807.937 424.316L816.431 440.213C816.633 440.589 816.66 440.883 816.514 441.103C816.376 441.314 816.092 441.405 815.661 441.369L805.891 440.534C805.341 440.497 804.937 440.25 804.671 439.782L800.975 434.076ZM828.319 462.659C828.64 463.164 828.631 463.668 828.292 464.182L822.861 472.374C822.632 472.713 822.384 472.887 822.118 472.896C821.843 472.896 821.605 472.731 821.385 472.383L812.945 456.036C812.569 455.257 812.817 454.871 813.707 454.881L823.586 455.725C823.88 455.715 824.127 455.789 824.329 455.945C824.531 456.101 824.696 456.275 824.806 456.477L828.319 462.659Z" fill="black"/>
<path d="M649.913 377.304C651.818 377.304 653.362 375.76 653.362 373.855C653.362 371.951 651.818 370.406 649.913 370.406C648.009 370.406 646.464 371.951 646.464 373.855C646.464 375.76 648.009 377.304 649.913 377.304Z" fill="#FF9700"/>
<path d="M658.187 417.308C660.092 417.308 661.636 415.764 661.636 413.859C661.636 411.954 660.092 410.41 658.187 410.41C656.282 410.41 654.738 411.954 654.738 413.859C654.738 415.764 656.282 417.308 658.187 417.308Z" fill="#FF9700"/>
<path d="M793.352 377.304C795.257 377.304 796.801 375.76 796.801 373.855C796.801 371.951 795.257 370.406 793.352 370.406C791.447 370.406 789.903 371.951 789.903 373.855C789.903 375.76 791.447 377.304 793.352 377.304Z" fill="#FF9700"/>
<path d="M736.809 340.071C738.714 340.071 740.258 338.527 740.258 336.622C740.258 334.717 738.714 333.173 736.809 333.173C734.904 333.173 733.36 334.717 733.36 336.622C733.36 338.527 734.904 340.071 736.809 340.071Z" fill="#FF9700"/>
<path d="M688.532 347.648C691.576 347.648 694.045 345.18 694.045 342.135C694.045 339.09 691.576 336.622 688.532 336.622C685.487 336.622 683.019 339.09 683.019 342.135C683.019 345.18 685.487 347.648 688.532 347.648Z" fill="#FF9700"/>
<path d="M683.019 391.789C686.064 391.789 688.532 389.32 688.532 386.276C688.532 383.231 686.064 380.763 683.019 380.763C679.974 380.763 677.506 383.231 677.506 386.276C677.506 389.32 679.974 391.789 683.019 391.789Z" fill="#FF9700"/>
<path d="M728.526 373.855C731.571 373.855 734.039 371.387 734.039 368.342C734.039 365.298 731.571 362.829 728.526 362.829C725.481 362.829 723.013 365.298 723.013 368.342C723.013 371.387 725.481 373.855 728.526 373.855Z" fill="#FF9700"/>
<path d="M908.519 306.278C887.889 308.534 867.314 311.507 847.087 316.176C841.299 317.515 835.548 318.983 829.833 320.588C828.98 320.826 829.347 322.156 830.2 321.918C850.142 316.313 870.524 312.488 891.044 309.754C896.86 308.984 902.694 308.287 908.528 307.654C909.39 307.562 909.399 306.186 908.519 306.278Z" fill="black"/>
<path d="M846.234 318.561C856.811 322.055 867.525 325.101 878.358 327.706C879.22 327.917 879.587 326.587 878.725 326.376C867.892 323.771 857.177 320.716 846.601 317.23C845.757 316.955 845.399 318.276 846.234 318.561Z" fill="black"/>
<path d="M750.229 567.947C737.121 566.544 724.774 571.341 716.133 579.982C722.72 590.256 733.736 597.576 746.854 598.979C759.971 600.383 772.309 595.585 780.95 586.944C774.364 576.671 763.338 569.36 750.229 567.947Z" fill="white" stroke="black" stroke-width="0.5" stroke-miterlimit="10"/>
<path d="M722.426 544.501C725.985 557.15 723.261 570.075 716.133 579.991C704.878 575.221 695.815 565.59 692.265 552.94C688.706 540.29 691.43 527.366 698.558 517.45C709.813 522.22 718.876 531.842 722.426 544.501Z" fill="white" stroke="black" stroke-width="0.5" stroke-miterlimit="10"/>
<path d="M716.84 581.083L715.198 579.698C714.785 579.349 714.721 578.753 715.042 578.322C718.583 573.644 737.571 548.812 745.175 544.492C745.542 544.281 746.001 544.327 746.331 544.602L751.697 549.133C752.248 549.592 752.156 550.463 751.514 550.794C747.533 552.857 735.149 560.361 718.271 580.945C717.922 581.386 717.271 581.45 716.84 581.083Z" fill="white" stroke="black" stroke-width="0.5" stroke-miterlimit="10"/>
<path d="M763.356 629.672C765.264 598.457 738.332 589.146 720.656 574.24C702.979 559.324 689.321 534.401 658.738 541.419C622.55 549.729 614.175 598.42 612.121 630.544C610.084 662.356 598.884 685.591 614.689 698.928C630.494 712.266 651.647 697.424 682.808 690.177C714.271 682.857 761.099 666.603 763.356 629.672Z" fill="#F73E2B" stroke="black" stroke-miterlimit="10"/>
<path d="M651.069 613.298C651.262 613.464 651.271 613.656 651.097 613.858L649.858 615.307C649.684 615.509 649.492 615.527 649.299 615.362L638.392 606.043C638.19 605.868 638.172 605.676 638.346 605.474L640.667 602.759C640.841 602.557 641.034 602.539 641.236 602.713L643.566 604.703C643.786 604.887 643.804 605.079 643.63 605.29L642.814 606.244L651.069 613.298ZM650.262 605.079C649.941 605.446 649.574 605.703 649.143 605.841C648.721 605.978 648.262 606.006 647.776 605.942C647.29 605.878 646.785 605.703 646.263 605.437C645.74 605.162 645.217 604.813 644.703 604.373C644.19 603.933 643.758 603.474 643.41 602.997C643.061 602.52 642.814 602.043 642.676 601.575C642.538 601.108 642.492 600.649 642.566 600.209C642.63 599.768 642.823 599.356 643.144 598.989L643.419 598.668C643.74 598.301 644.107 598.044 644.529 597.906C644.951 597.769 645.409 597.732 645.896 597.805C646.391 597.879 646.896 598.053 647.418 598.319C647.941 598.594 648.464 598.943 648.978 599.383C649.491 599.823 649.923 600.282 650.271 600.759C650.62 601.236 650.867 601.713 651.005 602.181C651.152 602.649 651.189 603.107 651.115 603.548C651.051 603.988 650.858 604.401 650.537 604.768L650.262 605.079ZM647.006 593.815C647.18 593.613 647.382 593.595 647.593 593.787L649.758 595.631L650.711 594.521C650.895 594.301 651.097 594.292 651.317 594.475L653.445 596.301C653.665 596.484 653.674 596.686 653.491 596.906L652.537 598.016L654.61 599.787C654.839 599.979 654.858 600.181 654.683 600.383L653.445 601.832C653.271 602.034 653.069 602.043 652.84 601.851L645.831 595.861C645.611 595.677 645.593 595.485 645.767 595.274L647.006 593.815ZM647.675 602.575C647.877 602.337 647.987 602.098 648.005 601.841C648.024 601.594 647.868 601.328 647.538 601.043C647.198 600.75 646.905 600.64 646.657 600.704C646.409 600.768 646.18 600.915 645.978 601.153C645.776 601.392 645.666 601.64 645.648 601.896C645.63 602.153 645.786 602.428 646.116 602.713C646.455 603.006 646.749 603.116 646.996 603.043C647.244 602.96 647.473 602.805 647.675 602.575ZM649.913 609.831C649.693 609.648 649.675 609.446 649.849 609.244L650.996 607.896L650.069 607.107C649.868 606.932 649.849 606.74 650.024 606.538L651.308 605.043C651.491 604.823 651.684 604.804 651.895 604.979L652.821 605.767L654.005 604.382L653.161 603.658C652.95 603.483 652.941 603.291 653.115 603.08L654.399 601.585C654.583 601.364 654.775 601.346 654.986 601.52L655.83 602.245L656.949 600.933C657.133 600.713 657.334 600.704 657.555 600.887L659.765 602.777C659.985 602.96 659.995 603.162 659.811 603.382L652.711 611.693C652.537 611.895 652.335 611.913 652.124 611.721L649.913 609.831Z" fill="black"/>
<path d="M661.765 609.785C661.958 609.95 661.967 610.134 661.792 610.345L655.949 616.711L656.582 617.252C657.123 617.72 657.72 618.142 658.362 618.518C659.004 618.894 659.609 619.151 660.187 619.288L667.801 610.381C667.984 610.161 668.177 610.143 668.388 610.317L670.167 611.831C670.369 612.005 670.388 612.207 670.195 612.418L666.406 616.848L667.241 617.564L671.112 613.042C671.296 612.821 671.488 612.803 671.699 612.977L673.488 614.509C673.69 614.684 673.708 614.885 673.516 615.096L663.288 627.067C663.113 627.269 662.921 627.287 662.719 627.113L660.93 625.581C660.728 625.407 660.71 625.214 660.884 625.012L665.003 620.197L664.168 619.481L660.178 624.141C660.004 624.343 659.811 624.361 659.6 624.187L657.821 622.673C657.619 622.499 657.6 622.306 657.775 622.105L658.252 621.545C657.756 621.462 657.188 621.242 656.555 620.903C655.922 620.554 655.28 620.105 654.619 619.545L651.61 616.968C651.409 616.793 651.39 616.592 651.583 616.381L659.178 608.116C659.261 608.024 659.352 607.978 659.463 607.969C659.573 607.969 659.673 608.006 659.765 608.079L661.765 609.785ZM661.077 604.969C661.251 604.768 661.453 604.749 661.664 604.933L666.764 609.29C666.966 609.464 666.984 609.657 666.81 609.868L665.397 611.519C665.214 611.739 665.021 611.757 664.81 611.583L659.71 607.226C659.49 607.042 659.481 606.841 659.664 606.62L661.077 604.969Z" fill="black"/>
<path d="M678.221 636.561C678.432 636.736 678.442 636.928 678.267 637.139L676.983 638.634C676.809 638.836 676.616 638.854 676.414 638.68L665.214 629.113C665.012 628.938 664.994 628.746 665.168 628.535L667.452 625.865C667.627 625.664 667.819 625.645 668.021 625.82L670.388 627.838C670.608 628.021 670.626 628.214 670.452 628.425L669.709 629.287L678.221 636.561ZM676.075 631.039L675.35 631.892C675.176 632.094 674.983 632.112 674.772 631.938L672.397 629.902C672.195 629.727 672.176 629.535 672.351 629.324L673.075 628.471L668.645 624.682C668.425 624.499 668.415 624.297 668.599 624.077L669.956 622.49C670.131 622.288 670.333 622.27 670.544 622.462L682.083 632.323C682.303 632.507 682.322 632.709 682.147 632.91L680.79 634.497C680.606 634.717 680.405 634.727 680.184 634.543L676.075 631.039ZM671.47 621.949C671.268 621.774 671.25 621.582 671.424 621.371L673.231 619.252C673.406 619.05 673.598 619.032 673.8 619.206L676.084 621.16C676.304 621.343 676.323 621.536 676.148 621.747L675.736 622.224L681.496 627.15L682.569 625.902L674.057 618.628C673.837 618.444 673.828 618.243 674.011 618.023L675.121 616.729C675.295 616.527 675.497 616.509 675.708 616.692L686.816 626.187C687.037 626.37 687.055 626.563 686.881 626.774L683.028 631.287C682.854 631.489 682.652 631.507 682.441 631.314L671.47 621.949Z" fill="black"/>
<path d="M678.579 640.047C678.359 639.863 678.35 639.653 678.542 639.432L679.873 637.873C680.047 637.671 680.249 637.653 680.46 637.845L683.101 640.102L684.074 638.955C683.432 638.176 683.065 637.396 682.945 636.598C682.826 635.809 683.092 635.038 683.725 634.295L683.872 634.121C684.239 633.69 684.661 633.397 685.129 633.231C685.596 633.066 686.092 633.03 686.615 633.103C687.138 633.176 687.679 633.351 688.238 633.635C688.798 633.919 689.348 634.295 689.899 634.754C690.431 635.213 690.88 635.699 691.247 636.203C691.614 636.717 691.871 637.222 692.027 637.726C692.183 638.231 692.219 638.735 692.137 639.221C692.054 639.717 691.834 640.175 691.458 640.606L691.311 640.781C690.678 641.524 689.963 641.891 689.165 641.9C688.367 641.909 687.541 641.652 686.688 641.157L685.697 642.313C686.367 642.863 687.027 643.368 687.688 643.817C688.348 644.267 689 644.606 689.66 644.844L697.54 635.626C697.723 635.405 697.925 635.396 698.145 635.58L700.356 637.469C700.576 637.653 700.585 637.855 700.402 638.075L696.76 642.34L697.576 643.037C697.778 643.212 697.797 643.413 697.604 643.624L695.852 645.679C695.678 645.881 695.485 645.899 695.283 645.725L694.467 645.028L690.174 650.045C690 650.247 689.807 650.266 689.587 650.073L687.376 648.183C687.156 648 687.138 647.798 687.312 647.596L687.981 646.807C687.266 646.606 686.486 646.257 685.642 645.762C684.798 645.266 683.927 644.633 683.019 643.854L678.579 640.047ZM686.688 638.533C687.018 638.818 687.358 638.946 687.715 638.919C688.073 638.891 688.394 638.717 688.679 638.387C688.963 638.056 689.082 637.717 689.064 637.359C689.036 637.002 688.853 636.68 688.514 636.396C688.174 636.103 687.826 635.974 687.477 636.002C687.119 636.029 686.807 636.203 686.523 636.534C686.239 636.864 686.119 637.203 686.147 637.561C686.174 637.937 686.358 638.258 686.688 638.533ZM687.981 628.709C688.156 628.507 688.358 628.489 688.569 628.682L691.036 630.791L691.761 629.938C691.944 629.718 692.146 629.709 692.366 629.892L694.494 631.718C694.714 631.901 694.724 632.103 694.54 632.323L693.815 633.176L696.035 635.075C696.256 635.259 696.274 635.46 696.1 635.662L694.806 637.176C694.614 637.405 694.403 637.423 694.192 637.24L686.716 630.856C686.495 630.672 686.486 630.461 686.679 630.241L687.981 628.709Z" fill="black"/>
<path d="M705.3 660.108C705.502 660.283 705.52 660.484 705.328 660.695L704.254 661.943C704.08 662.145 703.887 662.163 703.686 661.989L692.485 652.421C692.284 652.247 692.265 652.054 692.439 651.843L694.329 649.633C694.503 649.431 694.696 649.413 694.907 649.587L697.274 651.605C697.494 651.788 697.512 651.981 697.338 652.192L696.797 652.825L705.3 660.108ZM704.869 652.256L704.126 653.118L708.391 656.76C708.611 656.944 708.63 657.136 708.456 657.347L707.465 658.503C707.281 658.723 707.08 658.732 706.859 658.549L695.329 648.697C695.109 648.514 695.1 648.312 695.283 648.092L696.274 646.936C696.448 646.734 696.65 646.716 696.861 646.908L701.136 650.568L701.878 649.706L697.879 646.285C697.677 646.11 697.659 645.918 697.833 645.707L700.512 642.57C700.686 642.368 700.879 642.349 701.08 642.524L709.373 649.614L710.061 648.816L701.732 641.698C701.512 641.515 701.512 641.304 701.713 641.065L702.502 640.139C702.677 639.937 702.878 639.919 703.089 640.111L714.024 649.458C714.235 649.642 714.262 649.835 714.088 650.045L711.446 653.137C711.272 653.339 711.07 653.357 710.859 653.174L702.566 646.083L701.878 646.881L710.309 654.091C710.529 654.274 710.538 654.476 710.354 654.696L709.492 655.696C709.318 655.898 709.116 655.916 708.905 655.733L704.869 652.256Z" fill="black"/>
<path d="M662.572 566.131C664.343 566.131 664.343 563.379 662.572 563.379C660.793 563.379 660.793 566.131 662.572 566.131Z" fill="black"/>
<path d="M673.25 589.063C675.02 589.063 675.02 586.311 673.25 586.311C671.479 586.311 671.479 589.063 673.25 589.063Z" fill="black"/>
<path d="M699.842 594.796C701.612 594.796 701.612 592.045 699.842 592.045C698.072 592.045 698.062 594.796 699.842 594.796Z" fill="black"/>
<path d="M652.922 652.403C654.693 652.403 654.693 649.651 652.922 649.651C651.152 649.651 651.152 652.403 652.922 652.403Z" fill="black"/>
<path d="M657.619 676.904C659.389 676.904 659.389 674.152 657.619 674.152C655.848 674.152 655.839 676.904 657.619 676.904Z" fill="black"/>
<path d="M631.421 681.592C633.191 681.592 633.191 678.84 631.421 678.84C629.65 678.84 629.65 681.592 631.421 681.592Z" fill="black"/>
<path d="M187.594 609.492C184.686 607.813 181.622 606.309 178.412 605.006C142.371 590.357 100.496 606.547 83.7095 641.643C65.5378 679.656 82.5721 724.842 120.869 741.574C123.346 742.656 125.85 743.592 128.373 744.381C142.453 748.802 154.443 758.204 162.726 770.432C173.706 786.65 189.63 799.822 209.527 807.399C258.052 825.883 313.319 803.088 334.811 755.81C357.735 705.386 334.894 646.129 284.314 624.031C266.555 616.27 247.76 614.142 229.918 616.858C215.351 619.059 200.363 616.858 187.594 609.492Z" fill="#D7ED00" stroke="black" stroke-width="0.5" stroke-miterlimit="10"/>
<path d="M242.118 653.32C241.88 655.293 241.403 656.907 240.705 658.164C239.999 659.42 239.119 660.384 238.045 661.062C236.972 661.732 235.743 662.154 234.367 662.319C232.991 662.475 231.514 662.466 229.936 662.273C228.313 662.071 226.854 661.723 225.552 661.227C224.249 660.723 223.167 660.007 222.286 659.072C221.415 658.136 220.791 656.953 220.424 655.531C220.057 654.109 220.002 652.376 220.259 650.33L221.25 642.184C221.497 640.139 221.974 638.469 222.671 637.167C223.369 635.864 224.258 634.855 225.332 634.158C226.405 633.461 227.634 633.02 229.019 632.855C230.395 632.681 231.899 632.699 233.523 632.892C235.147 633.094 236.605 633.442 237.899 633.956C239.192 634.47 240.274 635.185 241.146 636.112C242.008 637.038 242.632 638.185 242.999 639.561C243.366 640.937 243.439 642.57 243.201 644.468L243.164 644.789C243.081 645.266 242.815 645.477 242.366 645.422L236.614 644.716C236.119 644.652 235.908 644.377 235.963 643.872L236.027 643.331C236.174 642.129 236.009 641.139 235.55 640.359C235.082 639.579 234.156 639.111 232.771 638.937C231.386 638.772 230.358 638.992 229.698 639.607C229.037 640.221 228.615 641.276 228.432 642.762L227.368 651.449C227.184 652.944 227.34 654.063 227.836 654.816C228.331 655.568 229.267 656.036 230.652 656.201C232.037 656.375 233.046 656.146 233.688 655.531C234.321 654.916 234.734 653.862 234.917 652.366L234.991 651.788C235.055 651.284 235.33 651.064 235.825 651.119L241.568 651.816C242.036 651.871 242.247 652.155 242.182 652.66L242.118 653.32Z" fill="black"/>
<path d="M247.897 665.511C247.594 665.805 247.246 665.869 246.851 665.704L240.55 663.08C240.284 662.97 240.137 662.823 240.1 662.64C240.063 662.457 240.146 662.264 240.357 662.062L250.475 653.916C250.961 653.54 251.254 653.669 251.365 654.283L252.043 661.255C252.089 661.457 252.071 661.64 251.988 661.805C251.906 661.97 251.805 662.108 251.686 662.209L247.897 665.511ZM250.787 637.368C250.777 637.075 250.851 636.882 251.016 636.772C251.172 636.671 251.383 636.671 251.649 636.781L257.877 639.377C258.272 639.542 258.474 639.836 258.474 640.258L261.418 670.832C261.427 671.125 261.345 671.318 261.189 671.428C261.033 671.529 260.822 671.529 260.556 671.419L254.327 668.823C253.933 668.658 253.731 668.364 253.731 667.942L250.787 637.368ZM263.987 642.542C264.289 642.248 264.638 642.184 265.032 642.349L271.362 644.982C271.628 645.092 271.775 645.239 271.811 645.422C271.848 645.606 271.765 645.798 271.554 646L261.758 654.118C261.519 654.311 261.326 654.375 261.161 654.302C260.996 654.238 260.904 654.045 260.877 653.751L260.198 646.862C260.152 646.477 260.272 646.156 260.556 645.908L263.987 642.542Z" fill="black"/>
<path d="M280.874 658.411C281.287 658.732 281.324 659.081 280.993 659.475L270.683 671.428L273.545 673.648C275.095 674.849 276.71 675.913 278.388 676.831C280.058 677.748 281.645 678.335 283.14 678.61L296.01 662.016C296.321 661.613 296.67 661.567 297.064 661.87L301.082 664.979C301.477 665.282 301.513 665.64 301.201 666.034L283.947 688.279C283.654 688.664 283.305 688.701 282.91 688.398L278.893 685.288C278.498 684.986 278.452 684.637 278.746 684.261L280.058 682.564C278.673 682.417 277.086 681.894 275.279 681.014C273.471 680.133 271.609 678.95 269.674 677.454L262.656 672.015C262.473 671.868 262.354 671.703 262.317 671.52C262.28 671.336 262.354 671.144 262.528 670.951L275.875 655.421C276.196 655.082 276.535 655.054 276.884 655.329L280.874 658.411ZM278.746 649.495C279.04 649.11 279.388 649.073 279.783 649.376L292.698 659.393C293.093 659.696 293.138 660.044 292.845 660.42L290.442 663.521C290.139 663.906 289.799 663.943 289.405 663.64L276.489 653.632C276.095 653.33 276.049 652.981 276.343 652.605L278.746 649.495Z" fill="black"/>
<path d="M308.109 673.501C308.503 673.216 308.843 673.272 309.136 673.675L318.667 686.682C318.96 687.086 318.915 687.426 318.52 687.71L315.209 690.132C314.814 690.416 314.475 690.361 314.181 689.957L311.595 686.435L289.689 694.828C289.304 694.956 288.974 694.837 288.699 694.452L285.672 690.324C285.36 689.902 285.488 689.581 286.039 689.352L307.568 680.931L304.651 676.95C304.357 676.546 304.403 676.207 304.797 675.923L308.109 673.501ZM293.038 700.185C292.772 699.818 292.762 699.488 293.019 699.185L297.285 693.333C297.395 693.195 297.505 693.094 297.615 693.021C297.734 692.948 297.881 692.883 298.064 692.801L306.751 689.471C307.045 689.343 307.274 689.361 307.43 689.544C307.586 689.719 307.558 689.948 307.347 690.223L297.129 704.359C296.789 704.836 296.459 704.863 296.138 704.423L293.038 700.185ZM297.679 706.955C297.386 706.551 297.431 706.212 297.826 705.927L320.529 689.288C320.942 688.985 321.29 689.04 321.584 689.434L324.584 693.535C324.877 693.938 324.822 694.287 324.409 694.59L316.328 700.515L317.419 702.001C317.695 702.387 317.64 702.726 317.227 703.029L313.328 705.882C312.934 706.166 312.604 706.12 312.319 705.735L311.228 704.24L301.706 711.22C301.312 711.505 300.972 711.45 300.679 711.046L297.679 706.955Z" fill="black"/>
<path d="M313.429 738.639C313.512 739.079 313.319 739.345 312.842 739.446L308.567 740.28C308.09 740.372 307.806 740.198 307.724 739.758L302.899 715.146C302.807 714.679 302.999 714.403 303.476 714.312L311.393 712.761C311.87 712.67 312.154 712.853 312.246 713.321L313.282 718.586C313.374 719.072 313.191 719.366 312.714 719.458L309.787 720.026L313.429 738.639ZM326.281 714.541C326.372 715.027 326.17 715.321 325.675 715.422L323.859 715.779C321.529 716.238 320.529 717.302 320.859 718.972C321.199 720.687 322.529 721.32 324.859 720.87C326.143 720.623 327.005 720.091 327.455 719.274C327.904 718.467 327.978 717.293 327.675 715.752L326.271 708.569C326.17 708.083 326.363 707.79 326.84 707.698L329.977 707.083C330.473 706.982 330.775 707.184 330.867 707.67L332.243 714.679C332.922 718.164 332.803 721.008 331.876 723.2C330.95 725.402 329.051 726.778 326.17 727.337C324.767 727.613 323.51 727.631 322.391 727.392C321.272 727.154 320.291 726.695 319.456 726.035C318.621 725.365 317.933 724.512 317.401 723.466C316.86 722.421 316.465 721.228 316.199 719.88C315.943 718.559 315.86 717.311 315.97 716.146C316.071 714.981 316.383 713.936 316.906 713.009C317.429 712.083 318.162 711.303 319.107 710.661C320.052 710.019 321.226 709.56 322.63 709.285L324.409 708.936C324.914 708.835 325.207 709.019 325.299 709.487L326.281 714.541ZM315.979 732.557C315.888 732.071 316.071 731.777 316.548 731.685L334.509 728.163C335.004 728.062 335.307 728.264 335.398 728.75L336.371 733.731C336.463 734.217 336.261 734.511 335.765 734.612L317.805 738.134C317.328 738.226 317.043 738.033 316.952 737.538L315.979 732.557Z" fill="black"/>
<path d="M102.67 667.438C113.613 659.347 119.062 645.019 116.163 631.699C115.787 629.966 113.136 630.7 113.512 632.433C116.127 644.441 111.182 657.742 101.276 665.062C99.8721 666.107 101.239 668.492 102.67 667.438Z" fill="black"/>
<path d="M113.301 701.121C115.072 701.121 115.072 698.369 113.301 698.369C111.522 698.369 111.522 701.121 113.301 701.121Z" fill="black"/>
<path d="M123.511 712.349C132.519 720.898 143.857 726.833 156.029 729.309C157.754 729.658 158.497 727.007 156.763 726.658C145.04 724.273 134.143 718.641 125.456 710.404C124.172 709.184 122.227 711.129 123.511 712.349Z" fill="black"/>
<path d="M9.90332 690.269C25.6717 698.442 46.7146 698.277 65.4184 688.114C84.1129 677.95 95.6985 660.374 97.4046 642.698C81.6362 634.525 60.5934 634.69 41.8896 644.854C23.1858 655.017 11.6095 672.593 9.90332 690.269Z" fill="white" stroke="black" stroke-width="0.5" stroke-miterlimit="10"/>
<path d="M4.10616 695.278C19.737 685.912 34.6064 675.336 50.4115 666.273C55.0347 663.622 59.7404 661.099 64.5288 658.742C65.3268 658.347 64.6297 657.164 63.8316 657.549C47.4578 665.621 32.3499 675.794 17.0126 685.618C12.5178 688.499 7.98635 691.333 3.39985 694.085C2.65683 694.544 3.3448 695.736 4.10616 695.278Z" fill="black"/>
<path d="M51.9253 664.319C50.5127 670.162 48.5955 675.868 46.1738 681.371C45.8161 682.179 47.0086 682.876 47.3663 682.069C49.8339 676.455 51.8152 670.648 53.2554 664.695C53.4572 663.823 52.1271 663.456 51.9253 664.319Z" fill="black"/>
<path d="M499.247 2H439.934C322.63 2 226.662 97.9864 226.662 215.309V277.493H284.828V180.754C284.828 95.0693 354.919 24.96 440.595 24.96H498.586C584.262 24.96 654.353 95.0693 654.353 180.754V277.493H712.519V215.309C712.519 97.9864 616.551 2 499.247 2Z" stroke="white" stroke-width="3" stroke-miterlimit="10"/>
<path d="M864.204 757.076L933.534 297.619C935.093 287.262 927.159 277.924 916.775 277.915L467.866 277.319L18.9572 277.915C8.57338 277.933 0.629567 287.262 2.19815 297.619L73.7109 771.551C78.2149 801.419 103.67 823.489 133.611 823.489H467.866H802.121C832.062 823.489 857.517 801.419 862.021 771.551L864.204 757.076Z" stroke="white" stroke-width="3" stroke-miterlimit="10"/>
<path d="M16.2234 385.854H919.499" stroke="white" stroke-miterlimit="10"/>
<path d="M27.9927 478.409H906.253" stroke="white" stroke-miterlimit="10"/>
<path d="M42.3757 570.956H892.283" stroke="white" stroke-miterlimit="10"/>
<path d="M54.9609 663.511H876.587" stroke="white" stroke-miterlimit="10"/>
<path d="M70.2434 756.067H864.571" stroke="white" stroke-miterlimit="10"/>
<path d="M94.3591 278.401L172.21 821.599" stroke="white" stroke-miterlimit="10"/>
<path d="M203.344 276.667L260.372 823.269" stroke="white" stroke-miterlimit="10"/>
<path d="M305.485 277.97L348.635 822.287" stroke="white" stroke-miterlimit="10"/>
<path d="M410.066 276.888L431.999 823.269" stroke="white" stroke-miterlimit="10"/>
<path d="M839.969 278.401L762.117 821.599" stroke="white" stroke-miterlimit="10"/>
<path d="M730.975 277.539L673.956 823.269" stroke="white" stroke-miterlimit="10"/>
<path d="M628.843 277.97L585.684 822.287" stroke="white" stroke-miterlimit="10"/>
<path d="M524.261 276.888L502.319 823.269" stroke="white" stroke-miterlimit="10"/>
</svg>
