<svg width="1112" height="284" viewBox="0 0 1112 284" fill="none" xmlns="http://www.w3.org/2000/svg">
<path d="M372.927 103.22C372.927 101.79 373.677 101.07 375.177 101.07H423.937C425.437 101.07 426.187 101.79 426.187 103.22V113.63C426.187 115.06 425.437 115.78 423.937 115.78H410.727L393.547 144.67C393.257 145.17 392.907 145.58 392.477 145.91C392.047 146.23 391.507 146.39 390.867 146.39H373.997C373.137 146.39 372.547 146.16 372.227 145.69C371.907 145.23 371.927 144.6 372.277 143.81L388.497 115.78H375.177C373.677 115.78 372.927 115.06 372.927 113.63V103.22ZM406.327 188.7C396.517 188.7 389.087 187.25 384.047 184.35C378.997 181.45 376.477 176.71 376.477 170.12C376.477 163.46 378.997 158.7 384.047 155.84C389.097 152.98 396.517 151.54 406.327 151.54H425.657C435.467 151.54 442.807 152.97 447.677 155.84C452.547 158.7 454.977 163.47 454.977 170.12C454.977 176.71 452.547 181.45 447.677 184.35C442.807 187.25 435.467 188.7 425.657 188.7H406.327ZM425.657 175.49C428.667 175.49 430.717 175.06 431.837 174.2C432.947 173.34 433.497 171.98 433.497 170.12C433.497 168.26 432.937 166.9 431.837 166.04C430.727 165.18 428.667 164.75 425.657 164.75H406.327C403.317 164.75 401.167 165.14 399.887 165.93C398.597 166.72 397.957 168.11 397.957 170.12C397.957 172.2 398.597 173.61 399.887 174.36C401.177 175.11 403.327 175.49 406.327 175.49H425.657ZM408.797 145.74C408.227 145.74 407.757 145.6 407.397 145.31C407.037 145.02 406.677 144.6 406.327 144.02L402.787 138.11C402.357 137.18 402.397 136.25 402.897 135.32L411.277 121.36C411.707 120.57 412.187 120.18 412.727 120.18C413.267 120.18 413.747 120.57 414.177 121.36L427.277 143.27C427.987 144.92 427.457 145.74 425.667 145.74H408.797ZM435.857 147.68C434.357 147.68 433.607 146.97 433.607 145.53V102.25C433.607 100.75 434.357 100 435.857 100H451.217C452.717 100 453.467 100.75 453.467 102.25V115.03H458.517C459.947 115.03 460.667 115.75 460.667 117.18V129.85C460.667 131.28 459.947 132 458.517 132H453.467V145.53C453.467 146.96 452.717 147.68 451.217 147.68H435.857Z" fill="#D1270D"/>
<path d="M469.257 186.02C467.827 186.02 467.107 185.3 467.107 183.87V103.75C467.107 102.32 467.827 101.6 469.257 101.6H484.727C486.157 101.6 486.877 102.32 486.877 103.75V170.12H501.157V143.7H492.347C490.847 143.7 490.087 142.95 490.087 141.44V129.95C490.087 128.52 490.837 127.8 492.347 127.8H501.157V103.75C501.157 102.32 501.907 101.6 503.407 101.6H518.657C520.157 101.6 520.917 102.32 520.917 103.75V183.87C520.917 185.3 520.167 186.02 518.657 186.02H469.257ZM530.687 187.63C529.187 187.63 528.437 186.91 528.437 185.48V102.25C528.437 100.75 529.187 100 530.687 100H546.047C547.547 100 548.297 100.75 548.297 102.25V131.89H553.877C555.307 131.89 556.027 132.64 556.027 134.15V148.43C556.027 149.86 555.307 150.58 553.877 150.58H548.297V185.48C548.297 186.91 547.547 187.63 546.047 187.63H530.687Z" fill="#FFBC00"/>
<path d="M614.777 167.65V186.44C614.777 187.87 614.057 188.59 612.627 188.59H596.087C594.657 188.59 593.937 187.87 593.937 186.44V167.65H564.197C562.697 167.65 561.937 166.86 561.937 165.29V152.83C561.937 151.4 562.687 150.68 564.197 150.68H617.997C618.497 148.68 618.947 146.37 619.337 143.75C619.727 141.14 620.087 138.4 620.407 135.53C620.727 132.67 620.997 129.78 621.217 126.88C621.437 123.98 621.577 121.21 621.647 118.56H567.197C565.767 118.56 565.047 117.84 565.047 116.41V103.86C565.047 102.43 565.757 101.71 567.197 101.71H640.657C642.157 101.71 642.917 102.43 642.917 103.86L642.487 117.5C642.347 122.3 642.147 126.38 641.897 129.74C641.647 133.11 641.357 136.04 641.037 138.55C640.717 141.06 640.357 143.26 639.967 145.16C639.577 147.06 639.127 148.9 638.627 150.69H644.427C645.927 150.69 646.677 151.41 646.677 152.84V165.3C646.677 166.88 645.927 167.66 644.427 167.66H614.777V167.65Z" fill="#D7ED00"/>
<path d="M659.987 185.48C658.557 185.48 657.837 184.73 657.837 183.23V103.75C657.837 102.32 658.557 101.6 659.987 101.6H675.457C676.887 101.6 677.607 102.32 677.607 103.75V168.08H688.027C693.967 168.08 699.787 167.61 705.477 166.68C711.167 165.75 716.057 164.25 720.137 162.17V102.25C720.137 100.75 720.887 100 722.387 100H737.747C739.247 100 739.997 100.75 739.997 102.25V185.48C739.997 186.91 739.247 187.63 737.747 187.63H722.387C720.887 187.63 720.137 186.91 720.137 185.48V178.28C716.557 180.5 711.797 182.25 705.857 183.54C699.917 184.83 693.257 185.47 685.887 185.47H659.987V185.48Z" fill="#73B0DF"/>
<path d="M448.757 237.58V243.86C448.757 244.43 448.467 244.71 447.907 244.71H441.327C440.757 244.71 440.477 244.42 440.477 243.86V237.58H428.637C428.037 237.58 427.737 237.27 427.737 236.64V232.11C427.737 231.54 428.037 231.26 428.637 231.26H460.557C461.157 231.26 461.457 231.55 461.457 232.11V236.64C461.457 237.27 461.157 237.58 460.557 237.58H448.757ZM438.287 227.76C438.147 227.93 437.997 228.09 437.837 228.23C437.677 228.37 437.477 228.44 437.217 228.44H428.927C428.587 228.44 428.327 228.34 428.157 228.14C427.987 227.94 428.017 227.7 428.247 227.41L442.267 210.57C442.407 210.37 442.567 210.21 442.737 210.08C442.907 209.95 443.107 209.89 443.337 209.89H452.057C452.367 209.89 452.577 210.01 452.677 210.25C452.777 210.49 452.727 210.74 452.527 211L438.287 227.76ZM445.597 222.37C445.307 221.97 445.307 221.59 445.597 221.22L449.447 216.65C449.817 216.14 450.217 216.12 450.647 216.61L461.117 227.42C461.347 227.68 461.377 227.91 461.207 228.13C461.037 228.34 460.777 228.45 460.437 228.45H451.937C451.677 228.45 451.477 228.38 451.317 228.24C451.157 228.1 451.007 227.94 450.867 227.77L445.597 222.37Z" fill="white"/>
<path d="M506.707 229.04C506.137 229.1 505.857 228.81 505.857 228.19V223.7C505.857 223.19 506.137 222.9 506.707 222.85C508.077 222.74 509.407 222.49 510.707 222.1C512.007 221.72 513.177 221.22 514.237 220.6C515.287 219.99 516.177 219.29 516.887 218.51C517.597 217.73 518.057 216.88 518.257 215.97H506.077C505.507 215.97 505.227 215.69 505.227 215.12V210.76C505.227 210.19 505.507 209.91 506.077 209.91H525.947C526.547 209.91 526.847 210.21 526.847 210.81V214.31C526.847 216.02 526.557 217.56 525.997 218.93C525.427 220.3 524.647 221.51 523.647 222.56C522.647 223.61 521.497 224.53 520.187 225.29C518.877 226.06 517.477 226.71 515.977 227.23C514.477 227.76 512.947 228.16 511.357 228.45C509.767 228.72 508.217 228.92 506.707 229.04ZM518.757 245.19C514.857 245.19 511.897 244.58 509.887 243.35C507.877 242.13 506.877 240.2 506.877 237.58C506.877 234.93 507.877 233 509.887 231.79C511.897 230.58 514.847 229.97 518.757 229.97H526.447C530.347 229.97 533.267 230.58 535.207 231.79C537.147 233 538.117 234.93 538.117 237.58C538.117 240.2 537.147 242.12 535.207 243.35C533.267 244.57 530.347 245.19 526.447 245.19H518.757ZM526.447 239.94C527.647 239.94 528.467 239.73 528.907 239.32C529.347 238.91 529.567 238.33 529.567 237.59C529.567 236.85 529.347 236.27 528.907 235.86C528.467 235.45 527.647 235.24 526.447 235.24H518.757C517.557 235.24 516.707 235.43 516.197 235.82C515.687 236.2 515.427 236.8 515.427 237.59C515.427 238.42 515.687 239.02 516.197 239.39C516.707 239.76 517.567 239.95 518.757 239.95H526.447V239.94ZM530.507 228.44C529.907 228.44 529.607 228.16 529.607 227.59V210.37C529.607 209.77 529.907 209.47 530.507 209.47H536.617C537.217 209.47 537.517 209.77 537.517 210.37V215.54H539.527C540.097 215.54 540.377 215.84 540.377 216.44V221.44C540.377 222.01 540.097 222.29 539.527 222.29H537.517V227.59C537.517 228.16 537.217 228.44 536.617 228.44H530.507Z" fill="white"/>
<path d="M591.367 229.42C591.197 229.88 590.837 230.1 590.297 230.1H583.377C583.037 230.1 582.797 230.01 582.667 229.82C582.537 229.63 582.547 229.39 582.687 229.07L589.907 210.56C590.077 210.1 590.407 209.88 590.887 209.88H598.157C598.467 209.88 598.687 209.97 598.817 210.16C598.947 210.35 598.937 210.59 598.797 210.91L591.367 229.42ZM615.387 237.07C615.927 237.07 616.197 237.36 616.197 237.92V243.05C616.197 243.62 615.927 243.9 615.387 243.9H585.217C584.647 243.9 584.367 243.61 584.367 243.05V233.35C584.367 232.78 584.647 232.5 585.217 232.5H591.667C592.267 232.5 592.567 232.79 592.567 233.35V237.07H615.387ZM597.527 229.85C596.987 229.85 596.657 229.62 596.547 229.17L595.047 224.68C594.987 224.48 594.957 224.3 594.957 224.15C594.957 223.99 594.997 223.8 595.087 223.57L598.417 215.24C598.557 214.87 598.747 214.68 598.997 214.68C599.237 214.68 599.427 214.87 599.577 215.24L604.787 228.87C605.077 229.53 604.857 229.85 604.147 229.85H597.527ZM608.807 232.71C608.207 232.71 607.907 232.43 607.907 231.86V210.36C607.907 209.76 608.207 209.46 608.807 209.46H614.917C615.517 209.46 615.817 209.76 615.817 210.36V231.86C615.817 232.43 615.517 232.71 614.917 232.71H608.807Z" fill="white"/>
<path d="M660.217 211.73C660.217 211.16 660.517 210.88 661.117 210.88H667.147V208.7C667.147 208.1 667.447 207.8 668.047 207.8H673.947C674.547 207.8 674.847 208.1 674.847 208.7V210.88H680.997C681.567 210.88 681.847 211.17 681.847 211.73V215.62C681.847 216.19 681.557 216.47 680.997 216.47H676.127L668.517 228.27C668.407 228.47 668.257 228.63 668.087 228.76C667.917 228.89 667.707 228.95 667.447 228.95H660.737C660.397 228.95 660.157 228.86 660.027 228.67C659.897 228.48 659.907 228.24 660.047 227.92L667.267 216.47H661.117C660.517 216.47 660.217 216.19 660.217 215.62V211.73ZM673.727 244.76C669.827 244.76 666.867 244.18 664.857 243.03C662.847 241.88 661.847 240.2 661.847 238.01C661.847 235.79 662.847 234.11 664.857 232.97C666.867 231.83 669.817 231.26 673.727 231.26H681.847C685.747 231.26 688.667 231.83 690.607 232.97C692.547 234.11 693.517 235.79 693.517 238.01C693.517 240.2 692.547 241.88 690.607 243.03C688.667 244.18 685.747 244.76 681.847 244.76H673.727ZM681.847 239.94C683.047 239.94 683.867 239.75 684.307 239.38C684.747 239.01 684.967 238.55 684.967 238.01C684.967 237.47 684.747 237.01 684.307 236.64C683.867 236.27 683.047 236.08 681.847 236.08H673.727C672.527 236.08 671.677 236.26 671.167 236.61C670.657 236.97 670.397 237.43 670.397 238C670.397 238.6 670.657 239.07 671.167 239.41C671.677 239.75 672.537 239.92 673.727 239.92H681.847V239.94ZM674.577 228.7C674.347 228.7 674.167 228.64 674.017 228.53C673.877 228.42 673.727 228.25 673.587 228.02L672.257 225.75C672.167 225.55 672.127 225.44 672.127 225.41C672.127 225.38 672.187 225.27 672.297 225.07L675.797 219.47C676.197 218.79 676.577 218.79 676.947 219.47L681.907 227.72C682.077 228.01 682.097 228.24 681.947 228.43C681.807 228.62 681.577 228.71 681.267 228.71H674.577V228.7ZM686.287 229.93C685.687 229.93 685.387 229.65 685.387 229.08V223.99H681.237C680.667 223.99 680.387 223.71 680.387 223.14V218.57C680.387 217.97 680.667 217.67 681.237 217.67H685.387V210.36C685.387 209.76 685.687 209.46 686.287 209.46H692.397C692.997 209.46 693.297 209.76 693.297 210.36V229.08C693.297 229.65 692.997 229.93 692.397 229.93H686.287Z" fill="white"/>
<path d="M848.563 53.5084C848.278 53.1074 848.047 52.6749 847.849 52.2279L843.167 42.5136C841.697 39.4611 838.162 37.8698 834.89 38.9149C831.331 40.0498 827.661 41.9149 827.855 47.367C827.875 47.94 828.334 49.9157 828.535 50.4496L846.531 100.796C848.042 104.874 851.255 105.832 855.398 104.317C859.631 102.766 860.676 99.5112 858.919 95.4503C855.318 87.1374 853.813 79.1621 858.828 73.99C861.2 71.5432 866.679 68.7916 870.232 67.4359C873.659 66.1308 877.499 66.0422 880.862 67.4677C882.617 68.2111 884.599 68.5936 886.745 68.4897C917.868 66.9791 956.635 80.9261 990.589 108.644C1024.54 136.361 1045.65 171.287 1049.91 201.686C1051.45 212.68 1065.48 216.866 1072.74 208.342C1072.8 208.269 1072.86 208.199 1072.92 208.127C1100.84 174.961 1088.5 103.53 1033.97 59.3437C979.355 15.0866 902.889 14.7798 876.055 47.4178C875.996 47.4914 875.934 47.5601 875.875 47.6338C874.492 49.2999 872.67 50.5541 870.616 51.2806C867.472 52.3876 864.446 53.5107 861.921 54.4862C853.763 57.6461 849.939 55.4679 848.563 53.5084Z" fill="#FFE600" stroke="black" stroke-miterlimit="10"/>
<path d="M870.987 44.3691C877.409 40.461 884.565 37.7857 891.962 36.4456C899.346 35.107 906.961 35.0538 914.354 36.3493C918.52 37.0795 922.607 38.2369 926.527 39.8195C927.091 40.047 927.528 39.2051 926.965 38.9777C919.883 36.1157 912.296 34.6196 904.663 34.475C897.026 34.3295 889.35 35.5415 882.141 38.0632C878.073 39.4863 874.153 41.3327 870.471 43.5745C869.947 43.8897 870.463 44.6843 870.987 44.3691Z" fill="black"/>
<path d="M1050.73 188.121C1054.09 180.883 1055.68 172.869 1055.36 164.896C1055.27 162.628 1055.02 160.365 1054.62 158.13C1054.52 157.539 1053.57 157.587 1053.68 158.188C1055.06 165.922 1054.58 173.935 1052.28 181.451C1051.63 183.583 1050.82 185.665 1049.88 187.684C1049.63 188.237 1050.47 188.675 1050.73 188.121Z" fill="black"/>
<path d="M994.785 254.145C1022.68 238.05 1032.24 202.393 1016.14 174.501C1000.05 146.61 964.393 137.047 936.501 153.142C908.61 169.237 899.047 204.894 915.142 232.785C931.237 260.676 966.894 270.239 994.785 254.145Z" fill="#FFBC00" stroke="black" stroke-miterlimit="10"/>
<path d="M922.831 196.623C923.603 196.178 923.867 195.191 923.422 194.42C922.977 193.648 921.99 193.383 921.219 193.829C920.447 194.274 920.183 195.26 920.628 196.032C921.073 196.804 922.06 197.068 922.831 196.623Z" fill="#FF9700"/>
<path d="M933.849 212.236C934.621 211.79 934.885 210.804 934.44 210.032C933.995 209.261 933.008 208.996 932.237 209.441C931.465 209.887 931.201 210.873 931.646 211.645C932.091 212.416 933.078 212.681 933.849 212.236Z" fill="#FF9700"/>
<path d="M984.365 169.838C985.137 169.393 985.402 168.406 984.956 167.635C984.511 166.863 983.525 166.599 982.753 167.044C981.981 167.489 981.717 168.476 982.162 169.247C982.607 170.019 983.594 170.283 984.365 169.838Z" fill="#FF9700"/>
<path d="M953.153 164.419C953.924 163.974 954.189 162.988 953.744 162.216C953.298 161.444 952.312 161.18 951.54 161.625C950.769 162.07 950.504 163.057 950.949 163.829C951.394 164.6 952.381 164.865 953.153 164.419Z" fill="#FF9700"/>
<path d="M933.957 176.642C935.191 175.929 935.614 174.351 934.902 173.117C934.19 171.883 932.612 171.459 931.377 172.172C930.143 172.884 929.72 174.462 930.432 175.696C931.144 176.931 932.722 177.354 933.957 176.642Z" fill="#FF9700"/>
<path d="M939.831 196.603C941.066 195.891 941.489 194.313 940.777 193.079C940.064 191.844 938.486 191.421 937.252 192.133C936.018 192.846 935.594 194.424 936.307 195.658C937.019 196.892 938.597 197.315 939.831 196.603Z" fill="#FF9700"/>
<path d="M956.01 180.414C957.244 179.701 957.667 178.123 956.955 176.889C956.243 175.655 954.665 175.232 953.43 175.944C952.196 176.656 951.773 178.234 952.485 179.468C953.197 180.703 954.775 181.126 956.01 180.414Z" fill="#FF9700"/>
<path d="M991.841 237.17L923.252 218.068C921.06 217.457 919.78 215.188 920.391 212.996L927.515 187.417C928.126 185.225 930.395 183.945 932.587 184.556L1001.17 203.658C1003.37 204.268 1004.65 206.537 1004.04 208.729L996.912 234.308C996.304 236.5 994.032 237.78 991.841 237.17Z" fill="white" stroke="black" stroke-miterlimit="10"/>
<path d="M983.278 226.153L985.367 226.735L989.581 211.601L987.492 211.019L983.278 226.153Z" fill="black"/>
<path d="M977.274 224.481L981.452 225.645L985.667 210.511L981.489 209.347L977.274 224.481Z" fill="black"/>
<path d="M954.404 218.111L958.81 219.338L963.024 204.204L958.619 202.977L954.404 218.111Z" fill="black"/>
<path d="M974.925 223.827L975.969 224.118L980.184 208.984L979.139 208.693L974.925 223.827Z" fill="black"/>
<path d="M986.703 227.106L987.747 227.397L991.962 212.262L990.917 211.972L986.703 227.106Z" fill="black"/>
<path d="M991.61 228.474L992.663 228.767L996.877 213.633L995.824 213.34L991.61 228.474Z" fill="black"/>
<path d="M971.009 222.736L971.531 222.882L975.746 207.748L975.224 207.602L971.009 222.736Z" fill="black"/>
<path d="M965.794 221.285L967.616 221.792L971.831 206.658L970.009 206.151L965.794 221.285Z" fill="black"/>
<path d="M960.83 219.901L961.352 220.047L965.567 204.913L965.044 204.767L960.83 219.901Z" fill="black"/>
<path d="M961.797 220.171L962.319 220.317L966.534 205.183L966.011 205.037L961.797 220.171Z" fill="black"/>
<path d="M964.705 220.981L965.227 221.127L969.442 205.993L968.92 205.847L964.705 220.981Z" fill="black"/>
<path d="M950.649 217.066L952.738 217.647L956.953 202.513L954.864 201.932L950.649 217.066Z" fill="black"/>
<path d="M944.861 215.453L947.768 216.263L951.982 201.129L949.076 200.319L944.861 215.453Z" fill="black"/>
<path d="M942.296 214.739L943.341 215.03L947.556 199.896L946.511 199.605L942.296 214.739Z" fill="black"/>
<path d="M938.381 213.649L938.903 213.794L943.118 198.66L942.596 198.515L938.381 213.649Z" fill="black"/>
<path d="M934.465 212.558L934.987 212.703L939.202 197.569L938.68 197.424L934.465 212.558Z" fill="black"/>
<path d="M926.895 210.45L928.723 210.959L932.938 195.825L931.11 195.316L926.895 210.45Z" fill="black"/>
<path d="M929.765 211.249L930.549 211.467L934.763 196.333L933.98 196.115L929.765 211.249Z" fill="black"/>
<path d="M930.159 190.562C930.135 190.602 930.094 190.613 930.04 190.599L929.449 190.434C929.388 190.417 929.377 190.379 929.412 190.321L930.976 187.493C930.997 187.453 931.038 187.442 931.089 187.457L931.71 187.628C931.767 187.643 931.778 187.68 931.744 187.741L930.159 190.562ZM930.829 190.805C930.778 190.79 930.753 190.762 930.756 190.715L930.738 189.839C930.737 189.819 930.741 189.801 930.747 189.789C930.751 189.774 930.759 189.758 930.773 189.737L931.322 188.759C931.34 188.725 931.363 188.712 931.39 188.716C931.417 188.721 931.43 188.743 931.432 188.785L931.513 190.893C931.517 190.961 931.489 190.986 931.426 190.969L930.829 190.805ZM931.846 191.118C931.789 191.104 931.769 191.067 931.783 191.016L932.217 189.454L931.781 189.333C931.73 189.319 931.714 189.284 931.728 189.233L931.876 188.702C931.89 188.645 931.924 188.625 931.975 188.639L932.411 188.761L932.646 187.917C932.66 187.86 932.697 187.84 932.754 187.857L933.328 188.017C933.385 188.031 933.405 188.069 933.388 188.126L932.525 191.227C932.511 191.281 932.474 191.298 932.419 191.284L931.846 191.118Z" fill="black"/>
<path d="M935.329 190.443L935.281 190.614L936.335 190.907C936.389 190.922 936.408 190.956 936.391 191.01L936.207 191.671C936.192 191.725 936.158 191.745 936.104 191.727L933.93 191.121L933.881 191.293L936.07 191.903C936.124 191.918 936.144 191.952 936.127 192.006L936.071 192.21C936.057 192.264 936.023 192.284 935.968 192.267L933.068 191.46C933.014 191.446 932.994 191.411 933.012 191.357L933.198 190.688C933.212 190.631 933.25 190.611 933.301 190.625L935.478 191.231L935.523 191.063L933.347 190.457C933.293 190.443 933.273 190.409 933.29 190.354L933.346 190.159C933.361 190.105 933.395 190.085 933.449 190.103L934.506 190.396L934.554 190.224L933.447 189.917C933.39 189.903 933.37 189.865 933.387 189.808L933.452 189.577C933.467 189.523 933.504 189.506 933.558 189.52L936.549 190.354C936.606 190.368 936.626 190.406 936.611 190.457L936.546 190.688C936.531 190.745 936.494 190.765 936.437 190.748L935.329 190.443ZM935.294 189.424C935.426 189.46 935.537 189.489 935.627 189.507C935.716 189.525 935.788 189.533 935.844 189.535C935.9 189.538 935.941 189.526 935.966 189.51C935.992 189.491 936.011 189.466 936.02 189.43C936.03 189.394 936.028 189.362 936.012 189.333C935.995 189.302 935.958 189.271 935.894 189.237C935.833 189.202 935.742 189.166 935.624 189.126C935.507 189.086 935.353 189.039 935.161 188.986L933.825 188.613C933.768 188.599 933.748 188.561 933.763 188.51L933.831 188.27C933.845 188.216 933.882 188.199 933.936 188.213L935.249 188.579C935.576 188.672 935.847 188.759 936.056 188.843C936.265 188.928 936.426 189.013 936.54 189.097C936.655 189.182 936.728 189.269 936.76 189.358C936.792 189.448 936.792 189.545 936.763 189.648C936.734 189.753 936.685 189.832 936.615 189.893C936.545 189.953 936.45 189.991 936.324 190.005C936.201 190.021 936.044 190.013 935.856 189.986C935.669 189.956 935.444 189.905 935.18 189.832L935.021 189.789C934.757 189.716 934.537 189.644 934.364 189.572C934.189 189.5 934.054 189.425 933.955 189.352C933.856 189.278 933.795 189.193 933.766 189.109C933.738 189.023 933.738 188.928 933.767 188.826L933.769 188.817C933.784 188.763 933.818 188.743 933.872 188.76L934.452 188.923C934.509 188.937 934.529 188.974 934.514 189.026C934.504 189.059 934.506 189.088 934.523 189.116C934.536 189.145 934.564 189.173 934.61 189.203C934.657 189.232 934.72 189.261 934.808 189.288C934.892 189.318 935.003 189.35 935.135 189.389L935.294 189.424Z" fill="black"/>
<path d="M936.497 192.314C936.44 192.3 936.42 192.263 936.437 192.203L936.565 191.738C936.579 191.684 936.617 191.667 936.671 191.681L936.938 191.756L937.202 190.807C937.216 190.753 937.251 190.734 937.305 190.751L937.842 190.901C937.896 190.916 937.916 190.95 937.899 191.004L937.635 191.953L937.908 192.028C938.103 192.081 938.292 192.126 938.474 192.159C938.656 192.192 938.825 192.202 938.986 192.19L939.636 189.86C939.65 189.803 939.687 189.783 939.744 189.8L940.318 189.96C940.375 189.974 940.395 190.011 940.377 190.068L940.07 191.173L940.283 191.231C940.337 191.246 940.354 191.283 940.339 191.337L940.192 191.868C940.177 191.922 940.143 191.942 940.089 191.925L939.876 191.867L939.515 193.167C939.5 193.221 939.463 193.238 939.409 193.224L938.836 193.064C938.779 193.049 938.759 193.012 938.773 192.961L938.829 192.757C938.68 192.781 938.503 192.783 938.304 192.765C938.105 192.745 937.887 192.702 937.653 192.637L936.497 192.314ZM938.651 191.626C938.635 191.65 938.621 191.666 938.604 191.676C938.59 191.685 938.566 191.681 938.538 191.668L937.998 191.518C937.971 191.508 937.955 191.494 937.945 191.474C937.935 191.457 937.937 191.433 937.95 191.408C937.99 191.338 938.032 191.256 938.076 191.159C938.121 191.062 938.168 190.958 938.211 190.849C938.255 190.74 938.298 190.626 938.338 190.511C938.378 190.396 938.416 190.288 938.448 190.183L937.319 189.868C937.265 189.853 937.245 189.819 937.263 189.765L937.384 189.332C937.398 189.278 937.433 189.258 937.487 189.276L939.276 189.775C939.333 189.789 939.353 189.827 939.339 189.878L939.199 190.347C939.137 190.548 939.082 190.714 939.034 190.844C938.986 190.974 938.943 191.082 938.901 191.174C938.859 191.265 938.82 191.344 938.782 191.411C938.742 191.478 938.699 191.549 938.651 191.626Z" fill="black"/>
<path d="M940.155 193.305C940.125 193.301 940.104 193.291 940.097 193.273C940.09 193.253 940.088 193.23 940.096 193.206L940.241 192.686C940.249 192.659 940.262 192.643 940.28 192.639C940.297 192.635 940.318 192.631 940.344 192.63C940.733 192.615 941.062 192.489 941.331 192.254C941.6 192.019 941.802 191.655 941.938 191.163L940.797 190.846C940.743 190.831 940.723 190.797 940.74 190.743L940.866 190.29C940.881 190.236 940.915 190.216 940.969 190.233L942.831 190.752C942.888 190.766 942.908 190.803 942.89 190.86L942.767 191.302C942.67 191.653 942.535 191.959 942.371 192.223C942.204 192.484 942.01 192.7 941.788 192.872C941.565 193.042 941.316 193.167 941.04 193.24C940.766 193.304 940.469 193.327 940.155 193.305ZM942.445 194.072C942.388 194.058 942.368 194.021 942.383 193.97L943.245 190.868C943.259 190.811 943.297 190.791 943.354 190.809L943.927 190.968C943.984 190.983 944.004 191.02 943.987 191.077L943.125 194.179C943.11 194.233 943.073 194.25 943.019 194.235L942.445 194.072Z" fill="black"/>
<path d="M944.361 191.258C944.376 191.204 944.413 191.187 944.467 191.201L945.788 191.57C945.842 191.584 945.862 191.618 945.844 191.673L945.726 192.102C945.712 192.159 945.675 192.179 945.623 192.164L944.302 191.796C944.245 191.782 944.225 191.744 944.243 191.687L944.361 191.258ZM944.905 192.09C944.956 192.105 944.973 192.139 944.958 192.19L944.426 193.875L944.591 193.921C944.732 193.96 944.878 193.987 945.03 194.004C945.181 194.018 945.317 194.013 945.436 193.988L946.078 191.679C946.092 191.622 946.129 191.602 946.181 191.617L946.64 191.745C946.694 191.76 946.711 191.797 946.697 191.851L946.377 193.001L946.593 193.062L946.92 191.888C946.934 191.831 946.972 191.811 947.023 191.825L947.488 191.954C947.542 191.968 947.559 192.005 947.545 192.059L946.682 195.161C946.668 195.215 946.634 195.235 946.579 195.217L946.114 195.089C946.06 195.075 946.04 195.041 946.058 194.986L946.407 193.737L946.191 193.677L945.854 194.887C945.839 194.941 945.805 194.96 945.751 194.943L945.292 194.815C945.237 194.8 945.218 194.766 945.235 194.712L945.276 194.567C945.178 194.594 945.054 194.605 944.906 194.593C944.758 194.584 944.6 194.555 944.429 194.507L943.648 194.289C943.594 194.274 943.577 194.237 943.591 194.183L944.288 191.995C944.295 191.97 944.309 191.952 944.329 191.942C944.349 191.932 944.372 191.93 944.397 191.938L944.905 192.09Z" fill="black"/>
<path d="M947.886 195.737C947.829 195.723 947.818 195.691 947.854 195.642L949.973 192.673C950.008 192.627 950.052 192.61 950.103 192.624L950.799 192.818C950.859 192.835 950.87 192.867 950.832 192.913L948.712 195.882C948.68 195.931 948.637 195.948 948.586 195.934L947.886 195.737Z" fill="black"/>
<path d="M951.592 195.078C951.535 195.064 951.515 195.027 951.532 194.97L951.629 194.621C951.644 194.567 951.681 194.55 951.735 194.565L952.603 194.807L952.7 194.462C952.714 194.408 952.748 194.388 952.803 194.405L953.418 194.578C953.472 194.592 953.492 194.626 953.475 194.68L953.378 195.026L954.723 195.402C954.78 195.416 954.8 195.453 954.785 195.504L954.688 195.852C954.674 195.909 954.637 195.929 954.58 195.912L951.592 195.078ZM952.23 196.881C951.864 196.78 951.602 196.654 951.443 196.507C951.283 196.36 951.239 196.168 951.304 195.928C951.37 195.694 951.509 195.553 951.722 195.51C951.934 195.465 952.222 195.494 952.589 195.596L953.468 195.841C953.832 195.943 954.093 196.066 954.25 196.213C954.409 196.359 954.456 196.551 954.391 196.786C954.325 197.017 954.186 197.158 953.973 197.203C953.761 197.249 953.473 197.225 953.109 197.123L952.23 196.881ZM954.672 195.104C954.656 195.128 954.642 195.144 954.625 195.154C954.611 195.163 954.59 195.162 954.563 195.152L953.971 194.987C953.944 194.977 953.929 194.963 953.916 194.943C953.906 194.923 953.907 194.902 953.923 194.878C953.958 194.819 953.992 194.749 954.026 194.674C954.06 194.598 954.091 194.522 954.119 194.444L952.011 193.857C951.957 193.843 951.937 193.809 951.954 193.754L952.063 193.361C952.078 193.307 952.112 193.287 952.166 193.305L954.983 194.09C955.04 194.104 955.06 194.141 955.045 194.192L954.956 194.481C954.917 194.611 954.874 194.728 954.824 194.835C954.772 194.944 954.721 195.033 954.672 195.104ZM953.272 196.697C953.384 196.729 953.466 196.732 953.521 196.708C953.576 196.684 953.611 196.641 953.628 196.581C953.645 196.521 953.636 196.465 953.604 196.417C953.571 196.369 953.498 196.329 953.384 196.298L952.423 196.031C952.312 196 952.226 195.996 952.171 196.017C952.117 196.038 952.081 196.082 952.061 196.148C952.042 196.214 952.051 196.269 952.086 196.317C952.122 196.363 952.198 196.402 952.309 196.434L953.272 196.697Z" fill="black"/>
<path d="M955.051 196.335C954.994 196.321 954.974 196.284 954.991 196.227L955.062 195.977C955.076 195.923 955.113 195.906 955.167 195.921L958.158 196.754C958.215 196.769 958.235 196.806 958.22 196.857L958.15 197.106C958.136 197.163 958.098 197.183 958.041 197.166L955.051 196.335ZM955.77 197.868C955.59 197.817 955.43 197.764 955.296 197.705C955.163 197.648 955.053 197.584 954.969 197.518C954.885 197.449 954.828 197.376 954.799 197.295C954.768 197.214 954.768 197.126 954.795 197.027C954.851 196.828 954.985 196.714 955.202 196.683C955.418 196.652 955.71 196.685 956.073 196.787L956.953 197.031C957.319 197.133 957.58 197.253 957.742 197.394C957.904 197.534 957.956 197.699 957.902 197.892C957.849 198.084 957.717 198.195 957.509 198.222C957.301 198.25 957.016 198.214 956.65 198.112L955.77 197.868ZM955.292 195.742C955.238 195.727 955.219 195.693 955.236 195.639L955.442 194.903C955.457 194.849 955.491 194.829 955.545 194.847L957.695 195.445L957.746 195.262L955.59 194.661C955.533 194.647 955.516 194.607 955.533 194.547L955.588 194.345C955.603 194.291 955.64 194.274 955.694 194.289L958.529 195.079C958.585 195.093 958.605 195.13 958.591 195.181L958.395 195.887C958.38 195.941 958.343 195.958 958.289 195.944L956.139 195.345L956.083 195.54L958.269 196.148C958.299 196.155 958.317 196.172 958.325 196.192C958.332 196.213 958.333 196.239 958.326 196.269L958.266 196.485C958.251 196.539 958.214 196.556 958.16 196.542L955.292 195.742ZM956.803 197.725C956.914 197.757 956.995 197.767 957.044 197.755C957.091 197.743 957.121 197.715 957.136 197.667C957.151 197.618 957.14 197.578 957.105 197.542C957.07 197.505 956.997 197.471 956.886 197.443L955.926 197.176C955.814 197.145 955.731 197.135 955.676 197.144C955.62 197.154 955.587 197.185 955.572 197.233C955.557 197.281 955.572 197.325 955.615 197.36C955.656 197.396 955.734 197.43 955.845 197.462L956.803 197.725Z" fill="black"/>
<path d="M959.077 195.314C959.092 195.26 959.129 195.243 959.183 195.258L961 195.764C961.057 195.778 961.076 195.816 961.062 195.867L960.96 196.236C960.946 196.29 960.909 196.307 960.855 196.292L960.362 196.154L959.434 197.013C959.417 197.029 959.401 197.042 959.38 197.049C959.36 197.056 959.34 197.057 959.315 197.05L958.688 196.876C958.655 196.866 958.636 196.852 958.629 196.829C958.622 196.806 958.629 196.785 958.652 196.763L959.537 195.927L959.041 195.789C958.984 195.774 958.964 195.737 958.979 195.686L959.077 195.314ZM958.698 197.191C958.713 197.134 958.75 197.114 958.801 197.129L961.587 197.904C961.644 197.918 961.664 197.955 961.649 198.006L961.313 199.216C961.298 199.27 961.261 199.287 961.207 199.273L958.426 198.497C958.369 198.483 958.349 198.446 958.364 198.395L958.698 197.191ZM959.341 197.807L959.229 198.204L960.661 198.604L960.773 198.207L959.341 197.807ZM959.989 197.21C959.968 197.205 959.953 197.194 959.943 197.18C959.934 197.166 959.923 197.146 959.916 197.12L959.843 196.885C959.833 196.865 959.834 196.847 959.839 196.832C959.847 196.817 959.858 196.799 959.875 196.783L960.319 196.366C960.344 196.341 960.364 196.331 960.385 196.339C960.406 196.343 960.419 196.363 960.427 196.398L960.704 197.311C960.712 197.343 960.707 197.364 960.69 197.377C960.673 197.39 960.647 197.394 960.62 197.384L959.989 197.21ZM961.066 197.54C961.009 197.526 960.989 197.489 961.004 197.438L961.101 197.092L960.714 196.983C960.659 196.968 960.64 196.934 960.657 196.88L960.776 196.451C960.79 196.394 960.827 196.374 960.878 196.388L961.266 196.498L961.426 195.924C961.44 195.867 961.477 195.847 961.534 195.864L962.108 196.024C962.164 196.039 962.184 196.076 962.167 196.133L961.748 197.64C961.734 197.694 961.696 197.711 961.642 197.697L961.066 197.54Z" fill="black"/>
<path d="M985.245 205.033C985.216 205.049 985.193 205.06 985.176 205.067C985.156 205.074 985.132 205.075 985.102 205.065L984.276 204.835C984.249 204.828 984.234 204.814 984.23 204.796C984.226 204.779 984.233 204.761 984.25 204.742C984.317 204.676 984.402 204.618 984.505 204.561C984.607 204.505 984.716 204.451 984.831 204.397C984.946 204.343 985.061 204.291 985.179 204.243C985.297 204.194 985.403 204.144 985.5 204.09C985.597 204.037 985.68 203.985 985.75 203.931C985.818 203.876 985.862 203.818 985.879 203.758C985.891 203.715 985.897 203.674 985.901 203.635C985.904 203.597 985.896 203.559 985.882 203.521C985.868 203.487 985.842 203.453 985.811 203.425C985.78 203.398 985.734 203.377 985.674 203.36C985.566 203.331 985.485 203.348 985.421 203.41C985.36 203.473 985.312 203.562 985.28 203.676L985.263 203.736C985.249 203.793 985.212 203.813 985.161 203.798L984.569 203.633C984.518 203.619 984.498 203.585 984.513 203.531L984.523 203.495C984.576 203.299 984.649 203.142 984.738 203.015C984.828 202.892 984.935 202.797 985.052 202.736C985.169 202.676 985.3 202.641 985.442 202.636C985.583 202.63 985.732 202.651 985.885 202.692C986.032 202.733 986.162 202.79 986.276 202.863C986.39 202.935 986.481 203.024 986.552 203.129C986.623 203.234 986.666 203.353 986.686 203.484C986.705 203.616 986.694 203.761 986.65 203.917C986.606 204.073 986.532 204.208 986.429 204.314C986.326 204.421 986.208 204.514 986.077 204.593C985.946 204.671 985.806 204.745 985.659 204.81C985.51 204.881 985.373 204.954 985.245 205.033ZM986.146 205.486C986.197 205.5 986.214 205.535 986.2 205.592L986.057 206.108C986.042 206.162 986.008 206.182 985.96 206.167L984.038 205.632C983.987 205.617 983.97 205.583 983.985 205.531L984.128 205.015C984.142 204.958 984.176 204.938 984.227 204.953L986.146 205.486Z" fill="black"/>
<path d="M987.011 204.279C987.074 204.051 987.152 203.872 987.247 203.733C987.342 203.598 987.448 203.497 987.565 203.431C987.685 203.367 987.816 203.333 987.958 203.333C988.102 203.333 988.257 203.356 988.422 203.402C988.584 203.448 988.727 203.508 988.852 203.583C988.975 203.658 989.069 203.753 989.138 203.869C989.208 203.986 989.246 204.128 989.256 204.293C989.266 204.458 989.239 204.654 989.176 204.882L988.925 205.792C988.862 206.02 988.784 206.199 988.689 206.338C988.594 206.473 988.488 206.574 988.371 206.64C988.251 206.704 988.12 206.738 987.976 206.738C987.831 206.738 987.676 206.715 987.514 206.669C987.352 206.623 987.209 206.563 987.084 206.488C986.961 206.413 986.864 206.319 986.798 206.202C986.729 206.085 986.691 205.946 986.68 205.778C986.67 205.613 986.697 205.417 986.76 205.189L987.011 204.279ZM988.397 204.694C988.444 204.531 988.457 204.407 988.436 204.316C988.419 204.229 988.345 204.166 988.222 204.132C988.096 204.098 988.002 204.113 987.938 204.178C987.874 204.244 987.822 204.36 987.776 204.522L987.538 205.375C987.492 205.54 987.48 205.667 987.497 205.755C987.517 205.842 987.588 205.903 987.714 205.939C987.841 205.973 987.934 205.959 987.995 205.896C988.059 205.83 988.111 205.718 988.157 205.552L988.397 204.694Z" fill="black"/>
<path d="M990.286 206.439C990.258 206.455 990.235 206.465 990.218 206.472C990.197 206.479 990.174 206.481 990.144 206.471L989.318 206.241C989.291 206.233 989.275 206.22 989.271 206.202C989.267 206.185 989.275 206.166 989.292 206.148C989.358 206.082 989.443 206.023 989.546 205.967C989.649 205.911 989.758 205.857 989.873 205.802C989.988 205.748 990.103 205.697 990.221 205.648C990.339 205.6 990.445 205.549 990.542 205.496C990.639 205.443 990.722 205.391 990.792 205.336C990.86 205.282 990.903 205.223 990.92 205.163C990.932 205.121 990.939 205.079 990.942 205.041C990.946 205.002 990.938 204.964 990.924 204.927C990.91 204.892 990.884 204.858 990.853 204.831C990.822 204.803 990.776 204.782 990.716 204.765C990.608 204.736 990.526 204.753 990.462 204.816C990.401 204.879 990.353 204.967 990.322 205.082L990.305 205.142C990.291 205.199 990.254 205.219 990.202 205.204L989.611 205.039C989.56 205.024 989.54 204.99 989.555 204.936L989.564 204.9C989.617 204.705 989.69 204.547 989.78 204.421C989.87 204.297 989.976 204.202 990.094 204.142C990.211 204.082 990.342 204.047 990.483 204.042C990.624 204.036 990.773 204.056 990.926 204.097C991.073 204.139 991.204 204.196 991.317 204.268C991.431 204.341 991.522 204.43 991.593 204.535C991.665 204.64 991.707 204.758 991.727 204.89C991.747 205.022 991.735 205.167 991.692 205.323C991.648 205.479 991.573 205.614 991.471 205.72C991.368 205.827 991.25 205.92 991.119 205.998C990.988 206.077 990.847 206.151 990.701 206.216C990.552 206.287 990.414 206.36 990.286 206.439ZM991.188 206.892C991.239 206.906 991.256 206.941 991.241 206.997L991.098 207.514C991.084 207.568 991.05 207.588 991.002 207.573L989.08 207.037C989.029 207.023 989.012 206.988 989.027 206.937L989.169 206.421C989.184 206.364 989.218 206.344 989.269 206.359L991.188 206.892Z" fill="black"/>
<path d="M992.612 206.525L992.721 206.131C992.735 206.077 992.772 206.06 992.826 206.075L992.898 206.094C993.033 206.127 993.142 206.123 993.223 206.089C993.303 206.052 993.363 205.974 993.395 205.854C993.407 205.812 993.413 205.77 993.417 205.732C993.42 205.693 993.412 205.655 993.398 205.618C993.384 205.583 993.358 205.549 993.324 205.522C993.29 205.494 993.241 205.471 993.178 205.454C993.067 205.422 992.98 205.44 992.919 205.502C992.857 205.565 992.813 205.656 992.778 205.771L992.761 205.831C992.747 205.888 992.71 205.908 992.659 205.893L992.046 205.724C991.995 205.709 991.976 205.675 991.99 205.621L992 205.585C992.053 205.39 992.126 205.232 992.219 205.108C992.312 204.984 992.418 204.892 992.538 204.829C992.659 204.768 992.792 204.734 992.934 204.731C993.078 204.725 993.227 204.746 993.386 204.789C993.536 204.83 993.669 204.887 993.783 204.963C993.9 205.035 993.994 205.127 994.065 205.232C994.136 205.337 994.182 205.455 994.202 205.587C994.222 205.718 994.21 205.864 994.166 206.02C994.122 206.161 994.061 206.283 993.99 206.382C993.92 206.481 993.839 206.556 993.747 206.609C993.842 206.715 993.897 206.839 993.917 206.977C993.938 207.117 993.926 207.265 993.882 207.421C993.839 207.578 993.773 207.709 993.682 207.809C993.59 207.911 993.486 207.986 993.368 208.037C993.247 208.089 993.119 208.114 992.974 208.117C992.833 208.12 992.684 208.099 992.537 208.058C992.38 208.014 992.235 207.955 992.107 207.881C991.978 207.806 991.872 207.712 991.791 207.599C991.711 207.485 991.658 207.353 991.638 207.204C991.614 207.055 991.63 206.879 991.685 206.681L991.695 206.645C991.713 206.594 991.747 206.574 991.798 206.589L992.41 206.758C992.464 206.773 992.481 206.81 992.467 206.864L992.45 206.924C992.419 207.038 992.424 207.135 992.468 207.215C992.511 207.295 992.591 207.349 992.702 207.381C992.828 207.415 992.925 207.409 992.993 207.36C993.064 207.312 993.11 207.244 993.134 207.16C993.2 206.926 993.083 206.759 992.785 206.662L992.665 206.628C992.62 206.613 992.597 206.579 992.612 206.525Z" fill="black"/>
<path d="M993.871 208.544C993.814 208.53 993.803 208.498 993.839 208.448L995.958 205.48C995.993 205.434 996.036 205.416 996.087 205.431L996.784 205.625C996.844 205.642 996.855 205.673 996.816 205.72L994.697 208.688C994.665 208.738 994.622 208.755 994.571 208.74L993.871 208.544Z" fill="black"/>
<path d="M996.776 206.998C996.839 206.77 996.916 206.591 997.011 206.452C997.106 206.316 997.212 206.216 997.329 206.149C997.45 206.086 997.58 206.052 997.722 206.052C997.867 206.052 998.022 206.075 998.187 206.121C998.349 206.167 998.491 206.226 998.617 206.301C998.739 206.377 998.834 206.471 998.903 206.588C998.972 206.705 999.01 206.847 999.02 207.012C999.03 207.177 999.004 207.373 998.941 207.601L998.689 208.511C998.626 208.739 998.548 208.918 998.454 209.057C998.358 209.192 998.252 209.293 998.135 209.359C998.015 209.423 997.885 209.457 997.74 209.457C997.595 209.457 997.44 209.434 997.278 209.388C997.116 209.341 996.974 209.282 996.848 209.207C996.725 209.132 996.628 209.038 996.562 208.921C996.493 208.804 996.455 208.664 996.445 208.497C996.435 208.332 996.461 208.136 996.524 207.907L996.776 206.998ZM998.162 207.415C998.208 207.253 998.221 207.128 998.201 207.038C998.184 206.951 998.109 206.887 997.986 206.853C997.86 206.82 997.767 206.834 997.703 206.9C997.639 206.966 997.587 207.081 997.541 207.244L997.303 208.096C997.257 208.261 997.244 208.389 997.261 208.477C997.281 208.564 997.353 208.625 997.479 208.661C997.605 208.695 997.699 208.68 997.76 208.618C997.821 208.552 997.876 208.439 997.922 208.274L998.162 207.415Z" fill="black"/>
<path d="M998.793 209.198L998.929 208.715C998.939 208.682 998.949 208.657 998.963 208.639L1000.49 206.917C1000.52 206.87 1000.57 206.853 1000.62 206.868L1001.27 207.049C1001.33 207.066 1001.35 207.098 1001.31 207.145L999.796 208.851L1000.16 208.953L1000.27 208.545C1000.28 208.518 1000.29 208.496 1000.3 208.481C1000.3 208.466 1000.31 208.45 1000.33 208.432L1001.3 207.34C1001.32 207.315 1001.35 207.307 1001.37 207.321C1001.4 207.334 1001.41 207.357 1001.4 207.387L1000.9 209.159L1001.12 209.219C1001.17 209.234 1001.19 209.268 1001.17 209.325L1001.04 209.826C1001.02 209.881 1000.99 209.9 1000.94 209.886L1000.72 209.825L1000.62 210.173C1000.61 210.224 1000.57 210.241 1000.52 210.227L999.941 210.067C999.887 210.053 999.867 210.019 999.882 209.967L999.979 209.619L998.85 209.304C998.798 209.286 998.779 209.252 998.793 209.198Z" fill="black"/>
<path d="M945.52 220.298C945.497 220.311 945.477 220.321 945.463 220.328C945.446 220.335 945.428 220.333 945.404 220.329L944.725 220.14C944.704 220.132 944.692 220.121 944.688 220.107C944.684 220.092 944.689 220.074 944.706 220.061C944.761 220.005 944.832 219.953 944.918 219.904C945.003 219.854 945.092 219.808 945.186 219.761C945.281 219.714 945.376 219.669 945.474 219.628C945.571 219.584 945.66 219.54 945.74 219.497C945.82 219.451 945.891 219.405 945.947 219.36C946.003 219.312 946.039 219.263 946.053 219.212C946.063 219.176 946.07 219.14 946.071 219.108C946.072 219.075 946.07 219.043 946.056 219.011C946.045 218.982 946.026 218.954 945.998 218.932C945.97 218.91 945.934 218.892 945.885 218.877C945.798 218.853 945.728 218.869 945.676 218.922C945.623 218.975 945.583 219.052 945.557 219.151L945.542 219.202C945.527 219.25 945.499 219.266 945.457 219.254L944.97 219.118C944.928 219.106 944.912 219.078 944.924 219.033L944.934 219.003C944.98 218.837 945.042 218.701 945.115 218.593C945.192 218.488 945.278 218.406 945.375 218.353C945.473 218.3 945.58 218.27 945.695 218.263C945.809 218.256 945.931 218.272 946.06 218.308C946.181 218.342 946.287 218.389 946.379 218.451C946.471 218.514 946.547 218.589 946.602 218.677C946.658 218.765 946.697 218.866 946.709 218.977C946.725 219.089 946.712 219.213 946.675 219.345C946.639 219.477 946.575 219.594 946.489 219.684C946.403 219.775 946.305 219.855 946.197 219.926C946.089 219.995 945.972 220.058 945.851 220.116C945.742 220.167 945.628 220.23 945.52 220.298ZM946.26 220.675C946.302 220.688 946.316 220.716 946.304 220.764L946.18 221.206C946.168 221.251 946.14 221.267 946.098 221.258L944.519 220.82C944.477 220.807 944.463 220.779 944.475 220.734L944.599 220.292C944.611 220.244 944.639 220.228 944.681 220.237L946.26 220.675Z" fill="black"/>
<path d="M948.476 221.919L947.933 221.769C947.888 221.757 947.874 221.726 947.886 221.681L948.397 219.846L948.148 219.926C948.111 219.94 948.083 219.924 948.066 219.881L947.927 219.39C947.912 219.344 947.925 219.314 947.966 219.302L948.628 219.076C948.648 219.069 948.669 219.071 948.693 219.075L949.224 219.223C949.269 219.235 949.289 219.263 949.277 219.308L948.564 221.87C948.546 221.912 948.518 221.931 948.476 221.919Z" fill="black"/>
<path d="M952.617 223.073L952.073 222.923C952.028 222.911 952.015 222.879 952.027 222.834L952.538 220.999L952.289 221.079C952.251 221.094 952.224 221.078 952.207 221.034L952.068 220.544C952.053 220.498 952.066 220.467 952.106 220.456L952.769 220.23C952.789 220.223 952.81 220.224 952.834 220.229L953.365 220.377C953.41 220.389 953.426 220.417 953.417 220.462L952.705 223.023C952.69 223.068 952.662 223.085 952.617 223.073Z" fill="black"/>
<path d="M954.513 221.738C954.566 221.546 954.634 221.389 954.712 221.272C954.791 221.155 954.88 221.07 954.977 221.014C955.074 220.958 955.184 220.93 955.302 220.929C955.42 220.928 955.548 220.946 955.683 220.983C955.818 221.019 955.934 221.071 956.035 221.132C956.136 221.194 956.215 221.275 956.268 221.375C956.324 221.475 956.355 221.594 956.361 221.735C956.366 221.877 956.344 222.043 956.291 222.236L956.075 223.01C956.022 223.202 955.955 223.36 955.876 223.477C955.798 223.594 955.708 223.679 955.611 223.735C955.515 223.791 955.404 223.818 955.286 223.82C955.165 223.821 955.04 223.802 954.905 223.766C954.77 223.73 954.655 223.678 954.553 223.616C954.452 223.555 954.374 223.474 954.32 223.374C954.264 223.274 954.233 223.155 954.228 223.016C954.222 222.875 954.244 222.708 954.298 222.516L954.513 221.738ZM955.65 222.083C955.689 221.944 955.7 221.838 955.686 221.762C955.673 221.686 955.614 221.633 955.509 221.607C955.407 221.578 955.328 221.592 955.275 221.648C955.222 221.704 955.178 221.801 955.139 221.939L954.936 222.666C954.897 222.807 954.883 222.914 954.899 222.99C954.916 223.066 954.972 223.116 955.077 223.145C955.179 223.174 955.258 223.16 955.31 223.104C955.363 223.048 955.407 222.95 955.446 222.809L955.65 222.083Z" fill="black"/>
<path d="M957.243 222.5C957.296 222.307 957.363 222.15 957.442 222.033C957.52 221.916 957.609 221.831 957.706 221.775C957.803 221.719 957.914 221.691 958.032 221.69C958.15 221.689 958.278 221.708 958.413 221.744C958.545 221.78 958.663 221.832 958.764 221.893C958.865 221.955 958.944 222.036 958.998 222.136C959.054 222.236 959.085 222.355 959.09 222.496C959.096 222.638 959.074 222.804 959.02 222.997L958.805 223.771C958.751 223.963 958.684 224.121 958.606 224.238C958.527 224.355 958.438 224.44 958.341 224.496C958.244 224.552 958.133 224.58 958.015 224.581C957.895 224.582 957.769 224.563 957.634 224.527C957.499 224.491 957.384 224.439 957.283 224.377C957.182 224.316 957.103 224.235 957.05 224.135C956.993 224.035 956.963 223.916 956.957 223.777C956.952 223.636 956.974 223.469 957.027 223.277L957.243 222.5ZM958.379 222.841C958.418 222.703 958.429 222.596 958.416 222.52C958.402 222.444 958.343 222.391 958.238 222.365C958.136 222.336 958.057 222.35 958.004 222.406C957.952 222.462 957.907 222.559 957.869 222.698L957.665 223.424C957.626 223.565 957.612 223.673 957.628 223.748C957.645 223.821 957.701 223.874 957.806 223.903C957.908 223.932 957.987 223.918 958.04 223.862C958.092 223.806 958.137 223.709 958.175 223.567L958.379 222.841Z" fill="black"/>
<path d="M962.887 224.748C962.875 224.796 962.844 224.813 962.802 224.801L961.358 224.398C961.313 224.386 961.296 224.355 961.308 224.307L961.419 223.908C961.431 223.86 961.463 223.843 961.508 223.855L962.952 224.257C962.997 224.269 963.011 224.301 962.999 224.346L962.887 224.748Z" fill="black"/>
<path d="M967.054 225.552C967.125 225.651 967.167 225.76 967.189 225.88C967.208 226 967.201 226.124 967.167 226.248C967.133 226.368 967.08 226.474 967.012 226.57C966.941 226.663 966.857 226.739 966.754 226.792C966.651 226.846 966.532 226.879 966.4 226.89C966.265 226.902 966.12 226.887 965.957 226.841C965.798 226.797 965.662 226.735 965.553 226.655C965.445 226.576 965.36 226.487 965.301 226.387C965.242 226.288 965.206 226.181 965.196 226.063C965.186 225.946 965.196 225.83 965.23 225.707C965.267 225.581 965.322 225.468 965.402 225.375C965.479 225.282 965.575 225.211 965.684 225.166C965.644 225.088 965.621 225.001 965.613 224.907C965.604 224.813 965.616 224.712 965.645 224.607C965.679 224.49 965.729 224.387 965.797 224.3C965.866 224.213 965.947 224.146 966.041 224.096C966.136 224.049 966.243 224.019 966.361 224.012C966.479 224.005 966.603 224.018 966.739 224.057C966.874 224.093 966.989 224.145 967.085 224.213C967.18 224.281 967.259 224.359 967.315 224.45C967.37 224.541 967.406 224.639 967.418 224.75C967.431 224.859 967.423 224.975 967.389 225.092C967.319 225.306 967.21 225.457 967.054 225.552ZM966.104 226.294C966.164 226.311 966.221 226.317 966.268 226.311C966.314 226.305 966.358 226.291 966.392 226.265C966.426 226.242 966.456 226.211 966.478 226.174C966.502 226.137 966.517 226.098 966.53 226.059C966.542 226.017 966.545 225.975 966.546 225.934C966.543 225.893 966.535 225.852 966.518 225.815C966.501 225.777 966.472 225.744 966.435 225.713C966.398 225.683 966.349 225.66 966.286 225.643C966.226 225.626 966.17 225.62 966.123 225.626C966.076 225.632 966.032 225.646 965.999 225.672C965.964 225.695 965.934 225.726 965.912 225.76C965.891 225.797 965.873 225.833 965.86 225.875C965.848 225.917 965.845 225.959 965.844 226C965.844 226.045 965.855 226.085 965.872 226.123C965.889 226.16 965.918 226.194 965.955 226.224C965.993 226.254 966.044 226.277 966.104 226.294ZM966.577 224.607C966.493 224.582 966.426 224.589 966.375 224.625C966.321 224.661 966.286 224.716 966.267 224.788C966.247 224.86 966.248 224.928 966.276 224.985C966.303 225.043 966.355 225.084 966.439 225.108C966.524 225.132 966.591 225.125 966.645 225.087C966.699 225.051 966.734 224.996 966.753 224.924C966.772 224.852 966.771 224.787 966.744 224.729C966.714 224.669 966.658 224.628 966.577 224.607Z" fill="black"/>
<path d="M970.189 225.078C970.231 225.09 970.245 225.119 970.233 225.167L970.104 225.623C970.092 225.668 970.064 225.685 970.022 225.676L968.464 225.242C968.422 225.23 968.408 225.201 968.42 225.156L968.549 224.699C968.561 224.652 968.589 224.635 968.631 224.644L970.189 225.078ZM969.289 225.652C969.31 225.613 969.341 225.596 969.386 225.608L969.939 225.76C969.96 225.765 969.972 225.776 969.979 225.79C969.986 225.805 969.987 225.822 969.976 225.841L968.976 227.552C968.946 227.592 968.908 227.606 968.869 227.596L968.314 227.441C968.266 227.426 968.255 227.4 968.288 227.36L969.289 225.652Z" fill="black"/>
<path d="M971.661 227.577C971.638 227.591 971.618 227.601 971.603 227.607C971.586 227.614 971.568 227.612 971.544 227.608L970.866 227.419C970.845 227.411 970.832 227.4 970.828 227.386C970.825 227.371 970.829 227.353 970.846 227.34C970.902 227.284 970.973 227.232 971.058 227.183C971.144 227.134 971.232 227.087 971.327 227.04C971.421 226.993 971.516 226.949 971.614 226.907C971.712 226.863 971.801 226.819 971.881 226.776C971.96 226.73 972.031 226.684 972.088 226.639C972.144 226.595 972.179 226.542 972.194 226.491C972.204 226.455 972.21 226.419 972.211 226.387C972.212 226.354 972.21 226.322 972.196 226.29C972.186 226.261 972.166 226.233 972.139 226.211C972.111 226.189 972.074 226.171 972.026 226.156C971.939 226.132 971.869 226.148 971.816 226.201C971.763 226.255 971.724 226.331 971.697 226.43L971.683 226.481C971.668 226.529 971.639 226.546 971.597 226.533L971.111 226.398C971.069 226.385 971.052 226.357 971.064 226.312L971.074 226.282C971.12 226.117 971.183 225.98 971.256 225.872C971.332 225.767 971.419 225.685 971.516 225.632C971.613 225.579 971.72 225.549 971.835 225.542C971.95 225.535 972.072 225.551 972.201 225.587C972.321 225.622 972.427 225.668 972.52 225.73C972.612 225.793 972.687 225.868 972.743 225.956C972.798 226.044 972.837 226.145 972.85 226.257C972.865 226.368 972.852 226.493 972.816 226.625C972.78 226.76 972.716 226.873 972.63 226.964C972.544 227.054 972.445 227.134 972.338 227.206C972.23 227.274 972.112 227.337 971.992 227.395C971.883 227.446 971.769 227.509 971.661 227.577ZM972.398 227.958C972.44 227.97 972.454 227.999 972.442 228.046L972.318 228.488C972.306 228.533 972.278 228.549 972.236 228.54L970.656 228.102C970.614 228.09 970.601 228.061 970.613 228.016L970.737 227.574C970.748 227.527 970.777 227.51 970.819 227.519L972.398 227.958Z" fill="black"/>
<path d="M181.041 110.157C181.695 107.69 182.196 105.146 182.514 102.54C186.137 73.2407 166.018 45.7452 136.982 40.3681C105.542 34.5518 75.7901 55.9501 71.0868 87.3103C70.7803 89.3427 70.5919 91.3628 70.5069 93.363C70.0427 104.555 65.5198 115.194 58.1928 123.67C48.4762 134.916 41.9655 149.186 40.3345 165.256C36.3615 204.462 63.9763 240.464 102.853 246.889C144.325 253.742 183.244 225.311 189.463 183.884C191.644 169.341 189.498 155.144 183.991 142.608C179.505 132.382 178.163 120.961 181.041 110.157Z" fill="#D7ED00" stroke="black" stroke-width="0.5" stroke-miterlimit="10"/>
<path d="M123.521 66.1451C131.538 72.5059 143.161 73.5308 152.221 68.851C153.485 68.1998 152.406 66.2715 151.149 66.9229C142.729 71.2699 132.08 70.1323 124.671 64.2623C123.555 63.3784 122.42 65.2688 123.521 66.1451Z" fill="black"/>
<path d="M101.766 81.2081C103.186 81.2371 103.231 79.0301 101.812 79.0011C100.392 78.9721 100.339 81.179 101.766 81.2081Z" fill="black"/>
<path d="M94.5281 90.0245C90.0382 98.3304 87.9088 107.811 88.4889 117.243C88.5779 118.651 90.7846 118.711 90.6959 117.288C90.1375 108.239 92.0967 99.16 96.4107 91.1816C97.0839 89.9295 95.2014 88.7723 94.5281 90.0245Z" fill="black"/>
<path d="M154.759 189.21L84.2683 193.461C82.1842 193.588 80.3959 192.001 80.2693 189.917L78.6633 163.283C78.5368 161.199 80.124 159.41 82.2081 159.284L152.699 155.032C154.783 154.906 156.571 156.493 156.698 158.577L158.304 185.211C158.428 187.294 156.842 189.086 154.759 189.21Z" fill="white" stroke="black" stroke-miterlimit="10"/>
<path d="M142.997 181.728L145.125 181.599L144.195 166.165L142.066 166.294L142.997 181.728Z" fill="black"/>
<path d="M136.874 182.097L141.132 181.84L140.202 166.406L135.944 166.663L136.874 182.097Z" fill="black"/>
<path d="M113.547 183.503L118.04 183.233L117.109 167.799L112.617 168.069L113.547 183.503Z" fill="black"/>
<path d="M134.475 182.241L135.541 182.177L134.611 166.743L133.545 166.807L134.475 182.241Z" fill="black"/>
<path d="M146.484 181.515L147.55 181.451L146.619 166.017L145.553 166.081L146.484 181.515Z" fill="black"/>
<path d="M151.489 181.214L152.563 181.149L151.633 165.715L150.559 165.78L151.489 181.214Z" fill="black"/>
<path d="M130.485 182.483L131.016 182.451L130.085 167.016L129.554 167.048L130.485 182.483Z" fill="black"/>
<path d="M125.163 182.804L127.022 182.692L126.091 167.258L124.232 167.37L125.163 182.804Z" fill="black"/>
<path d="M120.099 183.107L120.631 183.075L119.7 167.641L119.168 167.673L120.099 183.107Z" fill="black"/>
<path d="M121.088 183.049L121.62 183.017L120.689 167.583L120.158 167.615L121.088 183.049Z" fill="black"/>
<path d="M124.05 182.869L124.582 182.837L123.651 167.403L123.12 167.435L124.05 182.869Z" fill="black"/>
<path d="M109.719 183.735L111.848 183.607L110.917 168.173L108.788 168.301L109.719 183.735Z" fill="black"/>
<path d="M103.814 184.091L106.777 183.912L105.846 168.478L102.884 168.657L103.814 184.091Z" fill="black"/>
<path d="M101.198 184.248L102.264 184.184L101.333 168.75L100.267 168.814L101.198 184.248Z" fill="black"/>
<path d="M97.207 184.49L97.7385 184.458L96.8079 169.024L96.2763 169.056L97.207 184.49Z" fill="black"/>
<path d="M93.2136 184.73L93.7451 184.698L92.8145 169.264L92.2829 169.296L93.2136 184.73Z" fill="black"/>
<path d="M85.489 185.197L87.3535 185.085L86.4229 169.651L84.5584 169.763L85.489 185.197Z" fill="black"/>
<path d="M88.4186 185.019L89.2173 184.97L88.2867 169.536L87.488 169.585L88.4186 185.019Z" fill="black"/>
<path d="M82.146 165.638C82.1357 165.684 82.1022 165.708 82.049 165.709L81.4444 165.746C81.3841 165.75 81.3625 165.718 81.3726 165.652L81.9207 162.516C81.9274 162.472 81.961 162.448 82.0152 162.445L82.6464 162.407C82.7032 162.405 82.7258 162.435 82.7122 162.502L82.146 165.638ZM82.8457 165.647C82.795 165.649 82.7622 165.63 82.7473 165.588L82.447 164.78C82.4398 164.762 82.4386 164.744 82.4388 164.729C82.439 164.715 82.4413 164.695 82.4447 164.673L82.6409 163.589C82.647 163.553 82.6639 163.534 82.6901 163.527C82.7178 163.524 82.7381 163.539 82.7516 163.577L83.502 165.515C83.5267 165.575 83.5096 165.609 83.4468 165.612L82.8457 165.647ZM83.894 165.614C83.8373 165.617 83.8065 165.592 83.8029 165.538L83.707 163.948L83.2618 163.975C83.211 163.977 83.1828 163.954 83.1791 163.899L83.1462 163.355C83.1436 163.298 83.1682 163.268 83.219 163.265L83.6643 163.238L83.6113 162.378C83.6087 162.321 83.6334 162.29 83.6937 162.286L84.2766 162.252C84.3334 162.249 84.3641 162.274 84.3692 162.332L84.5597 165.495C84.5633 165.549 84.5362 165.579 84.4795 165.581L83.894 165.614Z" fill="black"/>
<path d="M86.9177 163.868L86.9294 164.043L88.0023 163.979C88.0566 163.976 88.0863 164.003 88.0874 164.056L88.1278 164.729C88.1314 164.784 88.1043 164.813 88.0501 164.817L85.8343 164.95L85.8461 165.125L88.0774 164.99C88.1317 164.986 88.1614 165.013 88.165 165.067L88.1777 165.275C88.1814 165.329 88.1543 165.359 88.101 165.36L85.142 165.539C85.0878 165.543 85.0581 165.516 85.0569 165.462L85.0172 164.781C85.0146 164.724 85.0392 164.693 85.0935 164.689L87.3127 164.555L87.3025 164.384L85.0832 164.518C85.0289 164.522 84.9992 164.495 84.9981 164.441L84.9847 164.242C84.9811 164.188 85.0082 164.158 85.0624 164.155L86.1389 164.09L86.1272 163.915L84.9964 163.983C84.9397 163.986 84.9089 163.961 84.9038 163.904L84.8891 163.666C84.8854 163.612 84.9125 163.582 84.9693 163.579L88.0177 163.397C88.0745 163.394 88.1052 163.419 88.1089 163.473L88.1236 163.711C88.1262 163.767 88.1016 163.798 88.0438 163.803L86.9177 163.868ZM86.5578 162.929C86.6929 162.921 86.8061 162.91 86.8926 162.899C86.9802 162.886 87.0507 162.871 87.1042 162.856C87.1551 162.839 87.1937 162.817 87.2101 162.792C87.2291 162.767 87.2366 162.735 87.2367 162.7C87.2343 162.664 87.2202 162.635 87.1969 162.613C87.1712 162.591 87.1263 162.572 87.0577 162.561C86.9891 162.55 86.8928 162.542 86.7718 162.544C86.6508 162.546 86.4911 162.549 86.2956 162.561L84.9332 162.644C84.8764 162.647 84.8457 162.622 84.842 162.568L84.8269 162.324C84.8232 162.27 84.8503 162.24 84.9071 162.237L86.2454 162.156C86.5796 162.135 86.8593 162.132 87.0805 162.142C87.3018 162.153 87.4805 162.181 87.6129 162.222C87.7478 162.264 87.8438 162.321 87.9008 162.395C87.9579 162.469 87.9906 162.559 87.9964 162.664C88.0022 162.769 87.9831 162.863 87.9362 162.94C87.8918 163.018 87.8114 163.084 87.7036 163.139C87.5933 163.192 87.446 163.236 87.2617 163.27C87.0773 163.305 86.8511 163.327 86.5832 163.344L86.4204 163.355C86.15 163.37 85.9235 163.372 85.7399 163.363C85.5538 163.352 85.4056 163.328 85.2878 163.288C85.17 163.247 85.0875 163.192 85.0344 163.123C84.9813 163.054 84.9511 162.965 84.9463 162.858L84.9469 162.849C84.9433 162.795 84.9704 162.765 85.0236 162.764L85.6161 162.728C85.6729 162.725 85.7036 162.75 85.7073 162.804C85.7083 162.837 85.7209 162.863 85.7431 162.886C85.7663 162.908 85.8002 162.925 85.8532 162.938C85.9037 162.951 85.9744 162.957 86.0628 162.956C86.1512 162.955 86.2637 162.952 86.3989 162.944L86.5578 162.929Z" fill="black"/>
<path d="M88.6052 165.234C88.5484 165.237 88.5187 165.21 88.5147 165.149L88.4866 164.677C88.483 164.623 88.5101 164.593 88.5668 164.591L88.8407 164.574L88.783 163.606C88.7794 163.551 88.8065 163.522 88.8597 163.521L89.4065 163.489C89.4608 163.485 89.4904 163.512 89.4941 163.567L89.5518 164.534L89.8282 164.518C90.0262 164.507 90.2163 164.487 90.3949 164.46C90.5736 164.432 90.7365 164.386 90.8801 164.323L90.7377 161.948C90.7351 161.891 90.7597 161.86 90.8175 161.855L91.4004 161.821C91.4572 161.818 91.4879 161.843 91.493 161.901L91.5602 163.028L91.7763 163.016C91.8306 163.012 91.8602 163.039 91.8628 163.096L91.8957 163.64C91.8994 163.695 91.8723 163.724 91.819 163.725L91.603 163.738L91.6835 165.064C91.6872 165.118 91.6601 165.148 91.6033 165.15L91.0204 165.185C90.9636 165.187 90.9328 165.163 90.9292 165.108L90.9165 164.901C90.7843 164.971 90.6222 165.03 90.4302 165.075C90.2382 165.121 90.0233 165.151 89.7831 165.165L88.6052 165.234ZM90.3878 163.903C90.3824 163.93 90.373 163.952 90.3592 163.964C90.348 163.977 90.3253 163.982 90.2972 163.979L89.747 164.012C89.7203 164.013 89.6979 164.004 89.6836 163.989C89.6693 163.974 89.6631 163.954 89.6685 163.927C89.6828 163.851 89.6948 163.759 89.7071 163.653C89.7183 163.549 89.7266 163.438 89.732 163.32C89.7364 163.205 89.7393 163.086 89.7397 162.966C89.7402 162.846 89.741 162.732 89.7351 162.627L88.5838 162.696C88.5295 162.699 88.4999 162.672 88.4987 162.619L88.4727 162.177C88.4691 162.123 88.4961 162.093 88.5494 162.092L90.3741 161.983C90.4309 161.981 90.4616 162.005 90.4653 162.059L90.4866 162.54C90.4933 162.748 90.4951 162.919 90.4944 163.053C90.4902 163.189 90.4858 163.305 90.4767 163.404C90.4676 163.502 90.4552 163.588 90.4419 163.662C90.4252 163.737 90.4088 163.818 90.3878 163.903Z" fill="black"/>
<path d="M92.3247 164.981C92.295 164.989 92.274 164.983 92.2597 164.968C92.2453 164.953 92.2402 164.931 92.2371 164.903L92.204 164.373C92.2034 164.347 92.2082 164.328 92.222 164.316C92.2357 164.304 92.2569 164.296 92.2792 164.285C92.6359 164.147 92.9021 163.924 93.0767 163.619C93.2513 163.314 93.3236 162.911 93.2924 162.411L92.1291 162.481C92.0748 162.484 92.0451 162.457 92.0439 162.404L92.0167 161.944C92.0131 161.89 92.0402 161.86 92.0934 161.859L93.9905 161.745C94.0473 161.743 94.078 161.767 94.0831 161.825L94.1095 162.273C94.1324 162.631 94.106 162.96 94.0349 163.256C93.9639 163.551 93.8532 163.815 93.7003 164.047C93.5485 164.277 93.3556 164.472 93.1226 164.629C92.8932 164.785 92.6262 164.905 92.3247 164.981ZM94.7033 164.963C94.6465 164.965 94.6158 164.941 94.6121 164.887L94.4216 161.723C94.419 161.667 94.4436 161.636 94.5039 161.632L95.0869 161.598C95.1436 161.595 95.1744 161.62 95.1795 161.677L95.37 164.84C95.3736 164.895 95.3465 164.924 95.2897 164.927L94.7033 164.963Z" fill="black"/>
<path d="M95.5818 161.732C95.5782 161.677 95.6053 161.648 95.662 161.645L97.0089 161.564C97.0631 161.561 97.0928 161.588 97.0965 161.642L97.1221 162.078C97.1247 162.135 97.1001 162.165 97.0458 162.169L95.699 162.25C95.6422 162.252 95.6115 162.228 95.6064 162.17L95.5818 161.732ZM96.3564 162.331C96.4071 162.329 96.4353 162.353 96.439 162.407L96.4818 164.145L96.6496 164.137C96.7943 164.127 96.9383 164.105 97.0839 164.072C97.2306 164.037 97.3533 163.989 97.4572 163.93L97.3149 161.575C97.3123 161.519 97.3369 161.488 97.3912 161.484L97.8606 161.455C97.9149 161.451 97.9446 161.478 97.9472 161.535L98.0161 162.707L98.2357 162.694L98.1652 161.498C98.1626 161.441 98.1872 161.41 98.2414 161.406L98.7133 161.378C98.7676 161.375 98.7973 161.402 98.7999 161.459L98.9904 164.622C98.994 164.676 98.9669 164.706 98.9137 164.707L98.4418 164.735C98.3875 164.738 98.3579 164.711 98.3567 164.658L98.2798 163.386L98.0602 163.4L98.1332 164.632C98.1368 164.686 98.1098 164.716 98.0555 164.72L97.5861 164.749C97.5318 164.752 97.5021 164.725 97.501 164.672L97.4923 164.525C97.4076 164.58 97.2958 164.63 97.1566 164.668C97.0174 164.707 96.8604 164.732 96.6865 164.741L95.89 164.789C95.8357 164.792 95.806 164.765 95.8034 164.708L95.75 162.45C95.7484 162.426 95.7542 162.405 95.7701 162.388C95.7859 162.371 95.8061 162.365 95.8302 162.363L96.3564 162.331Z" fill="black"/>
<path d="M100.301 164.769C100.244 164.771 100.223 164.745 100.24 164.691L101.262 161.25C101.28 161.193 101.315 161.164 101.366 161.162L102.075 161.119C102.136 161.115 102.157 161.141 102.136 161.197L101.115 164.638C101.1 164.693 101.065 164.722 101.013 164.727L100.301 164.769Z" fill="black"/>
<path d="M103.537 162.968C103.48 162.971 103.45 162.946 103.445 162.888L103.423 162.533C103.42 162.479 103.447 162.449 103.503 162.447L104.39 162.393L104.37 162.042C104.367 161.988 104.394 161.958 104.447 161.957L105.076 161.918C105.13 161.915 105.16 161.942 105.161 161.995L105.181 162.346L106.552 162.264C106.609 162.261 106.639 162.286 106.643 162.34L106.664 162.695C106.667 162.752 106.642 162.783 106.585 162.788L103.537 162.968ZM104.708 164.44C104.335 164.463 104.052 164.432 103.857 164.345C103.663 164.257 103.558 164.093 103.542 163.852C103.528 163.612 103.612 163.439 103.796 163.329C103.979 163.221 104.257 163.152 104.63 163.13L105.529 163.075C105.898 163.054 106.182 163.085 106.377 163.172C106.571 163.26 106.677 163.421 106.69 163.661C106.705 163.899 106.621 164.072 106.436 164.185C106.251 164.298 105.977 164.365 105.607 164.386L104.708 164.44ZM106.412 162.003C106.407 162.03 106.397 162.053 106.386 162.065C106.375 162.078 106.354 162.085 106.329 162.083L105.724 162.12C105.698 162.12 105.675 162.111 105.661 162.096C105.647 162.081 105.64 162.061 105.646 162.034C105.658 161.969 105.669 161.894 105.677 161.813C105.685 161.731 105.689 161.651 105.688 161.568L103.538 161.699C103.484 161.703 103.454 161.676 103.453 161.623L103.43 161.223C103.426 161.169 103.453 161.139 103.506 161.138L106.381 160.964C106.438 160.962 106.469 160.986 106.472 161.041L106.482 161.338C106.488 161.472 106.483 161.596 106.473 161.709C106.451 161.82 106.435 161.919 106.412 162.003ZM105.621 163.934C105.735 163.927 105.812 163.903 105.855 163.865C105.898 163.825 105.916 163.774 105.913 163.711C105.91 163.648 105.884 163.599 105.837 163.565C105.79 163.53 105.71 163.518 105.596 163.525L104.616 163.584C104.501 163.591 104.421 163.614 104.379 163.652C104.334 163.689 104.315 163.742 104.319 163.808C104.323 163.877 104.349 163.926 104.397 163.958C104.445 163.99 104.526 164.001 104.64 163.995L105.621 163.934Z" fill="black"/>
<path d="M107.158 163.028C107.101 163.03 107.071 163.006 107.067 162.946L107.052 162.693C107.048 162.639 107.075 162.609 107.132 162.607L110.181 162.424C110.237 162.421 110.268 162.446 110.272 162.5L110.286 162.752C110.289 162.809 110.264 162.84 110.207 162.845L107.158 163.028ZM108.319 164.223C108.133 164.233 107.969 164.235 107.826 164.225C107.681 164.214 107.562 164.191 107.463 164.155C107.363 164.119 107.288 164.067 107.233 164.003C107.178 163.939 107.148 163.856 107.144 163.755C107.132 163.553 107.221 163.403 107.412 163.304C107.603 163.205 107.883 163.144 108.256 163.121L109.155 163.067C109.528 163.045 109.812 163.073 110.005 163.151C110.201 163.23 110.302 163.366 110.314 163.561C110.326 163.757 110.239 163.902 110.056 163.995C109.871 164.088 109.594 164.148 109.222 164.168L108.319 164.223ZM107.193 162.398C107.139 162.402 107.109 162.374 107.108 162.321L107.063 161.569C107.059 161.515 107.086 161.485 107.139 161.484L109.331 161.353L109.318 161.166L107.117 161.299C107.06 161.302 107.028 161.274 107.025 161.211L107.014 161.007C107.01 160.953 107.037 160.923 107.094 160.92L109.983 160.747C110.04 160.744 110.071 160.769 110.074 160.823L110.117 161.541C110.12 161.596 110.093 161.625 110.036 161.628L107.845 161.759L107.857 161.961L110.085 161.827C110.115 161.825 110.139 161.832 110.152 161.849C110.165 161.866 110.176 161.889 110.176 161.918L110.189 162.137C110.193 162.192 110.166 162.221 110.109 162.224L107.193 162.398ZM109.232 163.759C109.346 163.751 109.423 163.736 109.464 163.709C109.504 163.682 109.522 163.646 109.519 163.598C109.516 163.549 109.493 163.513 109.449 163.492C109.405 163.471 109.327 163.461 109.212 163.469L108.232 163.528C108.118 163.535 108.038 163.552 107.989 163.578C107.942 163.605 107.918 163.642 107.923 163.694C107.926 163.742 107.952 163.777 108.002 163.798C108.052 163.818 108.135 163.824 108.249 163.816L109.232 163.759Z" fill="black"/>
<path d="M110.577 160.785C110.573 160.73 110.601 160.701 110.657 160.698L112.51 160.586C112.566 160.583 112.597 160.608 112.601 160.662L112.622 161.037C112.626 161.092 112.599 161.121 112.542 161.124L112.04 161.154L111.452 162.25C111.441 162.269 111.428 162.287 111.414 162.299C111.399 162.313 111.379 162.319 111.355 162.321L110.714 162.36C110.682 162.361 110.658 162.354 110.642 162.336C110.627 162.318 110.628 162.295 110.643 162.266L111.195 161.205L110.69 161.236C110.633 161.239 110.602 161.214 110.599 161.16L110.577 160.785ZM110.826 162.653C110.824 162.596 110.848 162.566 110.902 162.562L113.743 162.392C113.8 162.389 113.831 162.414 113.834 162.468L113.907 163.7C113.911 163.755 113.884 163.784 113.827 163.787L110.991 163.959C110.935 163.962 110.904 163.937 110.9 163.883L110.826 162.653ZM111.623 163.019L111.647 163.422L113.109 163.334L113.084 162.931L111.623 163.019ZM112.035 162.257C112.014 162.26 111.995 162.255 111.982 162.244C111.969 162.235 111.955 162.218 111.938 162.196L111.795 161.998C111.781 161.983 111.774 161.966 111.775 161.949C111.776 161.931 111.782 161.91 111.793 161.892L112.072 161.364C112.088 161.333 112.104 161.316 112.125 161.316C112.146 161.315 112.163 161.329 112.183 161.358L112.733 162.118C112.751 162.144 112.753 162.168 112.739 162.185C112.726 162.203 112.706 162.216 112.677 162.215L112.035 162.257ZM113.142 162.219C113.085 162.222 113.054 162.197 113.05 162.143L113.03 161.792L112.633 161.816C112.579 161.819 112.55 161.792 112.546 161.738L112.52 161.302C112.518 161.246 112.542 161.215 112.597 161.211L112.994 161.187L112.959 160.604C112.957 160.547 112.981 160.517 113.042 160.512L113.625 160.478C113.681 160.476 113.712 160.5 113.717 160.558L113.811 162.098C113.814 162.152 113.787 162.182 113.731 162.184L113.142 162.219Z" fill="black"/>
<path d="M138.044 161.438C138.022 161.462 138.006 161.481 137.989 161.492C137.975 161.506 137.951 161.514 137.922 161.513L137.08 161.562C137.054 161.563 137.033 161.557 137.025 161.542C137.014 161.526 137.016 161.506 137.028 161.485C137.069 161.402 137.13 161.319 137.206 161.234C137.283 161.149 137.368 161.064 137.457 160.979C137.546 160.893 137.637 160.808 137.731 160.724C137.824 160.64 137.909 160.558 137.982 160.48C138.057 160.4 138.117 160.326 138.163 160.251C138.208 160.179 138.23 160.112 138.227 160.05C138.224 160.007 138.218 159.967 138.208 159.927C138.197 159.89 138.179 159.856 138.155 159.829C138.129 159.8 138.097 159.778 138.06 159.763C138.02 159.746 137.972 159.741 137.912 159.745C137.804 159.752 137.73 159.795 137.692 159.872C137.653 159.95 137.638 160.049 137.645 160.166L137.649 160.227C137.651 160.283 137.627 160.314 137.572 160.318L136.968 160.355C136.917 160.357 136.886 160.332 136.88 160.277L136.878 160.241C136.867 160.043 136.883 159.871 136.927 159.725C136.973 159.58 137.038 159.461 137.128 159.364C137.218 159.267 137.328 159.195 137.457 159.144C137.587 159.093 137.731 159.065 137.888 159.055C138.037 159.047 138.176 159.058 138.304 159.088C138.435 159.12 138.547 159.173 138.645 159.248C138.743 159.322 138.822 159.42 138.882 159.535C138.942 159.651 138.978 159.79 138.986 159.951C138.995 160.113 138.969 160.258 138.908 160.39C138.846 160.523 138.768 160.648 138.67 160.763C138.574 160.881 138.468 160.992 138.353 161.099C138.241 161.213 138.136 161.324 138.044 161.438ZM139.026 161.571C139.077 161.569 139.104 161.595 139.109 161.653L139.141 162.179C139.144 162.233 139.121 162.261 139.069 162.266L137.109 162.383C137.058 162.385 137.03 162.362 137.026 162.308L136.995 161.781C136.992 161.725 137.017 161.694 137.067 161.692L139.026 161.571Z" fill="black"/>
<path d="M139.446 160.17C139.431 159.938 139.447 159.746 139.49 159.588C139.535 159.431 139.601 159.303 139.691 159.206C139.781 159.109 139.892 159.035 140.025 158.988C140.159 158.942 140.311 158.915 140.48 158.903C140.645 158.894 140.796 158.904 140.936 158.933C141.074 158.962 141.196 159.021 141.295 159.107C141.396 159.193 141.478 159.313 141.538 159.464C141.601 159.613 141.638 159.805 141.653 160.036L141.708 160.962C141.722 161.194 141.706 161.386 141.663 161.544C141.62 161.702 141.553 161.829 141.462 161.926C141.372 162.023 141.259 162.096 141.125 162.143C140.991 162.189 140.839 162.216 140.674 162.226C140.509 162.236 140.355 162.225 140.218 162.196C140.08 162.168 139.959 162.108 139.859 162.023C139.758 161.936 139.676 161.817 139.615 161.668C139.552 161.519 139.515 161.327 139.5 161.096L139.446 160.17ZM140.867 160.115C140.857 159.949 140.829 159.826 140.784 159.752C140.74 159.675 140.652 159.641 140.525 159.649C140.396 159.657 140.316 159.702 140.279 159.783C140.242 159.865 140.228 159.988 140.237 160.156L140.289 161.025C140.301 161.193 140.328 161.316 140.373 161.391C140.418 161.465 140.507 161.5 140.633 161.491C140.762 161.484 140.843 161.438 140.881 161.36C140.918 161.279 140.932 161.156 140.923 160.988L140.867 160.115Z" fill="black"/>
<path d="M143.185 161.13C143.163 161.153 143.146 161.172 143.13 161.183C143.115 161.197 143.092 161.205 143.063 161.204L142.221 161.254C142.195 161.254 142.174 161.248 142.165 161.233C142.155 161.217 142.157 161.197 142.169 161.176C142.209 161.093 142.27 161.01 142.347 160.925C142.424 160.84 142.509 160.756 142.598 160.67C142.687 160.584 142.778 160.499 142.871 160.415C142.965 160.331 143.049 160.249 143.123 160.172C143.198 160.091 143.258 160.017 143.304 159.943C143.349 159.871 143.371 159.804 143.368 159.741C143.365 159.699 143.359 159.658 143.349 159.618C143.338 159.582 143.32 159.548 143.296 159.52C143.27 159.492 143.238 159.47 143.201 159.454C143.163 159.438 143.113 159.432 143.053 159.436C142.944 159.443 142.871 159.486 142.832 159.563C142.794 159.641 142.779 159.74 142.786 159.857L142.79 159.918C142.792 159.975 142.768 160.005 142.713 160.009L142.109 160.046C142.058 160.048 142.027 160.023 142.021 159.968L142.019 159.932C142.008 159.734 142.024 159.562 142.068 159.416C142.114 159.271 142.178 159.152 142.269 159.055C142.358 158.96 142.468 158.886 142.598 158.835C142.728 158.784 142.872 158.756 143.028 158.746C143.178 158.738 143.317 158.749 143.445 158.78C143.576 158.811 143.688 158.864 143.785 158.94C143.884 159.013 143.963 159.111 144.023 159.227C144.083 159.343 144.119 159.481 144.127 159.643C144.137 159.802 144.11 159.949 144.049 160.082C143.987 160.214 143.908 160.339 143.811 160.454C143.714 160.572 143.609 160.683 143.494 160.79C143.383 160.902 143.28 161.014 143.185 161.13ZM144.167 161.262C144.217 161.26 144.245 161.286 144.25 161.344L144.281 161.87C144.285 161.924 144.261 161.953 144.21 161.957L142.25 162.074C142.199 162.077 142.171 162.053 142.167 161.999L142.135 161.473C142.133 161.416 142.157 161.385 142.208 161.383L144.167 161.262Z" fill="black"/>
<path d="M145.377 160.465L145.354 160.065C145.35 160.011 145.377 159.981 145.434 159.979L145.506 159.974C145.641 159.96 145.741 159.923 145.808 159.863C145.871 159.802 145.901 159.711 145.893 159.588C145.891 159.546 145.884 159.505 145.874 159.466C145.863 159.429 145.845 159.395 145.822 159.368C145.796 159.339 145.764 159.317 145.72 159.302C145.679 159.287 145.627 159.28 145.563 159.286C145.448 159.293 145.372 159.335 145.337 159.413C145.301 159.492 145.286 159.589 145.293 159.706L145.297 159.766C145.3 159.823 145.275 159.854 145.221 159.857L144.596 159.895C144.545 159.897 144.514 159.872 144.511 159.818L144.508 159.782C144.497 159.584 144.514 159.412 144.56 159.267C144.606 159.122 144.674 159.001 144.767 158.905C144.86 158.809 144.972 158.736 145.105 158.686C145.237 158.636 145.384 158.607 145.543 158.597C145.697 158.588 145.838 158.601 145.969 158.632C146.099 158.663 146.217 158.718 146.315 158.792C146.416 158.866 146.496 158.961 146.558 159.078C146.621 159.195 146.657 159.333 146.666 159.493C146.669 159.64 146.652 159.771 146.619 159.886C146.583 160 146.533 160.096 146.466 160.174C146.587 160.242 146.681 160.34 146.743 160.463C146.806 160.586 146.844 160.728 146.852 160.889C146.862 161.049 146.84 161.192 146.791 161.315C146.74 161.437 146.666 161.544 146.572 161.628C146.477 161.714 146.364 161.781 146.233 161.829C146.102 161.876 145.958 161.904 145.805 161.913C145.645 161.923 145.491 161.914 145.347 161.886C145.204 161.858 145.077 161.805 144.963 161.725C144.853 161.646 144.762 161.541 144.692 161.406C144.622 161.274 144.583 161.108 144.57 160.907L144.568 160.871C144.568 160.815 144.594 160.788 144.645 160.785L145.27 160.748C145.324 160.745 145.354 160.772 145.356 160.829L145.36 160.889C145.367 161.006 145.403 161.094 145.47 161.152C145.536 161.212 145.627 161.238 145.742 161.23C145.871 161.223 145.957 161.186 146.008 161.119C146.057 161.052 146.08 160.976 146.073 160.888C146.059 160.648 145.897 160.531 145.59 160.537L145.467 160.544C145.411 160.544 145.38 160.519 145.377 160.465Z" fill="black"/>
<path d="M147.195 161.939C147.138 161.941 147.117 161.915 147.134 161.86L148.156 158.42C148.174 158.363 148.21 158.334 148.26 158.332L148.97 158.289C149.03 158.285 149.052 158.311 149.031 158.367L148.009 161.808C147.995 161.863 147.959 161.892 147.907 161.897L147.195 161.939Z" fill="black"/>
<path d="M149.404 159.569C149.389 159.338 149.406 159.145 149.448 158.987C149.494 158.83 149.559 158.702 149.649 158.605C149.74 158.508 149.85 158.434 149.984 158.388C150.117 158.341 150.269 158.314 150.438 158.303C150.604 158.293 150.755 158.303 150.895 158.333C151.032 158.361 151.154 158.421 151.253 158.506C151.354 158.593 151.436 158.712 151.496 158.863C151.56 159.013 151.597 159.204 151.611 159.436L151.666 160.361C151.68 160.593 151.664 160.786 151.621 160.944C151.579 161.102 151.511 161.229 151.42 161.325C151.33 161.422 151.217 161.495 151.083 161.542C150.95 161.589 150.798 161.616 150.632 161.626C150.467 161.635 150.314 161.624 150.176 161.596C150.038 161.567 149.917 161.508 149.818 161.422C149.716 161.336 149.634 161.216 149.573 161.068C149.51 160.918 149.473 160.727 149.459 160.495L149.404 159.569ZM150.825 159.514C150.815 159.349 150.787 159.226 150.742 159.151C150.699 159.074 150.61 159.04 150.484 159.049C150.354 159.056 150.274 159.101 150.237 159.183C150.2 159.264 150.186 159.387 150.195 159.555L150.248 160.424C150.259 160.593 150.286 160.716 150.331 160.79C150.376 160.865 150.465 160.899 150.591 160.89C150.721 160.883 150.801 160.838 150.84 160.76C150.876 160.679 150.89 160.555 150.881 160.387L150.825 159.514Z" fill="black"/>
<path d="M151.985 160.97L151.955 160.477C151.954 160.444 151.957 160.416 151.962 160.395L152.826 158.304C152.844 158.247 152.88 158.218 152.931 158.216L153.601 158.177C153.661 158.173 153.682 158.199 153.662 158.255L152.803 160.325L153.174 160.301L153.148 159.886C153.148 159.86 153.146 159.836 153.149 159.822C153.15 159.805 153.155 159.787 153.164 159.764L153.715 158.436C153.728 158.406 153.746 158.39 153.773 158.395C153.801 158.398 153.817 158.417 153.818 158.449L153.928 160.257L154.154 160.243C154.205 160.241 154.232 160.267 154.237 160.325L154.266 160.835C154.27 160.89 154.246 160.918 154.195 160.922L153.969 160.936L153.99 161.291C153.992 161.342 153.966 161.369 153.909 161.374L153.322 161.41C153.268 161.414 153.24 161.39 153.235 161.338L153.214 160.983L152.062 161.052C152.016 161.05 151.989 161.024 151.985 160.97Z" fill="black"/>
<path d="M105.975 188.379C105.958 188.398 105.942 188.415 105.932 188.426C105.918 188.437 105.9 188.445 105.876 188.446L105.185 188.488C105.163 188.49 105.146 188.483 105.14 188.469C105.131 188.456 105.132 188.439 105.143 188.42C105.178 188.35 105.225 188.279 105.291 188.207C105.354 188.134 105.423 188.06 105.497 187.988C105.568 187.916 105.645 187.843 105.722 187.772C105.798 187.701 105.866 187.63 105.929 187.566C105.989 187.497 106.04 187.433 106.077 187.373C106.114 187.312 106.133 187.252 106.128 187.201C106.126 187.165 106.12 187.13 106.113 187.098C106.103 187.064 106.088 187.037 106.07 187.012C106.05 186.989 106.023 186.969 105.991 186.955C105.958 186.942 105.919 186.937 105.868 186.939C105.778 186.946 105.719 186.982 105.688 187.049C105.657 187.115 105.645 187.2 105.65 187.299L105.655 187.351C105.658 187.399 105.638 187.426 105.593 187.428L105.097 187.458C105.055 187.461 105.032 187.439 105.025 187.392L105.023 187.362C105.012 187.193 105.026 187.047 105.063 186.924C105.099 186.802 105.154 186.699 105.226 186.618C105.299 186.537 105.389 186.475 105.498 186.432C105.604 186.389 105.722 186.365 105.851 186.358C105.974 186.351 106.088 186.36 106.194 186.387C106.3 186.414 106.395 186.459 106.473 186.524C106.555 186.588 106.62 186.671 106.669 186.771C106.718 186.87 106.748 186.988 106.755 187.126C106.761 187.264 106.742 187.387 106.691 187.501C106.641 187.615 106.576 187.72 106.497 187.818C106.417 187.917 106.331 188.012 106.236 188.105C106.137 188.186 106.051 188.282 105.975 188.379ZM106.782 188.495C106.824 188.492 106.847 188.516 106.85 188.564L106.876 189.012C106.881 189.057 106.858 189.083 106.816 189.086L105.207 189.183C105.165 189.186 105.142 189.164 105.138 189.116L105.112 188.668C105.109 188.62 105.129 188.593 105.171 188.591L106.782 188.495Z" fill="black"/>
<path d="M109.243 188.939L108.69 188.971C108.646 188.973 108.622 188.951 108.619 188.903L108.506 187.033L108.299 187.19C108.268 187.215 108.239 187.208 108.206 187.174L107.919 186.761C107.891 186.723 107.893 186.691 107.926 186.667L108.47 186.244C108.487 186.231 108.507 186.224 108.529 186.222L109.073 186.189C109.121 186.186 109.144 186.207 109.146 186.252L109.304 188.862C109.308 188.91 109.288 188.937 109.243 188.939Z" fill="black"/>
<path d="M113.467 188.686L112.914 188.718C112.869 188.72 112.846 188.698 112.843 188.65L112.729 186.779L112.523 186.936C112.492 186.961 112.462 186.955 112.43 186.921L112.143 186.507C112.115 186.469 112.116 186.438 112.15 186.414L112.693 185.991C112.711 185.977 112.731 185.971 112.752 185.968L113.297 185.936C113.345 185.932 113.368 185.954 113.37 185.999L113.528 188.609C113.534 188.658 113.512 188.681 113.467 188.686Z" fill="black"/>
<path d="M114.804 186.837C114.793 186.639 114.804 186.473 114.839 186.339C114.875 186.204 114.93 186.095 115.003 186.011C115.076 185.928 115.169 185.867 115.276 185.827C115.386 185.788 115.511 185.764 115.65 185.755C115.785 185.747 115.91 185.755 116.026 185.78C116.138 185.807 116.237 185.857 116.32 185.93C116.404 186.003 116.47 186.104 116.521 186.234C116.574 186.361 116.604 186.527 116.616 186.722L116.663 187.513C116.674 187.711 116.663 187.876 116.627 188.011C116.592 188.145 116.537 188.254 116.464 188.338C116.391 188.421 116.298 188.482 116.188 188.521C116.078 188.56 115.953 188.584 115.818 188.592C115.683 188.6 115.558 188.591 115.442 188.566C115.328 188.539 115.231 188.49 115.147 188.417C115.064 188.343 114.997 188.242 114.946 188.113C114.894 187.985 114.864 187.82 114.852 187.625L114.804 186.837ZM115.971 186.792C115.963 186.651 115.939 186.547 115.902 186.482C115.865 186.416 115.792 186.386 115.687 186.392C115.582 186.398 115.514 186.436 115.484 186.506C115.453 186.575 115.443 186.682 115.451 186.823L115.495 187.566C115.505 187.71 115.526 187.813 115.563 187.878C115.601 187.941 115.671 187.971 115.776 187.965C115.881 187.959 115.95 187.92 115.978 187.853C116.01 187.784 116.019 187.679 116.011 187.536L115.971 186.792Z" fill="black"/>
<path d="M117.585 186.668C117.575 186.47 117.585 186.305 117.621 186.17C117.657 186.036 117.711 185.926 117.784 185.843C117.858 185.759 117.95 185.698 118.058 185.658C118.168 185.62 118.293 185.595 118.431 185.586C118.566 185.578 118.692 185.587 118.807 185.612C118.919 185.638 119.019 185.688 119.102 185.762C119.186 185.835 119.252 185.936 119.303 186.066C119.355 186.193 119.386 186.358 119.398 186.554L119.445 187.344C119.456 187.542 119.445 187.708 119.409 187.842C119.373 187.977 119.319 188.086 119.246 188.169C119.172 188.253 119.08 188.314 118.97 188.353C118.859 188.392 118.735 188.416 118.6 188.423C118.465 188.431 118.339 188.423 118.224 188.398C118.109 188.37 118.013 188.321 117.929 188.248C117.845 188.175 117.779 188.074 117.728 187.944C117.676 187.817 117.645 187.651 117.633 187.456L117.585 186.668ZM118.753 186.624C118.745 186.482 118.721 186.379 118.684 186.313C118.647 186.248 118.574 186.218 118.469 186.223C118.364 186.229 118.295 186.268 118.266 186.338C118.234 186.406 118.225 186.514 118.233 186.655L118.277 187.397C118.286 187.542 118.308 187.645 118.345 187.71C118.383 187.773 118.453 187.802 118.558 187.796C118.663 187.79 118.732 187.752 118.76 187.685C118.792 187.616 118.8 187.511 118.793 187.367L118.753 186.624Z" fill="black"/>
<path d="M123.56 186.952C123.563 187 123.543 187.027 123.498 187.028L122.025 187.118C121.977 187.121 121.954 187.097 121.951 187.049L121.925 186.642C121.922 186.594 121.944 186.568 121.99 186.564L123.464 186.475C123.508 186.473 123.532 186.494 123.535 186.542L123.56 186.952Z" fill="black"/>
<path d="M127.695 186.365C127.792 186.435 127.866 186.522 127.925 186.628C127.983 186.735 128.013 186.85 128.021 186.979C128.028 187.102 128.014 187.22 127.98 187.329C127.946 187.437 127.888 187.533 127.812 187.619C127.732 187.703 127.633 187.772 127.514 187.825C127.392 187.879 127.25 187.911 127.087 187.922C126.924 187.933 126.779 187.916 126.651 187.877C126.524 187.838 126.418 187.782 126.33 187.707C126.243 187.633 126.175 187.545 126.128 187.441C126.081 187.336 126.052 187.222 126.044 187.101C126.037 186.972 126.053 186.85 126.096 186.739C126.14 186.628 126.204 186.532 126.292 186.454C126.228 186.396 126.18 186.323 126.143 186.237C126.105 186.151 126.082 186.053 126.076 185.948C126.068 185.827 126.082 185.716 126.119 185.614C126.153 185.511 126.208 185.423 126.28 185.348C126.353 185.273 126.443 185.211 126.549 185.167C126.657 185.121 126.778 185.096 126.914 185.088C127.049 185.08 127.173 185.091 127.286 185.124C127.398 185.156 127.495 185.206 127.575 185.272C127.656 185.338 127.721 185.421 127.769 185.517C127.816 185.613 127.843 185.724 127.851 185.844C127.865 186.049 127.811 186.226 127.695 186.365ZM127.05 187.358C127.113 187.355 127.165 187.342 127.206 187.321C127.247 187.3 127.282 187.274 127.308 187.24C127.333 187.207 127.349 187.17 127.361 187.128C127.369 187.087 127.375 187.046 127.372 187.003C127.369 186.961 127.359 186.922 127.347 186.882C127.331 186.843 127.31 186.808 127.281 186.778C127.253 186.749 127.216 186.724 127.173 186.709C127.129 186.694 127.073 186.688 127.01 186.691C126.947 186.694 126.895 186.707 126.854 186.728C126.813 186.749 126.778 186.776 126.753 186.809C126.727 186.842 126.709 186.878 126.701 186.919C126.69 186.958 126.687 187.001 126.69 187.043C126.693 187.085 126.701 187.127 126.715 187.165C126.73 187.206 126.751 187.239 126.78 187.269C126.809 187.298 126.845 187.322 126.889 187.338C126.934 187.356 126.989 187.365 127.05 187.358ZM126.948 185.636C126.863 185.642 126.802 185.669 126.764 185.717C126.726 185.766 126.711 185.83 126.715 185.905C126.719 185.98 126.744 186.04 126.786 186.087C126.827 186.134 126.892 186.155 126.976 186.149C127.061 186.143 127.122 186.116 127.161 186.065C127.197 186.013 127.215 185.95 127.21 185.878C127.206 185.803 127.182 185.743 127.139 185.698C127.097 185.652 127.032 185.63 126.948 185.636Z" fill="black"/>
<path d="M130.461 184.918C130.503 184.915 130.525 184.939 130.528 184.987L130.556 185.453C130.56 185.499 130.538 185.525 130.495 185.527L128.905 185.623C128.863 185.626 128.839 185.605 128.836 185.556L128.808 185.091C128.805 185.042 128.825 185.016 128.867 185.013L130.461 184.918ZM129.806 185.74C129.812 185.696 129.837 185.671 129.882 185.669L130.444 185.635C130.465 185.635 130.481 185.639 130.491 185.649C130.504 185.66 130.507 185.676 130.503 185.698L130.12 187.612C130.107 187.659 130.076 187.685 130.033 187.687L129.467 187.723C129.419 187.726 129.402 187.704 129.416 187.657L129.806 185.74Z" fill="black"/>
<path d="M132.633 186.772C132.616 186.791 132.6 186.808 132.59 186.818C132.576 186.83 132.559 186.837 132.534 186.839L131.843 186.88C131.821 186.883 131.804 186.876 131.798 186.862C131.789 186.849 131.79 186.832 131.801 186.813C131.836 186.743 131.883 186.672 131.949 186.599C132.012 186.526 132.081 186.452 132.155 186.381C132.226 186.308 132.304 186.235 132.38 186.165C132.457 186.094 132.524 186.023 132.587 185.958C132.648 185.89 132.698 185.826 132.735 185.765C132.772 185.704 132.791 185.645 132.786 185.593C132.784 185.557 132.778 185.522 132.771 185.49C132.762 185.457 132.746 185.43 132.728 185.404C132.706 185.381 132.681 185.362 132.649 185.348C132.616 185.334 132.575 185.329 132.527 185.332C132.436 185.338 132.377 185.375 132.346 185.441C132.315 185.507 132.303 185.593 132.308 185.692L132.313 185.744C132.316 185.792 132.296 185.819 132.252 185.821L131.756 185.85C131.713 185.853 131.69 185.832 131.683 185.785L131.681 185.755C131.67 185.586 131.684 185.439 131.721 185.317C131.758 185.195 131.813 185.092 131.885 185.01C131.957 184.929 132.047 184.867 132.156 184.825C132.262 184.781 132.38 184.758 132.509 184.75C132.632 184.743 132.746 184.753 132.852 184.779C132.958 184.806 133.053 184.852 133.131 184.917C133.213 184.981 133.278 185.063 133.327 185.163C133.376 185.263 133.406 185.381 133.413 185.518C133.42 185.656 133.4 185.78 133.349 185.893C133.299 186.007 133.234 186.112 133.155 186.211C133.076 186.309 132.989 186.405 132.894 186.497C132.796 186.579 132.709 186.674 132.633 186.772ZM133.44 186.887C133.483 186.884 133.505 186.908 133.508 186.956L133.534 187.404C133.539 187.45 133.516 187.476 133.474 187.478L131.865 187.576C131.823 187.578 131.8 187.557 131.797 187.509L131.77 187.061C131.767 187.013 131.787 186.986 131.829 186.983L133.44 186.887Z" fill="black"/>
<path d="M281.791 153.088C264.259 148.127 256.311 160.519 243.83 163.588C231.35 166.657 219.952 159.03 206.724 171.554C196.317 181.408 195.003 200.825 201.151 217.858C207.345 235.026 224.143 261.559 245.436 262.594C252.298 262.929 257.383 258.992 265.989 255.953C267.015 255.589 268.077 255.332 269.151 255.177C278.109 253.902 283.814 255.175 289.738 251.698C308.123 240.903 310.689 209.604 308.212 191.521C305.757 173.583 295.581 156.991 281.791 153.088Z" fill="#D1270D" stroke="black" stroke-miterlimit="10"/>
<path d="M234.831 171.672C241.963 172.915 249.414 171.023 255.34 166.933C256.312 166.262 255.21 164.8 254.245 165.47C248.716 169.282 241.763 171.024 235.119 169.86C233.949 169.664 233.673 171.469 234.831 171.672Z" fill="black"/>
<path d="M275.909 177.727C278.246 177.457 277.832 173.824 275.489 174.095C273.152 174.365 273.572 177.997 275.909 177.727Z" fill="black"/>
<path d="M281.919 183.861C288.707 190.832 291.333 200.7 288.876 210.12C288.481 211.638 290.891 211.998 291.287 210.492C293.885 200.534 291.057 189.768 283.873 182.396C282.794 181.294 280.827 182.742 281.919 183.861Z" fill="black"/>
</svg>
